<?xml version="1.0" encoding="UTF-8" standalone="no"?>
<!DOCTYPE svg PUBLIC "-//W3C//DTD SVG 1.1//EN" "http://www.w3.org/Graphics/SVG/1.1/DTD/svg11.dtd">
<svg width="100%" height="100%" viewBox="0 0 254 120" version="1.1" xmlns="http://www.w3.org/2000/svg" xmlns:xlink="http://www.w3.org/1999/xlink" xml:space="preserve" xmlns:serif="http://www.serif.com/" style="fill-rule:evenodd;clip-rule:evenodd;stroke-linejoin:round;stroke-miterlimit:2;">
    <g transform="matrix(1,0,0,1,-2104,-4934)">
        <g transform="matrix(1.33333,0,0,4.94583,1865.37,39)">
            <g transform="matrix(0.101846,0,0,0.0274563,183.931,974.602)">
                <path d="M868.843,1004.2L868.843,933.273L734.785,859.772L734.785,706.897L868.843,632.606L868.843,563.689L671.802,672.292L671.802,895.912L868.843,1004.2Z"/>
                <path d="M865.525,1010.24C867.659,1011.41 870.254,1011.37 872.35,1010.13C874.446,1008.89 875.731,1006.63 875.731,1004.2L875.731,933.273C875.731,930.758 874.36,928.442 872.154,927.233L741.674,855.692C741.674,855.692 741.674,710.955 741.674,710.955C741.674,710.955 872.182,638.631 872.182,638.631C874.372,637.417 875.731,635.11 875.731,632.606L875.731,563.689C875.731,561.253 874.444,558.997 872.346,557.758C870.248,556.519 867.651,556.48 865.517,557.656L668.477,666.259C666.278,667.471 664.913,669.782 664.913,672.292L664.913,895.912C664.913,898.425 666.282,900.739 668.484,901.949L865.525,1010.24ZM861.954,992.552L678.691,891.837C678.691,891.837 678.691,676.361 678.691,676.361C678.691,676.361 861.954,575.352 861.954,575.352C861.954,575.352 861.954,628.547 861.954,628.547C861.954,628.547 731.445,700.872 731.445,700.872C729.255,702.085 727.896,704.393 727.896,706.897L727.896,859.772C727.896,862.287 729.267,864.603 731.473,865.812L861.954,937.353L861.954,992.552Z"/>
                <path d="M1035.54,747.706L1035.54,706.897L901.48,632.606L901.48,563.689L1098.52,672.292L1098.52,895.912L901.48,1004.2L901.48,933.273L1035.54,859.772L1035.54,810.55L902.297,810.55L902.297,747.706L1035.54,747.706Z"/>
                <path d="M1028.65,740.817L902.297,740.817C898.492,740.817 895.408,743.901 895.408,747.706L895.408,810.55C895.408,814.354 898.492,817.438 902.297,817.438L1028.65,817.438C1028.65,817.439 1028.65,855.692 1028.65,855.692C1028.65,855.692 898.168,927.233 898.168,927.233C895.962,928.442 894.591,930.758 894.591,933.273L894.591,1004.2C894.591,1006.63 895.877,1008.89 897.973,1010.13C900.069,1011.37 902.664,1011.41 904.798,1010.24L1101.84,901.949C1104.04,900.739 1105.41,898.425 1105.41,895.912L1105.41,672.292C1105.41,669.782 1104.04,667.471 1101.85,666.259L904.805,557.656C902.671,556.48 900.074,556.519 897.976,557.758C895.878,558.997 894.591,561.253 894.591,563.689L894.591,632.606C894.591,635.11 895.95,637.417 898.141,638.631L1028.65,710.955L1028.65,740.817ZM1035.54,754.595C1039.34,754.595 1042.43,751.511 1042.43,747.706L1042.43,706.897C1042.43,704.393 1041.07,702.085 1038.88,700.872L908.369,628.547C908.369,628.547 908.369,575.352 908.369,575.352C908.369,575.352 1091.63,676.361 1091.63,676.361C1091.63,676.361 1091.63,891.837 1091.63,891.837C1091.63,891.837 908.369,992.552 908.369,992.552C908.369,992.552 908.369,937.353 908.369,937.353C908.369,937.353 1038.85,865.812 1038.85,865.812C1041.06,864.603 1042.43,862.287 1042.43,859.772L1042.43,810.55C1042.43,806.745 1039.34,803.661 1035.54,803.661L909.186,803.661C909.186,803.661 909.186,754.595 909.186,754.595C909.186,754.595 1035.54,754.595 1035.54,754.595Z"/>
            </g>
            <g transform="matrix(0.75,0,0,0.390437,-996.328,976.369)">
                <g transform="matrix(0.220242,0,0,0.114054,1490.94,27.343)">
                    <g transform="matrix(153.812,0,0,153.812,341.122,558.474)">
                        <path d="M0.036,-0.261C0.036,-0.344 0.058,-0.412 0.103,-0.463C0.147,-0.515 0.205,-0.541 0.276,-0.541C0.313,-0.541 0.344,-0.533 0.369,-0.518C0.394,-0.503 0.413,-0.486 0.425,-0.468L0.433,-0.468L0.433,-0.75L0.588,-0.75L0.588,-0L0.434,-0L0.434,-0.06L0.426,-0.06C0.421,-0.053 0.415,-0.045 0.408,-0.038C0.401,-0.031 0.392,-0.023 0.38,-0.015C0.369,-0.007 0.354,0 0.337,0.005C0.319,0.011 0.3,0.013 0.28,0.013C0.207,0.013 0.148,-0.012 0.103,-0.062C0.059,-0.112 0.036,-0.179 0.036,-0.261ZM0.193,-0.264C0.193,-0.223 0.204,-0.19 0.227,-0.165C0.249,-0.14 0.278,-0.127 0.315,-0.127C0.351,-0.127 0.381,-0.14 0.403,-0.166C0.425,-0.192 0.436,-0.224 0.436,-0.264C0.436,-0.306 0.425,-0.339 0.402,-0.364C0.379,-0.388 0.35,-0.401 0.314,-0.401C0.278,-0.401 0.249,-0.388 0.227,-0.363C0.204,-0.337 0.193,-0.305 0.193,-0.264Z" style="fill-rule:nonzero;"/>
                    </g>
                    <g transform="matrix(153.812,0,0,153.812,432.754,558.474)">
                        <path d="M0.036,-0.261C0.036,-0.344 0.061,-0.411 0.111,-0.463C0.161,-0.515 0.227,-0.541 0.307,-0.541C0.349,-0.541 0.388,-0.534 0.422,-0.519C0.456,-0.504 0.483,-0.484 0.505,-0.458C0.526,-0.433 0.543,-0.404 0.554,-0.371C0.566,-0.338 0.572,-0.303 0.572,-0.266L0.572,-0.221L0.183,-0.221C0.186,-0.187 0.198,-0.16 0.221,-0.138C0.244,-0.117 0.274,-0.106 0.31,-0.106C0.339,-0.106 0.364,-0.112 0.384,-0.124C0.404,-0.136 0.419,-0.151 0.427,-0.169L0.567,-0.169C0.555,-0.113 0.526,-0.069 0.479,-0.036C0.433,-0.003 0.375,0.013 0.304,0.013C0.254,0.013 0.208,0.001 0.167,-0.022C0.126,-0.045 0.094,-0.078 0.071,-0.12C0.048,-0.162 0.036,-0.209 0.036,-0.261ZM0.186,-0.324L0.428,-0.324C0.425,-0.353 0.413,-0.376 0.391,-0.395C0.369,-0.414 0.341,-0.423 0.307,-0.423C0.275,-0.423 0.248,-0.413 0.225,-0.394C0.203,-0.374 0.19,-0.351 0.186,-0.324Z" style="fill-rule:nonzero;"/>
                    </g>
                    <g transform="matrix(153.812,0,0,153.812,516.275,558.474)">
                        <path d="M0.016,-0.528L0.177,-0.528L0.287,-0.184L0.295,-0.184L0.405,-0.528L0.568,-0.528L0.382,-0L0.203,-0L0.016,-0.528Z" style="fill-rule:nonzero;"/>
                    </g>
                    <g transform="matrix(153.812,0,0,153.812,595.816,558.474)">
                        <path d="M0.036,-0.261C0.036,-0.344 0.061,-0.411 0.111,-0.463C0.161,-0.515 0.227,-0.541 0.307,-0.541C0.349,-0.541 0.388,-0.534 0.422,-0.519C0.456,-0.504 0.483,-0.484 0.505,-0.458C0.526,-0.433 0.543,-0.404 0.554,-0.371C0.566,-0.338 0.572,-0.303 0.572,-0.266L0.572,-0.221L0.183,-0.221C0.186,-0.187 0.198,-0.16 0.221,-0.138C0.244,-0.117 0.274,-0.106 0.31,-0.106C0.339,-0.106 0.364,-0.112 0.384,-0.124C0.404,-0.136 0.419,-0.151 0.427,-0.169L0.567,-0.169C0.555,-0.113 0.526,-0.069 0.479,-0.036C0.433,-0.003 0.375,0.013 0.304,0.013C0.254,0.013 0.208,0.001 0.167,-0.022C0.126,-0.045 0.094,-0.078 0.071,-0.12C0.048,-0.162 0.036,-0.209 0.036,-0.261ZM0.186,-0.324L0.428,-0.324C0.425,-0.353 0.413,-0.376 0.391,-0.395C0.369,-0.414 0.341,-0.423 0.307,-0.423C0.275,-0.423 0.248,-0.413 0.225,-0.394C0.203,-0.374 0.19,-0.351 0.186,-0.324Z" style="fill-rule:nonzero;"/>
                    </g>
                    <g transform="matrix(153.812,0,0,153.812,681.815,558.474)">
                        <path d="M0.066,-0.166L0.066,-0.75L0.221,-0.75L0.221,-0.184C0.221,-0.152 0.236,-0.136 0.265,-0.136L0.284,-0.136L0.284,-0L0.231,-0C0.179,-0 0.138,-0.015 0.109,-0.044C0.08,-0.073 0.066,-0.114 0.066,-0.166Z" style="fill-rule:nonzero;"/>
                    </g>
                    <g transform="matrix(153.812,0,0,153.812,723.278,558.474)">
                        <path d="M0.036,-0.264C0.036,-0.303 0.043,-0.339 0.057,-0.373C0.071,-0.407 0.09,-0.436 0.114,-0.461C0.139,-0.486 0.169,-0.505 0.204,-0.52C0.24,-0.534 0.279,-0.541 0.321,-0.541C0.404,-0.541 0.472,-0.515 0.525,-0.462C0.578,-0.409 0.605,-0.343 0.605,-0.264C0.605,-0.225 0.598,-0.189 0.584,-0.155C0.57,-0.121 0.551,-0.092 0.526,-0.067C0.502,-0.042 0.471,-0.023 0.436,-0.008C0.4,0.006 0.361,0.013 0.32,0.013C0.265,0.013 0.216,0.001 0.172,-0.024C0.129,-0.048 0.095,-0.082 0.072,-0.124C0.048,-0.166 0.036,-0.212 0.036,-0.264ZM0.193,-0.264C0.193,-0.224 0.205,-0.191 0.229,-0.165C0.253,-0.14 0.283,-0.127 0.32,-0.127C0.357,-0.127 0.388,-0.14 0.412,-0.166C0.436,-0.191 0.448,-0.224 0.448,-0.264C0.448,-0.304 0.436,-0.337 0.412,-0.363C0.388,-0.388 0.357,-0.401 0.32,-0.401C0.283,-0.401 0.253,-0.388 0.229,-0.363C0.205,-0.337 0.193,-0.304 0.193,-0.264Z" style="fill-rule:nonzero;"/>
                    </g>
                    <g transform="matrix(153.812,0,0,153.812,815.661,558.474)">
                        <path d="M0.066,0.23L0.066,-0.528L0.219,-0.528L0.219,-0.469L0.227,-0.469C0.232,-0.476 0.237,-0.484 0.245,-0.491C0.252,-0.498 0.261,-0.506 0.273,-0.514C0.284,-0.522 0.299,-0.528 0.317,-0.533C0.334,-0.538 0.354,-0.541 0.374,-0.541C0.446,-0.541 0.505,-0.516 0.55,-0.466C0.595,-0.416 0.617,-0.35 0.617,-0.267C0.617,-0.184 0.595,-0.117 0.551,-0.065C0.507,-0.013 0.449,0.013 0.378,0.013C0.351,0.013 0.327,0.009 0.305,0C0.283,-0.008 0.267,-0.018 0.256,-0.028C0.245,-0.038 0.236,-0.049 0.229,-0.06L0.221,-0.06L0.221,0.23L0.066,0.23ZM0.218,-0.264C0.218,-0.222 0.229,-0.189 0.251,-0.164C0.274,-0.139 0.303,-0.127 0.339,-0.127C0.375,-0.127 0.404,-0.14 0.426,-0.165C0.449,-0.19 0.46,-0.223 0.46,-0.264C0.46,-0.306 0.449,-0.339 0.427,-0.364C0.404,-0.388 0.375,-0.401 0.339,-0.401C0.302,-0.401 0.273,-0.388 0.251,-0.363C0.229,-0.337 0.218,-0.304 0.218,-0.264Z" style="fill-rule:nonzero;"/>
                    </g>
                    <g transform="matrix(153.812,0,0,153.812,909.922,558.474)">
                        <path d="M0.036,-0.261C0.036,-0.344 0.061,-0.411 0.111,-0.463C0.161,-0.515 0.227,-0.541 0.307,-0.541C0.349,-0.541 0.388,-0.534 0.422,-0.519C0.456,-0.504 0.483,-0.484 0.505,-0.458C0.526,-0.433 0.543,-0.404 0.554,-0.371C0.566,-0.338 0.572,-0.303 0.572,-0.266L0.572,-0.221L0.183,-0.221C0.186,-0.187 0.198,-0.16 0.221,-0.138C0.244,-0.117 0.274,-0.106 0.31,-0.106C0.339,-0.106 0.364,-0.112 0.384,-0.124C0.404,-0.136 0.419,-0.151 0.427,-0.169L0.567,-0.169C0.555,-0.113 0.526,-0.069 0.479,-0.036C0.433,-0.003 0.375,0.013 0.304,0.013C0.254,0.013 0.208,0.001 0.167,-0.022C0.126,-0.045 0.094,-0.078 0.071,-0.12C0.048,-0.162 0.036,-0.209 0.036,-0.261ZM0.186,-0.324L0.428,-0.324C0.425,-0.353 0.413,-0.376 0.391,-0.395C0.369,-0.414 0.341,-0.423 0.307,-0.423C0.275,-0.423 0.248,-0.413 0.225,-0.394C0.203,-0.374 0.19,-0.351 0.186,-0.324Z" style="fill-rule:nonzero;"/>
                    </g>
                    <g transform="matrix(153.812,0,0,153.812,997.274,558.474)">
                        <path d="M0.066,-0L0.066,-0.528L0.212,-0.528L0.212,-0.448L0.22,-0.448C0.231,-0.471 0.248,-0.49 0.271,-0.507C0.295,-0.524 0.323,-0.532 0.356,-0.532L0.407,-0.532L0.407,-0.386L0.346,-0.386C0.308,-0.386 0.277,-0.373 0.255,-0.347C0.232,-0.321 0.221,-0.285 0.221,-0.24L0.221,-0L0.066,-0Z" style="fill-rule:nonzero;"/>
                    </g>
                    <g transform="matrix(153.812,0,0,153.812,1059.24,558.474)">
                        <path d="M0.036,-0.162L0.177,-0.162C0.179,-0.144 0.187,-0.13 0.202,-0.12C0.217,-0.111 0.237,-0.106 0.263,-0.106C0.289,-0.106 0.309,-0.11 0.323,-0.119C0.337,-0.128 0.344,-0.14 0.344,-0.155C0.344,-0.166 0.34,-0.175 0.331,-0.182C0.323,-0.189 0.311,-0.194 0.298,-0.197C0.284,-0.2 0.268,-0.203 0.25,-0.206C0.232,-0.209 0.214,-0.212 0.195,-0.214C0.176,-0.217 0.158,-0.222 0.14,-0.229C0.122,-0.237 0.106,-0.246 0.093,-0.256C0.079,-0.267 0.067,-0.282 0.059,-0.302C0.05,-0.323 0.046,-0.346 0.046,-0.373C0.046,-0.42 0.065,-0.46 0.104,-0.492C0.142,-0.525 0.195,-0.541 0.263,-0.541C0.326,-0.541 0.377,-0.526 0.416,-0.497C0.455,-0.468 0.477,-0.427 0.48,-0.373L0.346,-0.373C0.344,-0.39 0.335,-0.403 0.321,-0.412C0.307,-0.422 0.288,-0.427 0.263,-0.427C0.24,-0.427 0.221,-0.422 0.207,-0.414C0.193,-0.405 0.186,-0.394 0.186,-0.38C0.186,-0.371 0.19,-0.363 0.197,-0.358C0.204,-0.352 0.213,-0.348 0.225,-0.345C0.237,-0.342 0.25,-0.339 0.266,-0.338C0.281,-0.336 0.298,-0.334 0.314,-0.331C0.331,-0.328 0.348,-0.325 0.365,-0.322C0.383,-0.318 0.399,-0.312 0.414,-0.304C0.43,-0.296 0.443,-0.286 0.455,-0.275C0.467,-0.264 0.477,-0.248 0.484,-0.229C0.491,-0.21 0.494,-0.188 0.494,-0.163C0.494,-0.111 0.474,-0.068 0.433,-0.036C0.392,-0.003 0.335,0.013 0.262,0.013C0.188,0.013 0.133,-0.002 0.095,-0.033C0.057,-0.064 0.038,-0.107 0.036,-0.162Z" style="fill-rule:nonzero;"/>
                    </g>
                    <g transform="matrix(153.812,0,0,153.812,1134.73,558.474)">
                        <path d="M0.066,-0L0.066,-0.75L0.221,-0.75L0.221,-0.468L0.229,-0.468C0.241,-0.486 0.26,-0.503 0.284,-0.518C0.309,-0.533 0.34,-0.541 0.378,-0.541C0.449,-0.541 0.507,-0.515 0.551,-0.463C0.595,-0.412 0.617,-0.344 0.617,-0.261C0.617,-0.179 0.595,-0.112 0.55,-0.062C0.505,-0.012 0.446,0.013 0.374,0.013C0.354,0.013 0.334,0.011 0.317,0.005C0.299,0 0.284,-0.007 0.273,-0.015C0.261,-0.023 0.252,-0.031 0.245,-0.038C0.237,-0.045 0.232,-0.053 0.227,-0.06L0.219,-0.06L0.219,-0L0.066,-0ZM0.218,-0.264C0.218,-0.224 0.229,-0.192 0.251,-0.166C0.273,-0.14 0.302,-0.127 0.339,-0.127C0.375,-0.127 0.404,-0.14 0.426,-0.165C0.449,-0.19 0.46,-0.223 0.46,-0.264C0.46,-0.305 0.449,-0.337 0.426,-0.363C0.404,-0.388 0.375,-0.401 0.339,-0.401C0.303,-0.401 0.274,-0.389 0.251,-0.364C0.229,-0.339 0.218,-0.306 0.218,-0.264Z" style="fill-rule:nonzero;"/>
                    </g>
                    <g transform="matrix(153.812,0,0,153.812,1228.99,558.474)">
                        <path d="M0.036,-0.261C0.036,-0.344 0.058,-0.412 0.103,-0.463C0.147,-0.515 0.205,-0.541 0.276,-0.541C0.313,-0.541 0.344,-0.533 0.369,-0.518C0.394,-0.503 0.413,-0.486 0.425,-0.468L0.433,-0.468L0.433,-0.528L0.588,-0.528L0.588,-0L0.434,-0L0.434,-0.06L0.426,-0.06C0.421,-0.053 0.415,-0.045 0.408,-0.038C0.401,-0.031 0.392,-0.023 0.38,-0.015C0.369,-0.007 0.354,0 0.337,0.005C0.319,0.011 0.3,0.013 0.28,0.013C0.207,0.013 0.148,-0.012 0.103,-0.062C0.059,-0.112 0.036,-0.179 0.036,-0.261ZM0.193,-0.264C0.193,-0.223 0.204,-0.19 0.227,-0.165C0.249,-0.14 0.278,-0.127 0.315,-0.127C0.351,-0.127 0.381,-0.14 0.403,-0.166C0.425,-0.192 0.436,-0.224 0.436,-0.264C0.436,-0.306 0.425,-0.339 0.402,-0.364C0.379,-0.388 0.35,-0.401 0.314,-0.401C0.278,-0.401 0.249,-0.388 0.227,-0.363C0.204,-0.337 0.193,-0.305 0.193,-0.264Z" style="fill-rule:nonzero;"/>
                    </g>
                    <g transform="matrix(153.812,0,0,153.812,1320.62,558.474)">
                        <path d="M0.066,-0L0.066,-0.528L0.212,-0.528L0.212,-0.47L0.22,-0.47C0.232,-0.49 0.25,-0.507 0.275,-0.521C0.3,-0.534 0.329,-0.541 0.362,-0.541C0.419,-0.541 0.465,-0.523 0.5,-0.488C0.534,-0.453 0.551,-0.408 0.551,-0.352L0.551,-0L0.396,-0L0.396,-0.304C0.396,-0.332 0.388,-0.354 0.373,-0.371C0.358,-0.388 0.337,-0.397 0.311,-0.397C0.284,-0.397 0.263,-0.387 0.246,-0.368C0.229,-0.349 0.221,-0.325 0.221,-0.296L0.221,-0L0.066,-0Z" style="fill-rule:nonzero;"/>
                    </g>
                    <g transform="matrix(153.812,0,0,153.812,1406.69,558.474)">
                        <path d="M0.066,-0L0.066,-0.75L0.221,-0.75L0.221,-0.348L0.227,-0.348L0.377,-0.528L0.568,-0.528L0.398,-0.338L0.581,-0L0.407,-0L0.291,-0.219L0.221,-0.141L0.221,-0L0.066,-0Z" style="fill-rule:nonzero;"/>
                    </g>
                </g>
                <g transform="matrix(0.141777,0,0,0.0734203,1612.58,38.051)">
                    <g transform="matrix(68.5523,0,0,68.5523,920,792)">
                        <path d="M0.08,-0.256L0.08,-0.7L0.188,-0.7L0.188,-0.257C0.188,-0.204 0.202,-0.162 0.23,-0.132C0.258,-0.102 0.298,-0.087 0.35,-0.087C0.402,-0.087 0.442,-0.102 0.47,-0.132C0.498,-0.163 0.512,-0.204 0.512,-0.258L0.512,-0.7L0.619,-0.7L0.619,-0.257C0.619,-0.175 0.595,-0.11 0.547,-0.061C0.498,-0.011 0.433,0.013 0.35,0.013C0.266,0.013 0.2,-0.011 0.152,-0.06C0.104,-0.109 0.08,-0.174 0.08,-0.256Z" style="fill-rule:nonzero;"/>
                    </g>
                    <g transform="matrix(68.5523,0,0,68.5523,967.9,792)">
                        <path d="M0.089,-0L0.089,-0.7L0.204,-0.7L0.536,-0.182L0.542,-0.182L0.542,-0.7L0.647,-0.7L0.647,-0L0.531,-0L0.201,-0.518L0.195,-0.518L0.195,-0L0.089,-0Z" style="fill-rule:nonzero;"/>
                    </g>
                    <g transform="matrix(68.5523,0,0,68.5523,1018.41,792)">
                        <rect x="0.089" y="-0.7" width="0.108" height="0.7" style="fill-rule:nonzero;"/>
                    </g>
                    <g transform="matrix(68.5523,0,0,68.5523,1037.99,792)">
                        <path d="M0.089,-0L0.089,-0.7L0.215,-0.7L0.458,-0.136L0.464,-0.136L0.686,-0.7L0.811,-0.7L0.811,-0L0.707,-0L0.707,-0.479L0.701,-0.479L0.511,-0L0.407,-0L0.199,-0.484L0.193,-0.484L0.193,-0L0.089,-0Z" style="fill-rule:nonzero;"/>
                    </g>
                    <g transform="matrix(68.5523,0,0,68.5523,1099.68,792)">
                        <path d="M0.018,-0L0.277,-0.7L0.408,-0.7L0.668,-0L0.554,-0L0.499,-0.152L0.184,-0.152L0.129,-0L0.018,-0ZM0.218,-0.249L0.465,-0.249L0.345,-0.579L0.338,-0.579L0.218,-0.249Z" style="fill-rule:nonzero;"/>
                    </g>
                    <g transform="matrix(68.5523,0,0,68.5523,1145.1,792)">
                        <path d="M0.046,-0.35C0.046,-0.418 0.061,-0.48 0.092,-0.535C0.123,-0.59 0.167,-0.634 0.222,-0.665C0.278,-0.697 0.341,-0.713 0.41,-0.713C0.493,-0.713 0.564,-0.691 0.623,-0.647C0.683,-0.603 0.724,-0.546 0.745,-0.476L0.626,-0.476C0.609,-0.517 0.581,-0.55 0.544,-0.574C0.507,-0.599 0.462,-0.611 0.41,-0.611C0.336,-0.611 0.275,-0.586 0.228,-0.537C0.182,-0.488 0.158,-0.425 0.158,-0.35C0.158,-0.274 0.182,-0.211 0.229,-0.162C0.275,-0.113 0.336,-0.088 0.411,-0.088C0.475,-0.088 0.529,-0.106 0.573,-0.143C0.617,-0.179 0.641,-0.226 0.645,-0.282L0.393,-0.282L0.393,-0.373L0.765,-0.373L0.765,-0.364C0.765,-0.306 0.757,-0.254 0.739,-0.207C0.721,-0.158 0.696,-0.117 0.664,-0.085C0.632,-0.054 0.594,-0.029 0.551,-0.012C0.507,0.005 0.461,0.013 0.41,0.013C0.358,0.013 0.31,0.004 0.265,-0.014C0.219,-0.033 0.181,-0.058 0.149,-0.09C0.117,-0.122 0.091,-0.161 0.073,-0.206C0.055,-0.25 0.046,-0.299 0.046,-0.35Z" style="fill-rule:nonzero;"/>
                    </g>
                    <g transform="matrix(68.5523,0,0,68.5523,1200.74,792)">
                        <path d="M0.089,-0L0.089,-0.7L0.311,-0.7C0.384,-0.7 0.447,-0.685 0.501,-0.655C0.555,-0.625 0.596,-0.584 0.624,-0.532C0.651,-0.48 0.665,-0.419 0.665,-0.351C0.665,-0.242 0.634,-0.156 0.571,-0.094C0.509,-0.031 0.422,-0 0.311,-0L0.089,-0ZM0.197,-0.094L0.309,-0.094C0.383,-0.094 0.443,-0.116 0.488,-0.161C0.533,-0.205 0.555,-0.268 0.555,-0.351C0.555,-0.431 0.533,-0.493 0.488,-0.538C0.443,-0.583 0.384,-0.605 0.309,-0.605L0.197,-0.605L0.197,-0.094Z" style="fill-rule:nonzero;"/>
                    </g>
                    <g transform="matrix(68.5523,0,0,68.5523,1248.03,792)">
                        <path d="M0.018,-0L0.277,-0.7L0.408,-0.7L0.668,-0L0.554,-0L0.499,-0.152L0.184,-0.152L0.129,-0L0.018,-0ZM0.218,-0.249L0.465,-0.249L0.345,-0.579L0.338,-0.579L0.218,-0.249Z" style="fill-rule:nonzero;"/>
                    </g>
                    <g transform="matrix(68.5523,0,0,68.5523,1294.96,792)">
                        <path d="M0.089,-0L0.089,-0.7L0.197,-0.7L0.197,-0.096L0.489,-0.096L0.489,-0L0.089,-0Z" style="fill-rule:nonzero;"/>
                    </g>
                    <g transform="matrix(68.5523,0,0,68.5523,1331.55,792)">
                        <path d="M0.089,-0L0.089,-0.7L0.504,-0.7L0.504,-0.605L0.197,-0.605L0.197,-0.402L0.46,-0.402L0.46,-0.308L0.197,-0.308L0.197,-0.094L0.514,-0.094L0.514,-0L0.089,-0Z" style="fill-rule:nonzero;"/>
                    </g>
                    <g transform="matrix(68.5523,0,0,68.5523,1369.97,792)">
                        <path d="M0.089,-0L0.089,-0.7L0.204,-0.7L0.536,-0.182L0.542,-0.182L0.542,-0.7L0.647,-0.7L0.647,-0L0.531,-0L0.201,-0.518L0.195,-0.518L0.195,-0L0.089,-0Z" style="fill-rule:nonzero;"/>
                    </g>
                    <g transform="matrix(68.5523,0,0,68.5523,1420.49,792)">
                        <path d="M0.018,-0L0.277,-0.7L0.408,-0.7L0.668,-0L0.554,-0L0.499,-0.152L0.184,-0.152L0.129,-0L0.018,-0ZM0.218,-0.249L0.465,-0.249L0.345,-0.579L0.338,-0.579L0.218,-0.249Z" style="fill-rule:nonzero;"/>
                    </g>
                </g>
            </g>
        </g>
    </g>
</svg>
