<?xml version="1.0" encoding="UTF-8" standalone="no"?>
<!DOCTYPE svg PUBLIC "-//W3C//DTD SVG 1.1//EN" "http://www.w3.org/Graphics/SVG/1.1/DTD/svg11.dtd">
<svg width="100%" height="100%" viewBox="0 0 75 112" version="1.1" xmlns="http://www.w3.org/2000/svg" xmlns:xlink="http://www.w3.org/1999/xlink" xml:space="preserve" xmlns:serif="http://www.serif.com/" style="fill-rule:evenodd;clip-rule:evenodd;stroke-linejoin:round;stroke-miterlimit:2;">
    <g transform="matrix(1,0,0,1,-2504,-2084)">
        <g transform="matrix(1.33333,0,0,3.98333,1821.37,39)">
            <g transform="matrix(1,0,0,0.568828,157.968,-18.5774)">
                <g transform="matrix(0.162584,0,0,0.0956726,340.41,935.429)">
                    <path d="M255.503,257.56C289.287,257.56 316.774,230.074 316.774,196.289C316.774,180.832 310.994,166.068 300.499,154.714C297.691,151.676 292.951,151.489 289.913,154.299C286.875,157.107 286.689,161.846 289.497,164.884C297.425,173.46 301.793,184.614 301.793,196.289C301.793,221.813 281.028,242.579 255.503,242.579C229.978,242.579 209.213,221.813 209.213,196.289C209.213,170.764 229.978,149.999 255.503,149.999C258.867,149.999 262.266,150.375 265.603,151.118C269.646,152.016 273.643,149.471 274.542,145.433C275.44,141.395 272.895,137.393 268.857,136.494C264.453,135.514 259.961,135.017 255.503,135.017C221.718,135.017 194.231,162.503 194.231,196.288C194.231,230.075 221.718,257.56 255.503,257.56Z" style="fill:rgb(200,255,48);fill-rule:nonzero;"/>
                </g>
                <g transform="matrix(0.162584,0,0,0.0956726,340.41,935.429)">
                    <path d="M348.043,415.585C338.778,415.585 329.673,418.288 321.929,423.269C315.494,413.574 304.49,407.536 292.668,407.536C289.865,407.536 287.113,407.862 284.435,408.508L284.435,392.599C295.009,389.483 303.356,380.698 305.556,369.452L309.783,347.857C316.506,346.572 322.067,341.354 323.577,334.501L329.126,309.313L373.024,309.313C384.484,309.313 393.806,299.991 393.806,288.532L393.806,269.715C393.806,265.578 390.453,262.224 386.316,262.224C382.178,262.224 378.825,265.578 378.825,269.715L378.825,288.532C378.825,291.73 376.223,294.332 373.024,294.332L332.427,294.332L338.203,268.117C346.536,230.293 347.225,191.711 340.838,154.476L346.219,159.341C366.941,178.075 378.825,204.84 378.825,232.775L378.825,237.793C378.825,241.93 382.178,245.283 386.316,245.283C390.453,245.283 393.806,241.93 393.806,237.793L393.806,232.775C393.806,200.612 380.123,169.796 356.264,148.228L335.4,129.366C323.472,83.863 300.753,41.197 268.318,5.455C265.171,1.989 260.682,0 256.002,0C251.321,0 246.831,1.989 243.686,5.454C211.25,41.196 188.532,83.862 176.604,129.365L155.74,148.227C131.881,169.795 118.198,200.611 118.198,232.774L118.198,237.792C118.198,241.929 121.551,245.282 125.688,245.282C129.826,245.282 133.179,241.929 133.179,237.792L133.179,232.774C133.179,204.839 145.063,178.074 165.785,159.34L171.166,154.475C164.778,191.71 165.468,230.293 173.801,268.116L179.577,294.331L138.98,294.331C135.782,294.331 133.179,291.729 133.179,288.531L133.179,269.714C133.179,265.577 129.826,262.223 125.688,262.223C121.551,262.223 118.198,265.577 118.198,269.714L118.198,288.531C118.198,299.99 127.52,309.312 138.98,309.312L182.878,309.312L188.427,334.501C189.859,340.995 194.928,346.023 201.178,347.624L205.449,369.451C207.719,381.049 216.523,390.031 227.569,392.875L227.569,408.507C224.891,407.861 222.138,407.535 219.336,407.535C207.515,407.535 196.512,413.573 190.076,423.266C181.637,417.824 171.675,415.135 161.5,415.645C137.189,416.858 117.575,436.072 115.876,460.336C114.928,473.876 119.481,486.777 128.698,496.66C137.787,506.408 150.64,511.998 163.962,511.998C170.686,511.998 177.208,510.629 183.347,507.93C187.133,506.265 188.854,501.845 187.188,498.057C185.524,494.27 181.108,492.551 177.316,494.215C173.09,496.074 168.598,497.017 163.962,497.017C154.645,497.017 146.013,493.261 139.655,486.444C133.304,479.633 130.166,470.732 130.82,461.382C131.99,444.674 145.501,431.444 162.248,430.608C170.429,430.193 178.408,432.778 184.744,437.867C187.332,439.944 190.662,440.709 193.886,439.96C197.088,439.217 199.726,437.083 201.122,434.104C204.422,427.065 211.571,422.516 219.335,422.516C222.172,422.516 224.914,423.095 227.481,424.237C230.824,425.725 234.644,425.428 237.7,423.443C240.736,421.472 242.548,418.13 242.548,414.505L242.548,393.828L269.453,393.828L269.453,414.505C269.453,418.13 271.265,421.472 274.301,423.443C277.359,425.429 281.178,425.724 284.517,424.239C287.087,423.095 289.829,422.516 292.666,422.516C300.429,422.516 307.579,427.065 310.879,434.104C312.275,437.082 314.913,439.216 318.114,439.958C321.336,440.706 324.672,439.942 327.261,437.864C333.209,433.09 340.393,430.566 348.04,430.566C357.337,430.566 365.956,434.307 372.311,441.101C378.659,447.888 381.813,456.764 381.189,466.093C380.118,482.104 367.272,495.332 351.311,496.861C345.526,497.414 339.935,496.525 334.686,494.217C330.9,492.554 326.479,494.272 324.815,498.059C323.149,501.847 324.87,506.266 328.657,507.931C334.761,510.616 341.404,511.995 348.101,511.995C349.646,511.995 351.196,511.922 352.741,511.773C375.926,509.553 394.583,490.344 396.138,467.092C397.041,453.581 392.466,440.715 383.254,430.867C374.171,421.156 361.336,415.585 348.043,415.585ZM219.573,63.813L292.431,63.813C295.484,69.105 298.357,74.49 301.052,79.952L210.953,79.952C213.646,74.489 216.519,69.105 219.573,63.813ZM254.78,15.523C255.185,15.075 255.668,14.981 256.002,14.981C256.336,14.981 256.818,15.075 257.224,15.523C266.764,26.033 275.417,37.175 283.156,48.832L228.849,48.832C236.587,37.174 245.241,26.033 254.78,15.523ZM188.43,264.894C175.751,207.345 181.71,147.945 204.101,94.933L307.901,94.933C330.292,147.945 336.251,207.346 323.572,264.894L308.947,331.277C308.699,332.401 307.72,333.188 306.569,333.188L277.581,333.188L278.769,288.448C278.892,283.858 277.195,279.519 273.991,276.229C270.788,272.939 266.495,271.127 261.903,271.127L250.097,271.127C245.505,271.127 241.213,272.939 238.009,276.229C234.805,279.519 233.108,283.858 233.231,288.448L234.419,333.189L205.431,333.189C204.28,333.189 203.301,332.403 203.053,331.279L188.43,264.894ZM263.795,288.05L262.385,341.144C262.358,342.177 261.527,342.985 260.493,342.985L251.509,342.985C250.476,342.985 249.645,342.176 249.617,341.143L248.207,288.049C248.189,287.39 248.488,286.94 248.742,286.68C248.997,286.419 249.437,286.107 250.097,286.107L261.903,286.107C262.563,286.107 263.004,286.419 263.258,286.68C263.514,286.94 263.813,287.39 263.795,288.05ZM220.15,366.574L216.547,348.169L236.173,348.169C238.831,353.986 244.668,357.966 251.509,357.966L260.493,357.966C267.334,357.966 273.171,353.986 275.829,348.169L294.456,348.169L290.853,366.574C289.461,373.686 283.192,378.848 275.945,378.848L235.057,378.848C227.811,378.848 221.542,373.686 220.15,366.574Z" style="fill:rgb(200,255,48);fill-rule:nonzero;"/>
                </g>
                <g transform="matrix(0.162584,0,0,0.0956726,340.41,935.429)">
                    <path d="M101.952,429.028C98.147,427.394 93.746,429.156 92.114,432.957C88.659,441.008 86.597,449.516 85.985,458.246C85.337,467.506 86.34,476.751 88.967,485.729C89.924,488.997 92.911,491.118 96.153,491.118C96.85,491.118 97.558,491.02 98.26,490.815C102.231,489.652 104.507,485.491 103.345,481.521C101.218,474.253 100.405,466.774 100.928,459.292C101.423,452.242 103.088,445.37 105.879,438.866C107.512,435.064 105.753,430.66 101.952,429.028Z" style="fill:rgb(200,255,48);fill-rule:nonzero;"/>
                </g>
                <g transform="matrix(0.162584,0,0,0.0956726,340.41,935.429)">
                    <path d="M419.829,432.96C418.2,429.158 413.798,427.396 409.992,429.027C406.19,430.657 404.429,435.061 406.059,438.864C410.011,448.082 411.75,458.19 411.088,468.094C410.785,472.612 409.979,477.128 408.691,481.515C407.525,485.485 409.797,489.648 413.767,490.814C414.471,491.021 415.182,491.119 415.881,491.119C419.119,491.119 422.106,489.002 423.065,485.738C424.661,480.303 425.66,474.704 426.036,469.094C426.855,456.838 424.708,444.344 419.829,432.96Z" style="fill:rgb(200,255,48);fill-rule:nonzero;"/>
                </g>
                <g transform="matrix(0.162584,0,0,0.0956726,340.41,935.429)">
                    <path d="M207.486,450.166C203.348,450.166 199.995,453.519 199.995,457.656C199.995,461.793 203.348,465.147 207.486,465.147C221.125,465.147 232.221,476.243 232.221,489.882C232.221,494.019 235.574,497.372 239.711,497.372C243.849,497.372 247.202,494.019 247.202,489.882C247.201,467.982 229.384,450.166 207.486,450.166Z" style="fill:rgb(200,255,48);fill-rule:nonzero;"/>
                </g>
                <g transform="matrix(0.162584,0,0,0.0956726,340.41,935.429)">
                    <path d="M304.518,450.166C282.619,450.166 264.802,467.982 264.802,489.882C264.802,494.019 268.155,497.372 272.293,497.372C276.43,497.372 279.783,494.019 279.783,489.882C279.783,476.243 290.878,465.147 304.518,465.147C308.656,465.147 312.009,461.793 312.009,457.656C312.009,453.519 308.655,450.166 304.518,450.166Z" style="fill:rgb(200,255,48);fill-rule:nonzero;"/>
                </g>
            </g>
        </g>
    </g>
</svg>
