<?xml version="1.0" encoding="UTF-8" standalone="no"?>
<!DOCTYPE svg PUBLIC "-//W3C//DTD SVG 1.1//EN" "http://www.w3.org/Graphics/SVG/1.1/DTD/svg11.dtd">
<svg width="100%" height="100%" viewBox="0 0 596 111" version="1.1" xmlns="http://www.w3.org/2000/svg" xmlns:xlink="http://www.w3.org/1999/xlink" xml:space="preserve" xmlns:serif="http://www.serif.com/" style="fill-rule:evenodd;clip-rule:evenodd;stroke-linejoin:round;stroke-miterlimit:2;">
    <g transform="matrix(1,0,0,1,-1946,-5600)">
        <g transform="matrix(1.33333,0,0,4.82667,1821.37,39)">
            <g transform="matrix(0.418918,0,0,0.115723,-291.239,1140.64)">
                <g id="UM-Logo" serif:id="UM Logo">
                    <g>
                        <g>
                            <g transform="matrix(14.3814,0,0,14.3814,955.681,282.854)">
                                <path d="M0.495,-0.116L0.55,-0L0.705,-0L0.705,-0.02L0.385,-0.706L0.316,-0.706L-0.006,-0.02L-0.006,-0L0.15,-0L0.204,-0.116L0.495,-0.116ZM0.35,-0.473L0.447,-0.242L0.253,-0.242L0.35,-0.473Z" style="fill:rgb(200,255,48);fill-rule:nonzero;"/>
                            </g>
                            <g transform="matrix(14.3814,0,0,14.3814,965.475,282.854)">
                                <path d="M0.042,-0.349C0.042,-0.117 0.216,0.01 0.4,0.01C0.546,0.01 0.695,-0.067 0.725,-0.252L0.581,-0.252C0.557,-0.167 0.486,-0.126 0.399,-0.126C0.274,-0.126 0.193,-0.229 0.193,-0.349C0.193,-0.482 0.276,-0.575 0.4,-0.575C0.484,-0.575 0.547,-0.54 0.578,-0.461L0.723,-0.461C0.691,-0.634 0.541,-0.71 0.4,-0.71C0.216,-0.713 0.042,-0.582 0.042,-0.349Z" style="fill:rgb(200,255,48);fill-rule:nonzero;"/>
                            </g>
                            <g transform="matrix(14.3814,0,0,14.3814,976.419,282.854)">
                                <path d="M0.503,-0.255C0.583,-0.294 0.628,-0.372 0.628,-0.461C0.628,-0.585 0.541,-0.701 0.381,-0.701C0.281,-0.702 0.182,-0.701 0.082,-0.701L0.082,-0.001L0.232,-0.001L0.232,-0.232L0.357,-0.232L0.501,-0.001L0.661,-0.001L0.661,-0.022L0.503,-0.255ZM0.23,-0.355L0.23,-0.57L0.38,-0.57C0.444,-0.57 0.483,-0.523 0.483,-0.464C0.484,-0.404 0.443,-0.355 0.38,-0.355L0.23,-0.355Z" style="fill:rgb(200,255,48);fill-rule:nonzero;"/>
                            </g>
                            <g transform="matrix(14.3814,0,0,14.3814,986.357,282.854)">
                                <path d="M0.51,-0.7L0.081,-0.7L0.081,-0L0.518,-0L0.518,-0.136L0.232,-0.136L0.232,-0.296L0.492,-0.296L0.492,-0.427L0.232,-0.427L0.232,-0.569L0.51,-0.569L0.51,-0.7Z" style="fill:rgb(200,255,48);fill-rule:nonzero;"/>
                            </g>
                            <g transform="matrix(14.3814,0,0,14.3814,994.583,282.854)">
                                <path d="M0.082,-0.699L0.082,-0L0.342,-0C0.568,-0 0.688,-0.173 0.685,-0.352C0.685,-0.53 0.565,-0.699 0.342,-0.699L0.082,-0.699ZM0.231,-0.135L0.231,-0.564L0.34,-0.564C0.467,-0.564 0.536,-0.463 0.536,-0.351C0.536,-0.239 0.469,-0.135 0.34,-0.135L0.231,-0.135Z" style="fill:rgb(200,255,48);fill-rule:nonzero;"/>
                            </g>
                            <g transform="matrix(14.3814,0,0,14.3814,1004.87,282.854)">
                                <path d="M0.294,-0.119L0.294,-0.584L0.385,-0.584L0.385,-0.7L0.053,-0.7L0.053,-0.584L0.144,-0.584L0.144,-0.119L0.045,-0.119L0.045,-0L0.393,-0L0.393,-0.119L0.294,-0.119Z" style="fill:rgb(200,255,48);fill-rule:nonzero;"/>
                            </g>
                            <g transform="matrix(14.3814,0,0,14.3814,1011.17,282.854)">
                                <path d="M0.205,-0.57L0.205,-0L0.35,-0L0.35,-0.57L0.536,-0.57L0.536,-0.7L0.018,-0.7L0.018,-0.57L0.205,-0.57Z" style="fill:rgb(200,255,48);fill-rule:nonzero;"/>
                            </g>
                            <g transform="matrix(14.3814,0,0,14.3814,1018.38,282.854)">
                                <path d="M0.495,-0.116L0.55,-0L0.705,-0L0.705,-0.02L0.385,-0.706L0.316,-0.706L-0.006,-0.02L-0.006,-0L0.15,-0L0.204,-0.116L0.495,-0.116ZM0.35,-0.473L0.447,-0.242L0.253,-0.242L0.35,-0.473Z" style="fill:rgb(200,255,48);fill-rule:nonzero;"/>
                            </g>
                            <g transform="matrix(14.3814,0,0,14.3814,1028.45,282.854)">
                                <path d="M0.082,-0.699L0.082,-0L0.342,-0C0.568,-0 0.688,-0.173 0.685,-0.352C0.685,-0.53 0.565,-0.699 0.342,-0.699L0.082,-0.699ZM0.231,-0.135L0.231,-0.564L0.34,-0.564C0.467,-0.564 0.536,-0.463 0.536,-0.351C0.536,-0.239 0.469,-0.135 0.34,-0.135L0.231,-0.135Z" style="fill:rgb(200,255,48);fill-rule:nonzero;"/>
                            </g>
                            <g transform="matrix(14.3814,0,0,14.3814,1038.63,282.854)">
                                <path d="M0.495,-0.116L0.55,-0L0.705,-0L0.705,-0.02L0.385,-0.706L0.316,-0.706L-0.006,-0.02L-0.006,-0L0.15,-0L0.204,-0.116L0.495,-0.116ZM0.35,-0.473L0.447,-0.242L0.253,-0.242L0.35,-0.473Z" style="fill:rgb(200,255,48);fill-rule:nonzero;"/>
                            </g>
                            <g transform="matrix(14.3814,0,0,14.3814,939.401,297.995)">
                                <path d="M0.51,-0.7L0.081,-0.7L0.081,-0L0.518,-0L0.518,-0.136L0.232,-0.136L0.232,-0.296L0.492,-0.296L0.492,-0.427L0.232,-0.427L0.232,-0.569L0.51,-0.569L0.51,-0.7Z" style="fill:rgb(200,255,48);fill-rule:nonzero;"/>
                            </g>
                            <g transform="matrix(14.3814,0,0,14.3814,947.627,297.995)">
                                <path d="M0.626,0.002L0.671,0.002L0.671,-0.7L0.521,-0.7L0.521,-0.303L0.128,-0.703L0.081,-0.703L0.081,-0L0.23,-0L0.23,-0.4L0.626,0.002Z" style="fill:rgb(200,255,48);fill-rule:nonzero;"/>
                            </g>
                            <g transform="matrix(14.3814,0,0,14.3814,961.505,297.995)">
                                <path d="M0.495,-0.116L0.55,-0L0.705,-0L0.705,-0.02L0.385,-0.706L0.316,-0.706L-0.006,-0.02L-0.006,-0L0.15,-0L0.204,-0.116L0.495,-0.116ZM0.35,-0.473L0.447,-0.242L0.253,-0.242L0.35,-0.473Z" style="fill:rgb(200,255,48);fill-rule:nonzero;"/>
                            </g>
                            <g transform="matrix(14.3814,0,0,14.3814,971.572,297.995)">
                                <path d="M0.231,-0.7L0.081,-0.7L0.081,-0L0.523,-0L0.523,-0.134L0.231,-0.134L0.231,-0.7Z" style="fill:rgb(200,255,48);fill-rule:nonzero;"/>
                            </g>
                            <g transform="matrix(14.3814,0,0,14.3814,978.547,297.995)">
                                <path d="M0.205,-0.57L0.205,-0L0.35,-0L0.35,-0.57L0.536,-0.57L0.536,-0.7L0.018,-0.7L0.018,-0.57L0.205,-0.57Z" style="fill:rgb(200,255,48);fill-rule:nonzero;"/>
                            </g>
                            <g transform="matrix(14.3814,0,0,14.3814,985.766,297.995)">
                                <path d="M0.495,-0.116L0.55,-0L0.705,-0L0.705,-0.02L0.385,-0.706L0.316,-0.706L-0.006,-0.02L-0.006,-0L0.15,-0L0.204,-0.116L0.495,-0.116ZM0.35,-0.473L0.447,-0.242L0.253,-0.242L0.35,-0.473Z" style="fill:rgb(200,255,48);fill-rule:nonzero;"/>
                            </g>
                            <g transform="matrix(14.3814,0,0,14.3814,998.91,297.995)">
                                <path d="M0.042,-0.349C0.042,-0.117 0.216,0.01 0.4,0.01C0.546,0.01 0.695,-0.067 0.725,-0.252L0.581,-0.252C0.557,-0.167 0.486,-0.126 0.399,-0.126C0.274,-0.126 0.193,-0.229 0.193,-0.349C0.193,-0.482 0.276,-0.575 0.4,-0.575C0.484,-0.575 0.547,-0.54 0.578,-0.461L0.723,-0.461C0.691,-0.634 0.541,-0.71 0.4,-0.71C0.216,-0.713 0.042,-0.582 0.042,-0.349Z" style="fill:rgb(200,255,48);fill-rule:nonzero;"/>
                            </g>
                            <g transform="matrix(14.3814,0,0,14.3814,1009.7,297.995)">
                                <path d="M0.495,-0.116L0.55,-0L0.705,-0L0.705,-0.02L0.385,-0.706L0.316,-0.706L-0.006,-0.02L-0.006,-0L0.15,-0L0.204,-0.116L0.495,-0.116ZM0.35,-0.473L0.447,-0.242L0.253,-0.242L0.35,-0.473Z" style="fill:rgb(200,255,48);fill-rule:nonzero;"/>
                            </g>
                            <g transform="matrix(14.3814,0,0,14.3814,1019.76,297.995)">
                                <path d="M0.231,-0.7L0.081,-0.7L0.081,-0L0.523,-0L0.523,-0.134L0.231,-0.134L0.231,-0.7Z" style="fill:rgb(200,255,48);fill-rule:nonzero;"/>
                            </g>
                            <g transform="matrix(14.3814,0,0,14.3814,1027.51,297.995)">
                                <path d="M0.294,-0.119L0.294,-0.584L0.385,-0.584L0.385,-0.7L0.053,-0.7L0.053,-0.584L0.144,-0.584L0.144,-0.119L0.045,-0.119L0.045,-0L0.393,-0L0.393,-0.119L0.294,-0.119Z" style="fill:rgb(200,255,48);fill-rule:nonzero;"/>
                            </g>
                            <g transform="matrix(14.3814,0,0,14.3814,1033.81,297.995)">
                                <path d="M0.082,-0.699L0.082,-0L0.342,-0C0.568,-0 0.688,-0.173 0.685,-0.352C0.685,-0.53 0.565,-0.699 0.342,-0.699L0.082,-0.699ZM0.231,-0.135L0.231,-0.564L0.34,-0.564C0.467,-0.564 0.536,-0.463 0.536,-0.351C0.536,-0.239 0.469,-0.135 0.34,-0.135L0.231,-0.135Z" style="fill:rgb(200,255,48);fill-rule:nonzero;"/>
                            </g>
                            <g transform="matrix(14.3814,0,0,14.3814,1044,297.995)">
                                <path d="M0.495,-0.116L0.55,-0L0.705,-0L0.705,-0.02L0.385,-0.706L0.316,-0.706L-0.006,-0.02L-0.006,-0L0.15,-0L0.204,-0.116L0.495,-0.116ZM0.35,-0.473L0.447,-0.242L0.253,-0.242L0.35,-0.473Z" style="fill:rgb(200,255,48);fill-rule:nonzero;"/>
                            </g>
                            <g transform="matrix(14.3814,0,0,14.3814,1054.06,297.995)">
                                <path d="M0.082,-0.699L0.082,-0L0.342,-0C0.568,-0 0.688,-0.173 0.685,-0.352C0.685,-0.53 0.565,-0.699 0.342,-0.699L0.082,-0.699ZM0.231,-0.135L0.231,-0.564L0.34,-0.564C0.467,-0.564 0.536,-0.463 0.536,-0.351C0.536,-0.239 0.469,-0.135 0.34,-0.135L0.231,-0.135Z" style="fill:rgb(200,255,48);fill-rule:nonzero;"/>
                            </g>
                        </g>
                        <g transform="matrix(0.0001903,0,0,-0.0001903,953.655,229.168)">
                            <path d="M-2.399,-1.643L-2.399,3.612L-2.399,-1.643Z" style="fill:rgb(200,255,48);fill-rule:nonzero;"/>
                        </g>
                        <g transform="matrix(0.0004432,0,0,-0.0004432,955.496,231.005)">
                            <path d="M-0.487,0.264L1.769,0.264L-0.487,0.264Z" style="fill:rgb(200,255,48);fill-rule:nonzero;"/>
                        </g>
                        <g transform="matrix(0.0004964,0,0,-0.0004964,1024.97,242.914)">
                            <path d="M-0.13,-1.448C-0.13,-1.448 1.885,-1.448 1.885,0.567C1.885,-1.448 -0.13,-1.448 -0.13,-1.448Z" style="fill:rgb(200,255,48);fill-rule:nonzero;"/>
                        </g>
                        <g transform="matrix(0.346985,-0.937871,-0.937871,-0.346985,944.203,217.123)">
                            <path d="M-6.179,-9.527C-4.131,-5.897 -1.729,-2.462 1.015,0.715C0.033,1.595 -4.238,5.682 -6.179,11.65C-11.34,6.215 -15.629,0.063 -18.952,-6.567C-12.53,-6.313 -7.114,-9.027 -6.179,-9.527" style="fill:rgb(200,255,48);fill-rule:nonzero;"/>
                        </g>
                        <g transform="matrix(0.0013379,0,0,-0.0013379,973.101,242.919)">
                            <path d="M0.874,0.189C0.127,0.937 -0.62,0.937 -0.62,0.937C-0.62,0.937 0.127,0.189 0.874,0.189ZM0.874,-0.558L0.874,0.189L0.874,-0.558Z" style="fill:rgb(200,255,48);fill-rule:nonzero;"/>
                        </g>
                        <g transform="matrix(-0.999998,0.00221593,0.00221593,0.999998,1059.74,237.138)">
                            <path d="M5.527,-21.216C7.566,-17.543 9.964,-14.1 12.669,-10.924C11.807,-10.148 7.484,-6.037 5.527,-0.006C0.463,-5.404 -3.82,-11.541 -7.136,-18.247C-0.929,-18.031 4.324,-20.581 5.527,-21.216" style="fill:rgb(200,255,48);fill-rule:nonzero;"/>
                        </g>
                        <g transform="matrix(0.0164142,-0.999865,-0.999865,-0.0164142,956.038,232.699)">
                            <path d="M-8.252,-13.634C-6.172,-9.56 -3.658,-5.745 -0.774,-2.242C-1.713,-1.447 -6.132,2.532 -8.252,8.481C-13.549,2.62 -17.937,-4.069 -21.2,-11.369C-14.735,-10.757 -9.125,-13.226 -8.252,-13.634" style="fill:rgb(200,255,48);fill-rule:nonzero;"/>
                        </g>
                        <g transform="matrix(1,0,0,1,1061.85,213.145)">
                            <path d="M0,-23.831L-0.005,-23.831C-0.361,-17.826 -1.55,-12.047 -3.472,-6.61C-3.471,-6.611 -3.471,-6.611 -3.471,-6.612C-2.299,-6.157 3.146,-3.848 7.089,1.041C10.379,-6.998 12.317,-15.728 12.641,-24.872L0,-23.831Z" style="fill:rgb(200,255,48);fill-rule:nonzero;"/>
                        </g>
                        <g transform="matrix(1,0,0,1,936.2,213.314)">
                            <path d="M0,-24.119C0.003,-24.077 0.002,-24.035 0.005,-23.993L-12.726,-25.04C-12.401,-15.878 -10.456,-7.131 -7.153,0.921C-3.18,-4.04 2.354,-6.358 3.472,-6.789C1.54,-12.26 0.348,-18.076 0,-24.119" style="fill:rgb(200,255,48);fill-rule:nonzero;"/>
                        </g>
                        <g transform="matrix(1,0,0,1,1052.5,144.023)">
                            <path d="M0,20.357C-0.03,20.281 -0.06,20.205 -0.09,20.129C-0.359,19.451 -0.65,18.784 -0.944,18.118C-1.127,17.71 -1.305,17.299 -1.497,16.896C-1.601,16.673 -1.713,16.455 -1.819,16.234C-6.121,7.482 -12.583,-0.011 -20.508,-5.564C-20.925,-5.467 -21.339,-5.338 -21.743,-5.186C-23.33,-4.589 -24.38,-3.997 -25.496,-3.396C-27.854,-2.125 -29.033,-1.49 -30.116,-1.144C-31.683,-0.643 -33.527,-0.053 -34.967,-0.971C-35.608,-1.38 -36.429,-2.253 -36.353,-3.223C-36.315,-3.691 -36.082,-4.018 -35.775,-4.435C-35.418,-4.922 -34.72,-5.713 -33.465,-6.341C-33.699,-6.388 -34.068,-6.474 -34.505,-6.629C-35.312,-6.916 -35.629,-7.184 -36.41,-7.496C-36.538,-7.546 -37.056,-7.749 -37.738,-7.9C-38.516,-8.071 -39.646,-8.306 -40.856,-7.9C-41.111,-7.814 -41.315,-7.708 -41.723,-7.496C-43.117,-6.768 -43.636,-6.201 -44.668,-5.532C-45.524,-4.977 -46.229,-4.522 -47.151,-4.32C-47.665,-4.207 -48.158,-4.197 -48.626,-4.246C-49.473,-4.334 -50.231,-4.623 -50.847,-4.897C-50.873,-4.909 -50.899,-4.923 -50.925,-4.935C-52.575,-5.679 -54.272,-6.747 -55.894,-7.931C-56.612,-8.456 -57.313,-9.002 -57.99,-9.555C-59.593,-10.864 -61.049,-12.196 -62.206,-13.315C-62.876,-13.963 -63.45,-14.54 -63.894,-14.997C-64.411,-14.902 -64.92,-14.781 -65.433,-14.672C-80.918,-11.393 -94.106,-1.912 -102.245,11.082C-99.241,8.999 -95.809,6.674 -91.976,4.169C-91.976,4.169 -89.46,2.525 -82.361,-1.202C-82.361,-1.202 -81.268,-1.775 -79.46,-2.328C-78.083,-2.748 -77.298,-2.83 -76.515,-2.717C-75.869,-2.624 -75.388,-2.422 -75.085,-2.284C-71.701,-0.742 -65.211,3.952 -65.211,3.952C-63.334,5.31 -61.409,6.599 -59.522,7.943C-59.438,8.003 -59.352,8.061 -59.268,8.122C-58.644,8.568 -58.038,9.04 -57.419,9.492C-57.402,9.504 -57.385,9.518 -57.367,9.53C-56.814,9.933 -56.314,10.445 -55.57,10.353C-55.066,10.291 -54.603,9.962 -54.377,9.506C-54.275,9.301 -54.188,9.043 -53.965,8.986C-53.787,8.941 -53.599,9.064 -53.515,9.227C-53.127,9.983 -53.873,11.299 -54.254,11.921C-55.113,13.325 -56.63,14.507 -57.905,15.039C-58.364,15.23 -58.794,15.342 -59.147,15.342C-59.254,15.342 -59.536,15.334 -59.754,15.516C-60.23,15.915 -60.013,16.905 -59.927,17.292C-59.646,18.563 -58.973,19.644 -58.375,20.404C-57.794,21.143 -57.285,21.579 -57.285,21.579C-54.101,24.295 -49.93,24.192 -48.378,24.052C-48.191,24.035 -48.035,24.018 -47.931,24.004C-47.343,23.93 -46.755,23.796 -46.177,23.629C-45.479,23.428 -44.796,23.175 -44.147,22.886C-41.915,21.893 -40.248,20.318 -39.055,18.183C-38.986,18.06 -38.918,17.93 -38.913,17.79C-38.905,17.557 -39.07,17.356 -39.24,17.195C-39.541,16.91 -39.885,16.672 -40.173,16.374C-40.461,16.076 -40.697,15.697 -40.706,15.283C-40.724,14.519 -39.953,14.305 -39.389,14.038C-38.454,13.595 -37.529,13.134 -36.583,12.715C-35.942,12.431 -33.591,11.408 -27.345,9.193C-27.344,9.193 -25.552,8.557 -21.05,7.402C-20.223,7.19 -19.127,6.923 -17.816,7.229C-16.554,7.524 -15.713,8.207 -15.16,8.673C-11.703,11.589 -9.501,14.39 -9.501,14.39C-5.549,19.417 -2.076,24.737 1.028,30.333C1.596,31.354 2.149,32.382 2.689,33.418C2.823,33.673 3.234,34.734 3.688,35.354C3.113,30.113 1.851,25.084 0,20.357" style="fill:rgb(200,255,48);fill-rule:nonzero;"/>
                        </g>
                        <g transform="matrix(1,0,0,1,1007.1,121.149)">
                            <path d="M0,3.93C-1.243,2.468 -2.502,1.861 -4.394,1.808C-4.073,0.201 -4.073,-0.789 -4.394,-2.4C-4.891,-4.909 -6.847,-5.656 -7.562,-8.109C-7.907,-9.298 -8.072,-10.179 -8.129,-11.188C-8.133,-11.26 -8.142,-11.33 -8.145,-11.404C-8.189,-10.3 -8.354,-9.384 -8.726,-8.109C-9.44,-5.656 -11.399,-4.909 -11.897,-2.4C-12.218,-0.789 -12.218,0.201 -11.897,1.808C-13.789,1.861 -15.048,2.468 -16.292,3.93C-16.834,4.568 -17.187,5.143 -17.417,5.786C-17.602,6.302 -17.707,6.86 -17.755,7.535C-17.231,7.257 -16.743,7.071 -16.259,6.97C-15.411,6.794 -14.578,6.885 -13.603,7.239C-11.644,7.947 -10.516,9.339 -10.191,11.447L-10.268,12.32C-9.9,12.606 -9.537,12.882 -9.181,13.143C-8.823,13.405 -8.474,13.646 -8.129,13.88C-7.3,14.443 -6.507,14.93 -5.758,15.334L-6.1,11.447C-5.775,9.339 -4.647,7.947 -2.682,7.239C-1.155,6.682 0.028,6.77 1.463,7.535C1.361,6.016 0.977,5.078 0,3.93" style="fill:rgb(200,255,48);fill-rule:nonzero;"/>
                        </g>
                        <g transform="matrix(1,0,0,1,1008.51,182.004)">
                            <path d="M0,-58.671C0.095,-58.567 0.193,-58.479 0.287,-58.369C0.962,-57.575 1.433,-56.821 1.752,-56C28.667,-50.952 49.303,-28.127 51.005,-0.176C51.809,-0.116 52.591,-0.057 53.35,0C51.679,-29.925 29.115,-54.27 0,-58.671" style="fill:rgb(200,255,48);fill-rule:nonzero;"/>
                        </g>
                        <g transform="matrix(1,0,0,1,987.64,179.263)">
                            <path d="M0,-53.232C0.319,-54.065 0.791,-54.827 1.472,-55.628C1.558,-55.729 1.648,-55.81 1.736,-55.905C-27.276,-51.44 -49.743,-27.163 -51.44,2.673L-49.097,2.494C-47.367,-25.372 -26.818,-48.131 0,-53.232" style="fill:rgb(200,255,48);fill-rule:nonzero;"/>
                        </g>
                        <g transform="matrix(1,0,0,1,941.672,242.928)">
                            <path d="M0,-53.157L0.029,-52.761C0.034,-52.703 0.038,-52.645 0.043,-52.587C0.058,-52.411 0.067,-52.234 0.083,-52.058C0.089,-51.999 0.091,-51.94 0.097,-51.881C0.113,-51.705 0.124,-51.528 0.143,-51.352C0.148,-51.294 0.158,-51.237 0.164,-51.178C0.183,-51.002 0.211,-50.828 0.231,-50.653C0.238,-50.594 0.247,-50.535 0.254,-50.476C0.274,-50.3 0.298,-50.126 0.32,-49.95C0.328,-49.892 0.335,-49.834 0.343,-49.777C0.365,-49.601 0.385,-49.424 0.409,-49.249C0.418,-49.191 0.424,-49.132 0.432,-49.074C0.457,-48.899 0.474,-48.721 0.5,-48.547C0.509,-48.489 0.521,-48.432 0.531,-48.374C0.559,-48.199 0.596,-48.027 0.624,-47.852C0.634,-47.794 0.646,-47.737 0.655,-47.679C0.685,-47.505 0.718,-47.331 0.749,-47.156C0.759,-47.098 0.77,-47.041 0.779,-46.983C0.812,-46.809 0.84,-46.634 0.873,-46.46C0.884,-46.402 0.893,-46.343 0.904,-46.285C0.937,-46.113 0.962,-45.937 0.997,-45.765C1.009,-45.706 1.024,-45.649 1.036,-45.591C1.072,-45.416 1.118,-45.246 1.156,-45.072C1.168,-45.015 1.183,-44.958 1.195,-44.901C1.233,-44.729 1.274,-44.558 1.314,-44.386C1.327,-44.328 1.341,-44.271 1.354,-44.213C1.395,-44.041 1.432,-43.868 1.474,-43.697C1.487,-43.639 1.499,-43.581 1.514,-43.523C1.556,-43.352 1.589,-43.177 1.633,-43.006C1.647,-42.949 1.664,-42.893 1.679,-42.836C1.724,-42.664 1.777,-42.496 1.824,-42.324C1.839,-42.268 1.856,-42.212 1.872,-42.155C1.919,-41.984 1.969,-41.815 2.017,-41.645C2.033,-41.588 2.049,-41.532 2.065,-41.474C2.114,-41.304 2.16,-41.134 2.21,-40.964C2.227,-40.907 2.242,-40.849 2.259,-40.792C2.31,-40.624 2.352,-40.451 2.403,-40.283C2.421,-40.226 2.44,-40.171 2.458,-40.115C2.511,-39.944 2.574,-39.778 2.629,-39.609C2.646,-39.553 2.667,-39.499 2.685,-39.444C2.74,-39.276 2.798,-39.109 2.854,-38.941C2.873,-38.886 2.893,-38.83 2.911,-38.774C2.969,-38.607 3.022,-38.438 3.081,-38.271C3.101,-38.216 3.118,-38.16 3.138,-38.105C3.197,-37.938 3.247,-37.767 3.309,-37.601C3.328,-37.546 3.351,-37.491 3.371,-37.435C3.433,-37.269 3.503,-37.107 3.566,-36.941C3.587,-36.886 3.609,-36.831 3.631,-36.777C3.694,-36.611 3.761,-36.448 3.825,-36.283C3.848,-36.228 3.868,-36.173 3.891,-36.118C3.956,-35.954 4.019,-35.787 4.086,-35.624C4.108,-35.569 4.129,-35.512 4.151,-35.457C4.219,-35.294 4.277,-35.126 4.346,-34.964C4.368,-34.909 4.395,-34.856 4.418,-34.802C4.487,-34.639 4.565,-34.481 4.637,-34.319C4.66,-34.265 4.686,-34.212 4.709,-34.158C4.78,-33.996 4.854,-33.836 4.928,-33.675L5.001,-33.511C5.075,-33.35 5.146,-33.187 5.22,-33.027C5.245,-32.974 5.268,-32.92 5.293,-32.867C5.368,-32.706 5.436,-32.541 5.513,-32.382C5.538,-32.329 5.567,-32.278 5.593,-32.225C5.671,-32.066 5.756,-31.912 5.835,-31.753C5.861,-31.7 5.889,-31.648 5.916,-31.595C5.995,-31.437 6.077,-31.28 6.158,-31.122C6.185,-31.07 6.212,-31.016 6.239,-30.964C6.32,-30.807 6.398,-30.648 6.48,-30.492C6.509,-30.439 6.534,-30.386 6.562,-30.333C6.646,-30.177 6.723,-30.017 6.807,-29.862C6.836,-29.81 6.867,-29.76 6.896,-29.707C6.981,-29.552 7.073,-29.402 7.16,-29.248C7.188,-29.197 7.22,-29.145 7.249,-29.094C7.336,-28.939 7.425,-28.786 7.514,-28.633C7.543,-28.582 7.571,-28.531 7.602,-28.48C7.69,-28.327 7.776,-28.171 7.867,-28.019C7.896,-27.968 7.925,-27.916 7.955,-27.865C8.046,-27.713 8.133,-27.558 8.226,-27.406C8.256,-27.356 8.29,-27.308 8.32,-27.258C8.413,-27.108 8.513,-26.962 8.607,-26.812C8.639,-26.761 8.671,-26.712 8.703,-26.662C8.797,-26.512 8.894,-26.364 8.989,-26.215L9.086,-26.064C9.183,-25.916 9.275,-25.765 9.372,-25.617C9.405,-25.568 9.436,-25.516 9.469,-25.467C9.566,-25.32 9.662,-25.172 9.762,-25.027C9.795,-24.977 9.831,-24.93 9.865,-24.881C9.966,-24.735 10.072,-24.593 10.174,-24.447C10.207,-24.399 10.242,-24.351 10.276,-24.303C10.378,-24.158 10.481,-24.014 10.584,-23.87L10.687,-23.726C10.79,-23.583 10.89,-23.435 10.994,-23.293C11.029,-23.245 11.063,-23.196 11.098,-23.148C11.203,-23.006 11.309,-22.863 11.416,-22.72C11.451,-22.675 11.489,-22.63 11.524,-22.583C11.632,-22.441 11.745,-22.304 11.854,-22.165C11.89,-22.118 11.927,-22.072 11.963,-22.025C12.072,-21.886 12.182,-21.745 12.292,-21.606C12.329,-21.56 12.364,-21.513 12.401,-21.468C12.512,-21.329 12.618,-21.186 12.729,-21.049C12.768,-21.003 12.803,-20.955 12.841,-20.908C12.953,-20.771 13.068,-20.636 13.182,-20.499C13.219,-20.455 13.259,-20.412 13.297,-20.367C13.41,-20.231 13.529,-20.099 13.645,-19.965L13.762,-19.83C13.877,-19.695 13.992,-19.561 14.109,-19.428C14.148,-19.385 14.186,-19.34 14.225,-19.295C14.342,-19.162 14.454,-19.025 14.573,-18.893C14.613,-18.848 14.65,-18.802 14.69,-18.758C14.809,-18.627 14.933,-18.499 15.052,-18.369C15.092,-18.326 15.135,-18.284 15.175,-18.241C15.295,-18.11 15.421,-17.984 15.543,-17.854C15.583,-17.811 15.624,-17.769 15.665,-17.726C15.787,-17.598 15.908,-17.469 16.031,-17.342C16.072,-17.3 16.112,-17.256 16.153,-17.214C16.277,-17.087 16.396,-16.954 16.521,-16.828C16.562,-16.787 16.602,-16.743 16.643,-16.701C16.769,-16.575 16.9,-16.456 17.027,-16.331C17.069,-16.289 17.114,-16.249 17.156,-16.208C17.283,-16.084 17.413,-15.964 17.542,-15.841C17.584,-15.8 17.626,-15.76 17.668,-15.719C17.797,-15.596 17.924,-15.473 18.054,-15.352C18.097,-15.311 18.139,-15.269 18.183,-15.229C18.312,-15.108 18.437,-14.981 18.567,-14.862C18.611,-14.822 18.653,-14.78 18.697,-14.74C18.829,-14.621 18.968,-14.51 19.101,-14.39C19.145,-14.351 19.189,-14.314 19.233,-14.276C19.366,-14.158 19.501,-14.044 19.636,-13.928L19.771,-13.81C19.905,-13.694 20.038,-13.576 20.173,-13.462C20.218,-13.424 20.262,-13.384 20.307,-13.346C20.442,-13.231 20.573,-13.11 20.71,-12.997C20.756,-12.959 20.802,-12.922 20.847,-12.885C20.984,-12.772 21.127,-12.667 21.266,-12.555C21.312,-12.518 21.359,-12.482 21.405,-12.445C21.544,-12.335 21.685,-12.226 21.824,-12.117C21.871,-12.08 21.917,-12.043 21.964,-12.007C22.104,-11.897 22.241,-11.786 22.382,-11.678C22.43,-11.642 22.476,-11.603 22.522,-11.567C22.664,-11.46 22.799,-11.345 22.94,-11.239C22.988,-11.204 23.039,-11.171 23.087,-11.136C23.229,-11.03 23.377,-10.931 23.52,-10.828C23.568,-10.793 23.617,-10.759 23.666,-10.723C23.81,-10.62 23.955,-10.518 24.1,-10.415C24.147,-10.381 24.195,-10.346 24.243,-10.313C24.389,-10.211 24.531,-10.105 24.678,-10.004C24.727,-9.97 24.773,-9.934 24.822,-9.901C24.969,-9.801 25.111,-9.695 25.259,-9.595C25.308,-9.562 25.359,-9.532 25.408,-9.5C25.556,-9.401 25.708,-9.309 25.856,-9.213C25.906,-9.179 25.956,-9.148 26.006,-9.116C26.155,-9.019 26.306,-8.924 26.456,-8.828C26.505,-8.797 26.555,-8.764 26.604,-8.732C26.754,-8.637 26.901,-8.539 27.053,-8.445C27.104,-8.414 27.152,-8.38 27.204,-8.348C27.354,-8.256 27.504,-8.159 27.655,-8.067C27.706,-8.037 27.758,-8.01 27.809,-7.979C27.962,-7.887 28.119,-7.803 28.273,-7.712C28.324,-7.682 28.376,-7.654 28.426,-7.624C28.579,-7.535 28.732,-7.447 28.887,-7.359C28.938,-7.33 28.99,-7.3 29.043,-7.269C29.197,-7.182 29.349,-7.091 29.504,-7.005C29.556,-6.975 29.605,-6.945 29.657,-6.916C29.813,-6.831 29.968,-6.744 30.125,-6.659C30.177,-6.632 30.23,-6.606 30.283,-6.578C30.439,-6.494 30.601,-6.417 30.758,-6.335C30.811,-6.307 30.864,-6.281 30.916,-6.254C31.073,-6.172 31.231,-6.092 31.39,-6.011C31.442,-5.985 31.494,-5.958 31.547,-5.931C31.706,-5.85 31.863,-5.765 32.023,-5.686C32.077,-5.66 32.129,-5.632 32.182,-5.605C32.342,-5.527 32.503,-5.45 32.664,-5.374C32.717,-5.348 32.771,-5.326 32.824,-5.302C32.984,-5.225 33.148,-5.156 33.31,-5.082C33.363,-5.056 33.417,-5.034 33.47,-5.01C33.633,-4.935 33.795,-4.861 33.958,-4.788C34.013,-4.764 34.066,-4.739 34.121,-4.715C34.283,-4.642 34.443,-4.565 34.606,-4.495C34.661,-4.471 34.714,-4.446 34.768,-4.423C34.932,-4.352 35.097,-4.285 35.262,-4.217C35.315,-4.194 35.371,-4.175 35.425,-4.152C35.589,-4.084 35.756,-4.022 35.922,-3.956C35.977,-3.934 36.032,-3.913 36.087,-3.89C36.252,-3.825 36.418,-3.76 36.584,-3.695C36.639,-3.674 36.693,-3.651 36.748,-3.63C36.914,-3.566 37.078,-3.497 37.245,-3.434C37.301,-3.414 37.354,-3.389 37.41,-3.369C37.577,-3.307 37.745,-3.25 37.912,-3.19C37.968,-3.17 38.024,-3.153 38.08,-3.134C38.247,-3.073 38.418,-3.019 38.587,-2.962C38.643,-2.942 38.699,-2.924 38.756,-2.904C38.924,-2.846 39.093,-2.79 39.262,-2.733C39.317,-2.715 39.373,-2.695 39.429,-2.677C39.599,-2.621 39.765,-2.559 39.935,-2.506C39.991,-2.487 40.046,-2.467 40.103,-2.449C40.272,-2.395 40.445,-2.346 40.616,-2.295C40.672,-2.278 40.729,-2.263 40.786,-2.247C40.956,-2.195 41.129,-2.15 41.3,-2.1C41.356,-2.084 41.414,-2.068 41.471,-2.053C41.643,-2.003 41.813,-1.954 41.985,-1.906C42.042,-1.89 42.099,-1.873 42.156,-1.857C42.328,-1.81 42.497,-1.758 42.669,-1.712C42.727,-1.697 42.782,-1.678 42.84,-1.663C43.013,-1.618 43.187,-1.579 43.36,-1.536C43.417,-1.521 43.475,-1.511 43.532,-1.496C43.704,-1.454 43.879,-1.417 44.052,-1.376C44.11,-1.362 44.169,-1.349 44.228,-1.336C44.4,-1.296 44.572,-1.255 44.745,-1.216C44.803,-1.203 44.86,-1.189 44.918,-1.177C45.092,-1.137 45.264,-1.093 45.438,-1.056C45.497,-1.044 45.555,-1.028 45.613,-1.015C45.787,-0.979 45.963,-0.949 46.137,-0.914C46.195,-0.903 46.255,-0.894 46.313,-0.883C46.487,-0.849 46.663,-0.821 46.839,-0.789C46.896,-0.778 46.955,-0.768 47.014,-0.758C47.189,-0.726 47.364,-0.694 47.539,-0.664C47.598,-0.654 47.655,-0.642 47.713,-0.633C47.889,-0.603 48.063,-0.567 48.239,-0.539C48.298,-0.529 48.355,-0.517 48.414,-0.508C48.591,-0.48 48.768,-0.457 48.944,-0.43C49.003,-0.423 49.063,-0.417 49.121,-0.408C49.296,-0.384 49.473,-0.365 49.648,-0.342C49.707,-0.334 49.767,-0.327 49.825,-0.319C50.002,-0.296 50.179,-0.273 50.356,-0.252C50.415,-0.244 50.474,-0.236 50.532,-0.229C50.71,-0.208 50.886,-0.181 51.063,-0.162C51.123,-0.155 51.181,-0.145 51.24,-0.139C51.416,-0.121 51.593,-0.104 51.77,-0.087C51.829,-0.081 51.889,-0.079 51.947,-0.073C52.124,-0.057 52.304,-0.048 52.48,-0.033C52.54,-0.028 52.6,-0.024 52.659,-0.019C52.743,-0.012 52.828,-0.007 52.912,0L48.203,-49.189L0,-53.157Z" style="fill:rgb(200,255,48);fill-rule:nonzero;"/>
                        </g>
                        <g transform="matrix(1,0,0,1,1061.91,210.318)">
                            <path d="M0,3.702C0.152,3.737 0.241,3.535 0.111,3.446L-4.998,-0.035C-5.131,0.277 -5.278,0.58 -5.416,0.889C-5.628,1.364 -5.835,1.841 -6.058,2.309L0,3.702Z" style="fill:rgb(200,255,48);fill-rule:nonzero;"/>
                        </g>
                        <g transform="matrix(0.831434,0.555623,0.555623,-0.831434,1043.46,229.673)">
                            <path d="M-0.02,-1.668L6.227,-1.668C6.384,-1.669 6.425,-1.451 6.279,-1.393L0.488,0.866C0.335,0.017 0.166,-0.827 -0.02,-1.668" style="fill:rgb(200,255,48);fill-rule:nonzero;"/>
                        </g>
                        <g transform="matrix(1,0,0,1,950.039,229.485)">
                            <path d="M0,4.847C-0.091,4.976 0.064,5.134 0.195,5.046L5.426,1.551L5.425,1.551C4.799,0.951 4.186,0.339 3.585,-0.286L3.585,-0.287L0,4.847Z" style="fill:rgb(200,255,48);fill-rule:nonzero;"/>
                        </g>
                        <g transform="matrix(0.181344,0.98342,0.98342,-0.181344,936.853,209.471)">
                            <path d="M4.057,-1.67C4.12,-1.814 4.336,-1.763 4.329,-1.606L4.057,4.628C3.227,4.406 2.392,4.199 1.55,4.009L4.057,-1.67Z" style="fill:rgb(200,255,48);fill-rule:nonzero;"/>
                        </g>
                        <g transform="matrix(1,0,0,1,995.753,261.094)">
                            <path d="M0,-5.963C-1.191,-4.257 -3.017,-2.438 -5.506,-0.462C-3.503,-0.231 -1.478,-0.071 0.57,0L0,-5.963Z" style="fill:rgb(200,255,48);fill-rule:nonzero;"/>
                        </g>
                        <g transform="matrix(1,0,0,1,991.484,250.986)">
                            <path d="M0,3.206C-0.74,3.758 -1.327,4.166 -1.842,4.487C-2.906,5.15 -3.612,5.397 -4.449,5.397C-4.63,5.397 -4.814,5.386 -5.011,5.369C-6.391,5.253 -7.698,4.878 -8.792,4.284C-10.697,3.251 -11.777,1.668 -11.683,0.052C-11.584,-1.646 -10.437,-3.323 -8.755,-4.629C-9.205,-4.749 -9.65,-4.877 -10.096,-5.007C-10.574,-5.147 -11.05,-5.294 -11.523,-5.444C-11.845,-5.546 -12.167,-5.643 -12.485,-5.75C-12.801,-4.841 -13.849,-2.116 -15.893,0.802C-16.149,2.168 -16.315,3.333 -16.287,4.472L-16.266,5.353L-17.146,5.385C-17.542,5.399 -18.092,5.432 -18.655,5.479C-14.545,6.994 -10.273,8.169 -5.865,8.956C-3.054,6.879 -1.085,4.956 0,3.206" style="fill:rgb(200,255,48);fill-rule:nonzero;"/>
                        </g>
                        <g transform="matrix(-0.996639,-0.0819213,-0.0819213,0.996639,971.802,243.186)">
                            <path d="M37.534,-50.767L39.89,-50.767C36.632,-27.79 21.163,-9.211 0.688,-1.119C-0.858,-1.29 -2.32,-1.481 -4.419,-1.787C17.284,-8.539 34.066,-27.23 37.534,-50.767" style="fill:rgb(200,255,48);fill-rule:nonzero;"/>
                        </g>
                        <g transform="matrix(1,0,0,1,977.796,245.088)">
                            <path d="M0,-1.31C-0.113,-1.019 -0.218,-0.704 -0.326,-0.4C0.497,-0.1 1.326,0.187 2.165,0.454C2.639,0.604 3.114,0.752 3.593,0.891C4.039,1.021 4.488,1.144 4.939,1.264C5.809,0.589 6.819,0.018 7.908,-0.406C5.382,-0.973 2.917,-1.703 0.521,-2.574L0.336,-2.139C0.232,-1.896 0.118,-1.613 0,-1.31" style="fill:rgb(200,255,48);fill-rule:nonzero;"/>
                        </g>
                        <g transform="matrix(0.05547,-0.99846,-0.99846,-0.05547,986.663,247.266)">
                            <path d="M-0.009,-0.009L-0.009,0.01L-0.009,-0.009Z" style="fill:rgb(200,255,48);"/>
                        </g>
                        <g transform="matrix(1,0,0,1,983.904,250.902)">
                            <path d="M0,-1.586C-0.029,-1.463 -0.046,-1.359 -0.052,-1.263C-0.11,-0.263 0.641,0.76 1.955,1.473C2.657,1.853 3.448,2.098 4.185,2.159C4.274,2.167 4.361,2.172 4.448,2.172C4.747,2.172 5.127,2.121 6.169,1.508L6.567,1.272L6.988,1.463L7.503,1.695L8.226,2.021C8.437,1.485 8.556,0.968 8.584,0.468C8.656,-0.758 8.279,-1.755 7.464,-2.495C7.304,-2.641 7.118,-2.771 6.925,-2.895C6.926,-2.895 6.934,-2.898 6.934,-2.898L6.871,-2.935C6.862,-2.94 6.855,-2.947 6.847,-2.952C6.845,-2.953 6.842,-2.953 6.839,-2.954L6.817,-2.966C6.822,-2.966 6.826,-2.965 6.83,-2.965C6.803,-2.982 6.771,-2.994 6.743,-3.011L6.582,-3.106L6.543,-3.115C5.903,-3.449 5.158,-3.676 4.396,-3.739C4.249,-3.752 4.101,-3.758 3.951,-3.758C3.709,-3.758 3.461,-3.741 3.214,-3.71C3.139,-3.7 3.062,-3.684 2.985,-3.67L2.959,-3.67L2.858,-3.648C2.824,-3.641 2.79,-3.637 2.756,-3.629C2.78,-3.624 2.805,-3.618 2.829,-3.613C2.803,-3.619 2.775,-3.623 2.749,-3.628C2.704,-3.618 2.659,-3.605 2.613,-3.594L2.479,-3.564L2.481,-3.56C1.331,-3.257 0.245,-2.594 0,-1.586" style="fill:rgb(200,255,48);fill-rule:nonzero;"/>
                        </g>
                        <g transform="matrix(1,0,0,1,986.66,247.289)">
                            <path d="M0,-0.016C0.003,-0.016 0.007,-0.015 0.011,-0.014L0.005,-0.013C0.001,-0.014 -0.003,-0.014 -0.007,-0.015C0.02,-0.01 0.047,-0.006 0.073,0C0.049,-0.005 0.024,-0.011 0,-0.016" style="fill:rgb(200,255,48);fill-rule:nonzero;"/>
                        </g>
                        <g transform="matrix(1,0,0,1,1039.77,253.086)">
                            <path d="M0,-19.557L0.001,-19.557C-0.168,-19.413 -0.348,-19.282 -0.518,-19.139C-0.979,-18.756 -1.446,-18.382 -1.917,-18.012C-2.402,-17.631 -2.892,-17.258 -3.388,-16.891C-3.879,-16.529 -4.372,-16.168 -4.874,-15.82C-5.31,-15.517 -5.751,-15.224 -6.193,-14.932C-6.534,-14.708 -6.877,-14.49 -7.222,-14.272C-8.202,-13.654 -9.199,-13.061 -10.216,-12.495C-10.352,-12.42 -10.484,-12.339 -10.621,-12.264C-10.01,-12.039 -9.533,-11.693 -9.225,-11.198C-9.06,-10.933 -8.946,-10.644 -8.888,-10.339C-8.794,-9.849 -8.82,-9.049 -9.618,-7.438C-9.173,-5.778 -8.795,-3.768 -8.713,-1.577C-8.382,-1.796 -8.061,-2.146 -7.578,-2.824L-7.259,-3.272L-6.715,-3.187L-6.2,-3.107L-4.778,-2.886L-5.608,-1.711C-6.086,-1.035 -6.483,-0.475 -6.826,0C-0.366,-3.257 5.565,-7.403 10.8,-12.295C4.891,-14.298 0.87,-18.571 0,-19.557" style="fill:rgb(200,255,48);fill-rule:nonzero;"/>
                        </g>
                        <g transform="matrix(-0.998888,-0.0471442,-0.0471442,0.998888,1023.69,247.871)">
                            <path d="M-1.492,-3.192C-0.991,-3.148 -0.336,-2.995 0.5,-2.731L-1.492,-0.032C-1.705,-0.45 -1.88,-0.834 -2.031,-1.191L-1.492,-3.192Z" style="fill:rgb(200,255,48);fill-rule:nonzero;"/>
                        </g>
                        <g transform="matrix(1,0,0,1,1006.16,249.148)">
                            <path d="M0,-1.057C-0.186,-0.678 -0.352,-0.293 -0.493,0.098L-0.242,-0.15C0.093,-0.483 0.453,-0.817 0.827,-1.155C0.63,-1.129 0.431,-1.11 0.232,-1.087C0.155,-1.078 0.078,-1.066 0,-1.057" style="fill:rgb(200,255,48);fill-rule:nonzero;"/>
                        </g>
                        <g transform="matrix(1,0,0,1,1017.56,248.431)">
                            <path d="M0,9.671L1.063,8.484C2.17,7.251 3.642,5.386 5.002,3.484C3.665,1.601 2.744,-0.212 2.169,-1.52L1.749,-1.665L1.39,-1.788L0.372,-2.138L0.858,-2.992C0.821,-2.98 0.783,-2.969 0.746,-2.956C-0.024,-2.709 -0.8,-2.475 -1.583,-2.258C-1.935,-2.159 -2.285,-2.058 -2.639,-1.967C-2.912,-1.895 -3.183,-1.822 -3.457,-1.755C-2.604,-1.429 -1.831,-0.986 -1.211,-0.437C-0.357,0.319 0.12,1.174 0.168,2.03C0.242,3.306 -0.142,4.686 -0.943,6.021C-1.808,7.461 -3.122,8.743 -4.646,9.633C-6.014,10.43 -7.479,10.9 -9.001,11.027C-9.325,11.055 -9.65,11.069 -9.968,11.069C-11.515,11.069 -12.965,10.734 -14.159,10.101C-14.712,9.808 -15.19,9.453 -15.607,9.059C-15.691,10.017 -15.762,10.837 -15.812,11.459L-15.86,12.096C-15.877,12.312 -15.889,12.497 -15.896,12.634L-15.902,12.634L-15.904,12.663C-9.859,12.45 -4.002,11.514 1.601,9.964L1.566,9.958L0,9.671Z" style="fill:rgb(200,255,48);fill-rule:nonzero;"/>
                        </g>
                        <g transform="matrix(1,0,0,1,1015.98,191.227)">
                            <path d="M0,54.946C0.783,54.728 1.559,54.495 2.329,54.248C2.367,54.235 2.405,54.22 2.443,54.209L2.488,54.131L3.945,51.57L4.086,51.324L4.343,51.204C5.45,50.685 6.868,50.153 7.958,49.846C9.249,49.487 10.401,49.305 11.382,49.305C12.079,49.305 12.665,49.411 13.165,49.594C13.303,49.519 13.436,49.439 13.572,49.364C14.589,48.799 15.586,48.206 16.566,47.588C16.911,47.37 17.255,47.152 17.595,46.927C18.037,46.636 18.479,46.342 18.914,46.04C19.415,45.69 19.909,45.332 20.4,44.968C20.896,44.602 21.386,44.227 21.871,43.847C22.342,43.477 22.81,43.103 23.271,42.72C36.247,31.927 44.818,16.025 45.873,-1.913L43.525,-1.72C41.681,26.996 19.846,50.247 -8.212,54.301C-8.813,55.099 -9.373,55.954 -9.816,56.859C-9.739,56.85 -9.662,56.843 -9.586,56.834C-9.382,56.81 -9.181,56.781 -8.979,56.756C-8.392,56.227 -7.76,55.692 -7.058,55.134L-6.85,54.969L-6.584,54.945C-6.504,54.938 -6.424,54.925 -6.348,54.914C-6.222,54.895 -6.104,54.879 -6.017,54.873C-5.744,54.849 -5.467,54.838 -5.193,54.838C-4.043,54.838 -2.909,55.056 -1.891,55.442C-1.612,55.374 -1.333,55.309 -1.056,55.237C-0.702,55.145 -0.352,55.045 0,54.946" style="fill:rgb(200,255,48);fill-rule:nonzero;"/>
                        </g>
                        <g transform="matrix(1,0,0,1,1039.25,235.074)">
                            <path d="M0,-1.127C-0.461,-0.744 -0.929,-0.37 -1.399,0C-0.929,-0.37 -0.461,-0.744 0,-1.127" style="fill:rgb(200,255,48);fill-rule:nonzero;"/>
                        </g>
                        <g transform="matrix(1,0,0,1,1033.58,238.814)">
                            <path d="M0,-0.66C-0.34,-0.435 -0.684,-0.218 -1.028,0C-0.684,-0.218 -0.341,-0.436 0,-0.66" style="fill:rgb(200,255,48);fill-rule:nonzero;"/>
                        </g>
                        <g transform="matrix(1,0,0,1,1036.38,237.266)">
                            <path d="M0,-1.071C-0.491,-0.708 -0.985,-0.349 -1.486,0C-0.984,-0.348 -0.491,-0.709 0,-1.071" style="fill:rgb(200,255,48);fill-rule:nonzero;"/>
                        </g>
                        <g transform="matrix(1,0,0,1,1029.15,240.591)">
                            <path d="M0,0.231C0.137,0.156 0.27,0.075 0.405,0C0.269,0.075 0.136,0.155 -0.002,0.23C-0.001,0.23 -0.001,0.23 0,0.231" style="fill:rgb(200,255,48);fill-rule:nonzero;"/>
                        </g>
                        <g transform="matrix(1,0,0,1,1014.09,246.471)">
                            <path d="M0,0.198C0.005,0.2 0.011,0.203 0.017,0.205C0.291,0.137 0.562,0.064 0.835,-0.007C0.558,0.065 0.278,0.13 0,0.198" style="fill:rgb(200,255,48);fill-rule:nonzero;"/>
                        </g>
                        <g transform="matrix(1,0,0,1,1006.16,248.066)">
                            <path d="M0,0.02C-0.001,0.022 -0.001,0.024 -0.002,0.025C0.076,0.016 0.153,0.004 0.23,-0.005C0.154,0.004 0.077,0.011 0,0.02" style="fill:rgb(200,255,48);fill-rule:nonzero;"/>
                        </g>
                        <g transform="matrix(1,0,0,1,1003.58,189.785)">
                            <path d="M0,53.135C0.178,53.121 0.355,53.111 0.533,53.095C0.591,53.09 0.65,53.087 0.708,53.081C0.885,53.066 1.064,53.059 1.241,53.041C1.301,53.035 1.361,53.029 1.422,53.023C1.6,53.004 1.774,52.975 1.952,52.955C2.011,52.948 2.068,52.94 2.128,52.933C2.136,52.932 2.145,52.931 2.152,52.93C3.203,51.774 4.324,50.722 5.437,49.842L5.601,49.713L5.805,49.67C6.847,49.449 7.938,49.032 8.869,48.654L9.992,48.197L10.095,49.405L10.105,49.539L10.148,50.036L9.746,50.332C9.071,50.83 8.392,51.379 7.726,51.965C7.707,51.981 7.686,52.001 7.667,52.018C7.695,52.011 7.724,52.004 7.752,51.998C7.927,51.96 8.1,51.917 8.273,51.878C8.331,51.864 8.389,51.852 8.446,51.838C8.62,51.798 8.794,51.759 8.968,51.718C9.025,51.703 9.084,51.692 9.143,51.678C9.314,51.635 9.489,51.602 9.661,51.558C9.719,51.543 9.777,51.532 9.834,51.517C10.008,51.473 10.178,51.417 10.352,51.37C10.409,51.355 10.465,51.337 10.522,51.322C10.694,51.275 10.865,51.224 11.036,51.176C11.094,51.159 11.15,51.144 11.208,51.127C11.38,51.078 11.553,51.031 11.724,50.981C11.78,50.964 11.838,50.949 11.894,50.932C12.065,50.881 12.239,50.838 12.41,50.785C12.467,50.769 12.523,50.753 12.58,50.736C12.751,50.683 12.918,50.619 13.088,50.565C13.145,50.546 13.199,50.526 13.256,50.507C13.426,50.452 13.594,50.393 13.764,50.336C13.82,50.317 13.877,50.297 13.934,50.279C14.102,50.221 14.271,50.165 14.44,50.107C14.496,50.087 14.553,50.07 14.608,50.05C14.776,49.99 14.948,49.939 15.115,49.878C15.171,49.858 15.228,49.839 15.283,49.819C15.451,49.756 15.615,49.685 15.783,49.621C15.838,49.6 15.893,49.577 15.947,49.556C16.113,49.492 16.278,49.425 16.444,49.361C16.5,49.338 16.556,49.317 16.61,49.295C16.776,49.229 16.943,49.165 17.108,49.098C17.164,49.075 17.221,49.055 17.276,49.032C17.44,48.965 17.608,48.906 17.771,48.837C17.827,48.814 17.882,48.789 17.937,48.766C18.103,48.696 18.262,48.616 18.426,48.545C18.48,48.522 18.533,48.496 18.587,48.472C18.751,48.401 18.912,48.325 19.074,48.252C19.129,48.228 19.183,48.203 19.236,48.179C19.398,48.105 19.563,48.033 19.725,47.958C19.779,47.933 19.834,47.909 19.889,47.884C20.05,47.808 20.216,47.74 20.376,47.663C20.43,47.638 20.481,47.609 20.534,47.583C20.695,47.505 20.851,47.418 21.011,47.339C21.064,47.313 21.117,47.284 21.17,47.257C21.33,47.177 21.487,47.095 21.646,47.014C21.699,46.987 21.752,46.959 21.805,46.932C21.964,46.85 22.125,46.771 22.283,46.687C22.335,46.659 22.388,46.635 22.439,46.608C22.597,46.524 22.759,46.446 22.915,46.361C22.969,46.331 23.02,46.299 23.073,46.27C23.229,46.184 23.38,46.091 23.535,46.004C23.587,45.975 23.639,45.945 23.69,45.915C23.845,45.827 23.999,45.738 24.153,45.649C24.205,45.618 24.257,45.589 24.31,45.559C24.463,45.47 24.619,45.384 24.771,45.293C24.822,45.263 24.875,45.235 24.926,45.204C25.079,45.113 25.235,45.025 25.388,44.931C25.438,44.901 25.487,44.866 25.537,44.835C25.689,44.742 25.837,44.642 25.987,44.547C26.039,44.515 26.089,44.482 26.14,44.449C26.291,44.354 26.44,44.257 26.591,44.16C26.641,44.128 26.691,44.096 26.741,44.064C26.89,43.967 27.042,43.874 27.19,43.776C27.239,43.743 27.291,43.713 27.341,43.68C27.489,43.58 27.638,43.483 27.786,43.382C27.835,43.349 27.882,43.313 27.931,43.28C28.078,43.178 28.221,43.071 28.368,42.968C28.416,42.934 28.465,42.899 28.514,42.864C28.659,42.762 28.804,42.658 28.949,42.555C28.997,42.52 29.047,42.486 29.095,42.45C29.24,42.346 29.388,42.246 29.532,42.14C29.58,42.105 29.63,42.072 29.677,42.037C29.82,41.931 29.963,41.822 30.104,41.715C30.152,41.679 30.198,41.64 30.246,41.604C30.388,41.496 30.525,41.383 30.666,41.274C30.714,41.238 30.76,41.199 30.808,41.162C30.947,41.053 31.088,40.944 31.228,40.832C31.274,40.795 31.322,40.759 31.368,40.722C31.508,40.611 31.65,40.504 31.789,40.392C31.835,40.354 31.884,40.319 31.93,40.281C32.067,40.167 32.201,40.05 32.338,39.937C32.384,39.898 32.427,39.858 32.473,39.819C32.61,39.703 32.743,39.584 32.879,39.467C32.924,39.429 32.969,39.39 33.013,39.351C33.148,39.235 33.284,39.118 33.418,39C33.462,38.961 33.507,38.924 33.551,38.885C33.685,38.767 33.824,38.654 33.957,38.533C34.002,38.493 34.048,38.456 34.093,38.416C34.225,38.296 34.351,38.169 34.481,38.048C34.524,38.008 34.566,37.966 34.609,37.926C34.74,37.804 34.867,37.679 34.997,37.557C35.04,37.515 35.084,37.474 35.127,37.432C35.257,37.309 35.388,37.187 35.516,37.062C35.559,37.021 35.602,36.981 35.644,36.94C35.771,36.815 35.905,36.697 36.031,36.571C36.073,36.529 36.115,36.489 36.157,36.448C36.284,36.321 36.403,36.186 36.528,36.058C36.57,36.015 36.61,35.971 36.651,35.929C36.775,35.801 36.897,35.671 37.021,35.542C37.062,35.498 37.104,35.454 37.146,35.411C37.268,35.281 37.393,35.155 37.514,35.024C37.555,34.981 37.597,34.939 37.637,34.896C37.758,34.765 37.886,34.64 38.006,34.508C38.046,34.464 38.084,34.418 38.124,34.374C38.244,34.241 38.356,34.102 38.476,33.968C38.515,33.924 38.553,33.878 38.592,33.833C38.71,33.699 38.826,33.564 38.942,33.429C38.981,33.384 39.021,33.338 39.061,33.293C39.176,33.158 39.295,33.027 39.409,32.891C39.447,32.845 39.488,32.801 39.526,32.755C39.642,32.618 39.762,32.487 39.875,32.349C39.913,32.302 39.948,32.253 39.985,32.207C40.099,32.069 40.205,31.925 40.317,31.785C40.354,31.739 40.39,31.693 40.427,31.647C40.538,31.506 40.648,31.364 40.759,31.224C40.795,31.177 40.832,31.131 40.868,31.084C40.978,30.944 41.091,30.805 41.199,30.662C41.235,30.615 41.273,30.571 41.31,30.523C41.417,30.381 41.527,30.24 41.635,30.097C41.67,30.049 41.703,29.999 41.738,29.951C41.844,29.808 41.943,29.66 42.048,29.516C42.083,29.468 42.116,29.418 42.151,29.37C42.256,29.225 42.358,29.079 42.462,28.933C42.496,28.885 42.531,28.837 42.565,28.788C42.668,28.641 42.774,28.498 42.876,28.351C42.909,28.302 42.945,28.255 42.979,28.206C43.079,28.059 43.18,27.912 43.278,27.764C43.313,27.715 43.343,27.663 43.376,27.613C43.475,27.464 43.567,27.312 43.665,27.162C43.697,27.113 43.729,27.062 43.762,27.012C43.858,26.862 43.955,26.712 44.051,26.561C44.082,26.511 44.114,26.462 44.146,26.411C44.241,26.26 44.342,26.113 44.436,25.961C44.467,25.91 44.501,25.861 44.532,25.809C44.626,25.657 44.716,25.503 44.808,25.35C44.839,25.299 44.866,25.246 44.896,25.195C44.988,25.042 45.074,24.885 45.164,24.731C45.193,24.679 45.223,24.628 45.253,24.577C45.342,24.422 45.432,24.268 45.52,24.112C45.549,24.061 45.578,24.011 45.607,23.96C45.695,23.803 45.789,23.651 45.875,23.494C45.904,23.442 45.936,23.391 45.964,23.339C46.05,23.182 46.13,23.022 46.215,22.864C46.242,22.812 46.268,22.759 46.295,22.706C46.379,22.549 46.458,22.387 46.54,22.229C46.567,22.176 46.594,22.123 46.621,22.071C46.703,21.912 46.785,21.753 46.865,21.593C46.892,21.541 46.92,21.489 46.946,21.436C47.025,21.276 47.112,21.119 47.19,20.959C47.217,20.905 47.246,20.854 47.271,20.801C47.35,20.64 47.419,20.475 47.495,20.313C47.521,20.259 47.544,20.204 47.568,20.15C47.645,19.988 47.716,19.823 47.79,19.661C47.814,19.608 47.838,19.554 47.862,19.501C47.936,19.338 48.011,19.176 48.084,19.011C48.107,18.957 48.133,18.904 48.156,18.85C48.229,18.686 48.307,18.527 48.377,18.362C48.4,18.307 48.428,18.253 48.451,18.197C48.521,18.034 48.58,17.864 48.647,17.7C48.67,17.645 48.69,17.589 48.714,17.533C48.781,17.368 48.844,17.201 48.909,17.036C48.932,16.981 48.953,16.927 48.975,16.871C49.04,16.705 49.107,16.539 49.171,16.372C49.192,16.317 49.216,16.262 49.236,16.206C49.3,16.039 49.371,15.876 49.434,15.708C49.454,15.652 49.476,15.597 49.496,15.542C49.558,15.375 49.608,15.203 49.668,15.035C49.688,14.979 49.705,14.921 49.726,14.864C49.784,14.697 49.839,14.527 49.896,14.359C49.916,14.302 49.935,14.246 49.954,14.189C50.011,14.021 50.069,13.853 50.125,13.683C50.144,13.626 50.164,13.571 50.183,13.513C50.237,13.343 50.301,13.177 50.354,13.007C50.372,12.95 50.39,12.894 50.407,12.838C50.46,12.667 50.502,12.493 50.554,12.322C50.57,12.264 50.586,12.207 50.603,12.15C50.653,11.979 50.699,11.806 50.749,11.635C50.765,11.578 50.781,11.52 50.798,11.463C50.846,11.292 50.896,11.121 50.943,10.949C50.959,10.892 50.977,10.835 50.992,10.778C51.038,10.605 51.094,10.436 51.139,10.263C51.153,10.205 51.168,10.147 51.183,10.089C51.227,9.916 51.261,9.739 51.304,9.566C51.317,9.509 51.329,9.451 51.343,9.394C51.385,9.221 51.423,9.046 51.464,8.872C51.477,8.815 51.49,8.757 51.503,8.7C51.543,8.526 51.585,8.354 51.623,8.179C51.637,8.12 51.651,8.062 51.664,8.003C51.702,7.828 51.748,7.656 51.784,7.481C51.797,7.424 51.808,7.366 51.819,7.309C51.854,7.135 51.88,6.957 51.914,6.781C51.925,6.722 51.935,6.662 51.945,6.603C51.979,6.429 52.008,6.254 52.039,6.08C52.05,6.021 52.061,5.962 52.07,5.903C52.102,5.727 52.135,5.553 52.164,5.377C52.175,5.319 52.187,5.26 52.196,5.201C52.225,5.025 52.263,4.851 52.29,4.675C52.299,4.616 52.309,4.557 52.317,4.499C52.345,4.323 52.36,4.144 52.386,3.968C52.394,3.909 52.399,3.849 52.408,3.79C52.433,3.614 52.452,3.437 52.476,3.26C52.483,3.201 52.49,3.141 52.498,3.082C52.521,2.906 52.545,2.729 52.565,2.552C52.572,2.493 52.581,2.435 52.588,2.377C52.607,2.199 52.637,2.025 52.655,1.847C52.661,1.787 52.67,1.728 52.677,1.669C52.694,1.492 52.701,1.312 52.717,1.135C52.723,1.076 52.726,1.017 52.73,0.958C52.746,0.781 52.757,0.603 52.771,0.425C52.775,0.366 52.78,0.306 52.784,0.247L52.805,-0.021L4.506,3.956C3.775,11.379 1.377,35.791 -0.275,53.156C-0.243,53.154 -0.211,53.152 -0.179,53.149C-0.119,53.145 -0.06,53.14 0,53.135" style="fill:rgb(200,255,48);fill-rule:nonzero;"/>
                        </g>
                        <g transform="matrix(1,0,0,1,1029.12,240.821)">
                            <path d="M0,0.017C0.01,0.012 0.021,0.006 0.031,0.001C0.03,0 0.03,0 0.029,0C0.02,0.006 0.01,0.012 0,0.017" style="fill:rgb(200,255,48);fill-rule:nonzero;"/>
                        </g>
                        <g transform="matrix(1,0,0,1,969.787,255.583)">
                            <path d="M0,-12.643C-0.178,-12.161 -0.536,-11.587 -1.012,-11.272L0.862,-11.381L3.895,-11.559C3.839,-11.283 3.778,-11 3.72,-10.721C2.92,-6.893 1.879,-2.774 0.703,0.341C1.056,0.227 1.599,0.139 2.177,0.071C3.044,-0.03 3.993,-0.084 4.519,-0.104C4.485,-1.456 4.702,-2.798 4.968,-4.18C5.671,-7.858 6.52,-10.445 7.178,-12.129C7.3,-12.442 7.417,-12.733 7.523,-12.984C4.333,-12.777 2.534,-12.69 0,-12.643" style="fill:rgb(200,255,48);fill-rule:nonzero;"/>
                        </g>
                        <g transform="matrix(1,0,0,1,994.75,261.092)">
                            <path d="M0,-14.556C-1.181,-15.568 -2.761,-16.155 -4.225,-16.28C-9.178,-16.696 -13.88,-13.074 -14.058,-10.002C-14.133,-8.729 -13.197,-7.454 -11.633,-6.606C-10.689,-6.094 -9.519,-5.737 -8.202,-5.625C-7.39,-5.555 -6.854,-5.58 -5.579,-6.375C-5.085,-6.684 -4.49,-7.097 -3.709,-7.681L-4.225,-7.913C-5.522,-7.149 -6.052,-7.083 -6.737,-7.142C-7.61,-7.215 -8.516,-7.498 -9.315,-7.933C-10.77,-8.721 -11.874,-10.014 -11.788,-11.504C-11.778,-11.671 -11.75,-11.831 -11.712,-11.987C-11.328,-13.564 -9.577,-14.55 -7.745,-14.785C-7.286,-14.843 -6.822,-14.856 -6.375,-14.818C-5.213,-14.721 -3.811,-14.279 -2.782,-13.346C-1.885,-12.531 -1.272,-11.343 -1.371,-9.669C-1.617,-5.371 -7.331,-1.042 -12.375,2.14C-11.854,2 -10.378,1.748 -9.443,1.714C-9.272,1.708 -9.113,1.707 -8.988,1.717C-4.061,-1.641 1.588,-6.195 1.831,-10.384C1.934,-12.161 1.159,-13.563 0,-14.556" style="fill:rgb(200,255,48);fill-rule:nonzero;"/>
                        </g>
                        <g transform="matrix(1,0,0,1,1015.76,249.329)">
                            <path d="M0,-0.668C-1.215,-1.745 -3.331,-2.544 -5.722,-2.341C-5.881,-2.33 -6.08,-2.287 -6.283,-2.269C-7.404,-1.38 -8.368,-0.535 -9.213,0.303L-8.836,0.463C-8.133,0.045 -7.578,-0.216 -6.939,-0.274C-6.84,-0.282 -6.743,-0.283 -6.645,-0.288C-4.766,-0.375 -3.08,0.197 -2.045,1.167C-1.419,1.754 -1.028,2.483 -0.982,3.298C-0.83,5.908 -3.782,7.308 -5.718,7.472C-6.781,7.561 -8.08,7.438 -9.18,6.906C-10.412,6.311 -11.396,5.196 -11.508,3.258C-11.76,-1.105 -8.339,-5.35 -5.042,-8.249C-4.33,-8.875 -3.624,-9.441 -2.962,-9.93L-2.974,-10.064C-4.079,-9.614 -5.145,-9.223 -6.189,-9.002C-10.874,-5.299 -14.812,0.72 -14.583,4.664C-14.493,6.198 -13.525,7.572 -11.938,8.414C-10.713,9.063 -9.118,9.396 -7.273,9.24C-5.81,9.117 -4.463,8.646 -3.293,7.964C-1.84,7.116 -0.67,5.937 0.095,4.663C0.781,3.519 1.146,2.304 1.081,1.185C1.045,0.56 0.648,-0.093 0,-0.668" style="fill:rgb(200,255,48);fill-rule:nonzero;"/>
                        </g>
                        <g transform="matrix(1,0,0,1,1032.92,248.031)">
                            <path d="M0,2.749C-1.044,4.214 -1.538,4.436 -2.72,4.766C-3.932,5.103 -6.12,5.385 -7.889,5.766C-8.247,5.843 -8.594,5.923 -8.905,6.01C-9.015,6.04 -9.116,6.073 -9.214,6.109C-9.817,6.329 -10.269,6.687 -11.338,7.778L-11.429,7.75C-10.439,6.796 -7.608,3.478 -5.474,0.37C-3.907,-1.912 -2.714,-4.081 -2.912,-5.116C-2.952,-5.326 -3.029,-5.508 -3.13,-5.671C-3.874,-6.864 -6.172,-6.814 -8.739,-6.099C-9.801,-5.801 -11.187,-5.275 -12.216,-4.793L-13.674,-2.232L-13.314,-2.109C-12.956,-2.505 -12.4,-2.868 -11.581,-3.204C-11.161,-3.377 -10.675,-3.543 -10.102,-3.701C-7.83,-4.336 -6.269,-4.442 -5.854,-3.386C-5.823,-3.308 -5.783,-3.238 -5.766,-3.147C-5.301,-0.729 -12.02,7.687 -13.626,9.479L-12.897,9.613C-11.882,8.631 -11.704,8.468 -11.117,8.305C-11.048,8.285 -10.957,8.264 -10.858,8.241C-10.605,8.183 -10.265,8.114 -9.864,8.04C-9.812,8.03 -9.754,8.02 -9.698,8.01C-7.401,7.586 -3.453,6.984 -3.02,6.864C-2.498,6.717 -2.256,6.607 -1.382,5.461C-0.945,4.888 -0.354,4.06 0.515,2.829L0,2.749Z" style="fill:rgb(200,255,48);fill-rule:nonzero;"/>
                        </g>
                        <g transform="matrix(-0.857099,-0.515152,-0.515152,0.857099,989.802,180.503)">
                            <path d="M-2.411,-13.793C-0.753,-13.279 1.187,-13.004 3.268,-13.326L-2.411,-1.686L-10.473,-0.379L-2.411,-13.793Z" style="fill:rgb(200,255,48);fill-rule:nonzero;"/>
                        </g>
                        <g transform="matrix(-0.857099,-0.515152,-0.515152,0.857099,989.802,180.503)">
                            <path d="M-2.411,-13.793C-0.753,-13.279 1.187,-13.004 3.268,-13.326L-2.411,-1.686L-10.473,-0.379L-2.411,-13.793Z" style="fill:rgb(200,255,48);fill-rule:nonzero;"/>
                        </g>
                        <g transform="matrix(1,0,0,1,998.974,260.897)">
                            <path d="M0,-75.324L0,0C0.298,-5.287 6.649,-69.658 6.649,-69.658L0,-75.324Z" style="fill:rgb(200,255,48);fill-rule:nonzero;"/>
                        </g>
                        <g transform="matrix(1,0,0,1,1005.2,185.574)">
                            <path d="M0,-5.288L-6.211,-0.009L-6.222,0L69.265,0L69.365,-0.009C66.311,-0.073 0,-5.288 0,-5.288" style="fill:rgb(200,255,48);fill-rule:nonzero;"/>
                        </g>
                        <g transform="matrix(1,0,0,1,998.974,191.239)">
                            <path d="M0,-5.666L-75.465,-5.666L-6.648,0L0,-5.666Z" style="fill:rgb(200,255,48);fill-rule:nonzero;"/>
                        </g>
                        <g transform="matrix(1,0,0,1,1009.63,164.118)">
                            <path d="M0,-52.604L3.879,-52.037C3.972,-52.037 4.019,-51.989 4.065,-51.918C4.112,-51.871 4.136,-51.8 4.112,-51.729L3.902,-50.262C3.879,-50.097 3.738,-50.002 3.599,-50.026L-2.009,-50.854C-2.103,-50.854 -2.149,-50.901 -2.196,-50.972C-2.243,-51.02 -2.267,-51.09 -2.243,-51.161L-0.49,-62.87C-0.467,-63.011 -0.327,-63.13 -0.187,-63.106L1.262,-62.893C1.332,-62.87 1.402,-62.846 1.448,-62.775C1.495,-62.704 1.519,-62.633 1.495,-62.562L0,-52.604ZM-7.477,-61.616L-7.594,-58.423L-4.136,-58.281C-4.065,-58.281 -3.995,-58.257 -3.948,-58.21C-3.878,-58.139 -3.855,-58.068 -3.855,-57.997L-3.925,-56.625C-3.925,-56.483 -4.065,-56.341 -4.205,-56.365L-7.687,-56.507L-7.827,-53.219L-3.435,-53.03C-3.364,-53.03 -3.294,-53.006 -3.248,-52.935C-3.201,-52.888 -3.178,-52.817 -3.178,-52.746L-3.248,-51.303C-3.248,-51.161 -3.364,-51.043 -3.528,-51.043L-9.649,-51.303C-9.743,-51.303 -9.79,-51.327 -9.859,-51.398C-9.906,-51.445 -9.93,-51.516 -9.93,-51.587L-9.416,-63.414C-9.416,-63.556 -9.299,-63.674 -9.136,-63.674L-3.014,-63.414C-2.921,-63.414 -2.874,-63.39 -2.804,-63.319C-2.757,-63.271 -2.733,-63.201 -2.733,-63.13L-2.804,-61.71C-2.804,-61.545 -2.943,-61.427 -3.084,-61.427L-7.477,-61.616ZM-18.925,-61.167L-18.201,-52.746L-16.238,-52.935C-15.771,-52.959 -15.351,-53.077 -14.977,-53.313C-14.603,-53.526 -14.299,-53.834 -14.065,-54.212C-13.809,-54.615 -13.645,-55.087 -13.552,-55.561C-13.435,-56.176 -13.411,-56.791 -13.481,-57.382C-13.528,-57.997 -13.645,-58.612 -13.855,-59.18C-14.042,-59.629 -14.275,-60.079 -14.603,-60.433C-14.906,-60.764 -15.257,-61.001 -15.654,-61.167C-16.074,-61.332 -16.519,-61.355 -16.963,-61.332L-18.925,-61.167ZM-11.425,-57.571C-11.355,-56.743 -11.378,-55.868 -11.565,-55.064C-11.752,-54.331 -12.032,-53.621 -12.453,-53.006C-12.851,-52.415 -13.364,-51.942 -13.972,-51.587C-14.626,-51.208 -15.327,-51.02 -16.052,-50.948L-19.767,-50.641C-19.93,-50.617 -20.047,-50.735 -20.07,-50.877L-21.098,-62.657C-21.098,-62.751 -21.074,-62.822 -21.028,-62.87C-20.981,-62.94 -20.911,-62.964 -20.841,-62.964L-17.126,-63.295C-16.401,-63.366 -15.678,-63.295 -14.977,-63.035C-14.322,-62.775 -13.738,-62.396 -13.225,-61.9C-12.687,-61.355 -12.29,-60.717 -12.009,-60.031C-11.683,-59.25 -11.495,-58.423 -11.425,-57.571M-33.948,-57.902L-31.589,-49.813L-29.696,-50.357C-29.275,-50.475 -28.878,-50.688 -28.528,-50.996C-28.225,-51.279 -27.99,-51.634 -27.827,-52.037C-27.64,-52.486 -27.594,-52.982 -27.594,-53.479C-27.594,-54.07 -27.71,-54.686 -27.874,-55.277C-28.037,-55.868 -28.271,-56.436 -28.598,-56.956C-28.855,-57.358 -29.182,-57.76 -29.579,-58.044C-29.93,-58.305 -30.327,-58.47 -30.747,-58.541C-31.191,-58.636 -31.636,-58.588 -32.056,-58.446L-33.948,-57.902ZM-25.888,-55.845C-25.654,-55.041 -25.514,-54.189 -25.537,-53.361C-25.584,-52.604 -25.701,-51.871 -26.005,-51.185C-26.309,-50.522 -26.705,-49.955 -27.243,-49.482C-27.78,-49.009 -28.435,-48.678 -29.136,-48.465L-32.733,-47.424C-32.874,-47.377 -33.014,-47.471 -33.061,-47.613L-36.378,-58.967C-36.401,-59.038 -36.401,-59.109 -36.355,-59.18C-36.332,-59.25 -36.262,-59.298 -36.191,-59.322L-32.617,-60.362C-31.916,-60.551 -31.191,-60.623 -30.443,-60.504C-29.743,-60.41 -29.112,-60.126 -28.505,-59.747C-27.897,-59.322 -27.383,-58.777 -26.939,-58.139C-26.472,-57.453 -26.145,-56.672 -25.888,-55.845M-38.645,-50.333L-41.612,-53.621C-41.659,-53.645 -41.705,-53.692 -41.729,-53.739C-41.729,-53.692 -41.729,-53.621 -41.705,-53.574L-41.191,-49.198L-38.645,-50.333ZM-37.359,-48.914L-40.981,-47.306L-40.654,-44.633C-40.654,-44.491 -40.678,-44.326 -40.725,-44.184C-40.794,-43.994 -40.935,-43.853 -41.098,-43.781L-42.126,-43.309C-42.22,-43.285 -42.313,-43.285 -42.383,-43.332C-42.453,-43.379 -42.523,-43.45 -42.523,-43.545L-43.832,-55.916C-43.855,-56.058 -43.785,-56.152 -43.668,-56.223L-42.313,-56.814C-42.196,-56.862 -42.079,-56.838 -42.009,-56.767L-33.505,-47.613C-33.435,-47.542 -33.411,-47.448 -33.435,-47.353C-33.458,-47.258 -33.505,-47.187 -33.598,-47.164L-34.626,-46.691C-34.813,-46.62 -35,-46.596 -35.163,-46.667C-35.327,-46.714 -35.467,-46.809 -35.561,-46.927L-37.359,-48.914ZM-53.435,-48.536L-48.925,-41.393L-47.267,-42.433C-46.869,-42.67 -46.565,-42.977 -46.309,-43.355C-46.098,-43.71 -45.958,-44.113 -45.911,-44.539C-45.888,-45.035 -45.958,-45.532 -46.074,-46.005C-46.262,-46.573 -46.542,-47.14 -46.869,-47.661C-47.173,-48.157 -47.57,-48.654 -48.014,-49.056C-48.388,-49.387 -48.809,-49.671 -49.275,-49.86C-49.673,-50.002 -50.094,-50.073 -50.537,-50.026C-50.981,-49.979 -51.401,-49.813 -51.775,-49.577L-53.435,-48.536ZM-45.116,-48.749C-44.673,-48.039 -44.299,-47.258 -44.089,-46.431C-43.901,-45.721 -43.832,-44.964 -43.948,-44.231C-44.042,-43.521 -44.275,-42.859 -44.649,-42.268C-45.047,-41.653 -45.584,-41.132 -46.215,-40.754L-49.369,-38.791C-49.486,-38.696 -49.673,-38.743 -49.743,-38.885L-56.074,-48.891C-56.098,-48.961 -56.121,-49.032 -56.098,-49.104C-56.074,-49.174 -56.051,-49.245 -55.981,-49.269L-52.827,-51.256C-52.196,-51.634 -51.519,-51.895 -50.771,-51.989C-50.07,-52.06 -49.369,-51.989 -48.715,-51.776C-47.99,-51.54 -47.336,-51.161 -46.775,-50.665C-46.121,-50.121 -45.584,-49.458 -45.116,-48.749M-51.098,-37.395L-52.243,-36.473C-52.383,-36.378 -52.547,-36.402 -52.64,-36.52L-59.953,-45.839C-60,-45.91 -60.023,-45.981 -60,-46.052C-60,-46.123 -59.953,-46.194 -59.906,-46.241L-58.738,-47.14C-58.621,-47.235 -58.435,-47.211 -58.341,-47.093L-51.028,-37.773C-50.981,-37.726 -50.981,-37.655 -50.981,-37.561C-50.981,-37.49 -51.028,-37.442 -51.098,-37.395M-60.537,-42.764C-60.514,-42.646 -60.49,-42.528 -60.49,-42.41C-60.514,-42.268 -60.584,-42.149 -60.678,-42.055C-60.817,-41.937 -60.981,-41.889 -61.168,-41.889C-61.332,-41.889 -61.472,-41.866 -61.636,-41.866C-61.822,-41.842 -62.009,-41.794 -62.196,-41.724C-62.43,-41.629 -62.616,-41.487 -62.78,-41.345C-62.943,-41.18 -63.107,-41.014 -63.201,-40.801C-63.271,-40.659 -63.317,-40.47 -63.317,-40.281C-63.317,-40.115 -63.294,-39.926 -63.225,-39.76C-63.131,-39.571 -63.014,-39.406 -62.874,-39.264C-62.733,-39.098 -62.547,-38.956 -62.336,-38.909C-62.103,-38.838 -61.893,-38.838 -61.682,-38.862C-61.425,-38.909 -61.168,-38.98 -60.911,-39.075C-60.631,-39.193 -60.351,-39.288 -60.047,-39.406C-59.743,-39.524 -59.439,-39.619 -59.112,-39.689C-58.762,-39.784 -58.411,-39.808 -58.084,-39.784C-57.71,-39.76 -57.336,-39.642 -57.009,-39.477C-56.589,-39.288 -56.238,-38.98 -55.935,-38.649C-55.561,-38.247 -55.28,-37.821 -55.047,-37.348C-54.836,-36.898 -54.72,-36.402 -54.696,-35.905C-54.673,-35.432 -54.767,-34.959 -54.953,-34.486C-55.14,-34.013 -55.467,-33.587 -55.864,-33.232C-56.098,-32.996 -56.378,-32.807 -56.659,-32.641C-56.963,-32.499 -57.243,-32.381 -57.57,-32.286C-57.874,-32.191 -58.201,-32.144 -58.505,-32.121C-58.832,-32.121 -59.136,-32.144 -59.463,-32.191C-59.556,-32.215 -59.649,-32.286 -59.673,-32.381L-59.93,-33.279C-59.953,-33.303 -59.953,-33.303 -59.953,-33.327C-59.953,-33.421 -59.977,-33.516 -59.953,-33.634C-59.93,-33.776 -59.859,-33.895 -59.767,-33.965C-59.603,-34.107 -59.393,-34.131 -59.205,-34.131C-58.995,-34.131 -58.809,-34.155 -58.621,-34.155C-58.364,-34.178 -58.131,-34.226 -57.897,-34.296C-57.64,-34.391 -57.406,-34.557 -57.196,-34.746C-57.009,-34.912 -56.846,-35.101 -56.752,-35.313C-56.659,-35.503 -56.612,-35.692 -56.612,-35.905C-56.612,-36.118 -56.659,-36.331 -56.752,-36.52C-56.846,-36.756 -57.009,-36.946 -57.173,-37.135C-57.336,-37.324 -57.547,-37.49 -57.78,-37.561C-57.99,-37.608 -58.201,-37.632 -58.411,-37.608C-58.668,-37.561 -58.925,-37.49 -59.159,-37.395C-59.463,-37.277 -59.743,-37.159 -60.023,-37.041C-60.327,-36.922 -60.654,-36.828 -60.958,-36.756C-61.309,-36.662 -61.659,-36.638 -62.009,-36.662C-62.383,-36.709 -62.757,-36.828 -63.107,-36.993C-63.528,-37.206 -63.901,-37.537 -64.229,-37.892C-64.532,-38.223 -64.79,-38.602 -64.953,-39.027C-65.14,-39.429 -65.233,-39.855 -65.257,-40.305C-65.257,-40.754 -65.187,-41.203 -65.023,-41.605C-64.813,-42.079 -64.509,-42.48 -64.159,-42.812C-63.738,-43.19 -63.247,-43.498 -62.71,-43.663C-62.173,-43.829 -61.636,-43.876 -61.074,-43.829C-60.958,-43.805 -60.888,-43.734 -60.841,-43.64L-60.537,-42.764ZM-70.047,-33.729L-67.196,-31.269L-66.495,-32.049C-66.309,-32.286 -66.121,-32.546 -66.028,-32.83C-65.935,-33.066 -65.911,-33.303 -65.935,-33.54C-65.958,-33.8 -66.028,-34.013 -66.145,-34.226C-66.285,-34.486 -66.472,-34.675 -66.682,-34.864C-67.056,-35.195 -67.5,-35.456 -68.014,-35.385C-68.551,-35.337 -68.995,-34.935 -69.346,-34.557L-70.047,-33.729ZM-65.817,-30.062L-62.336,-27.059C-62.29,-27.011 -62.267,-26.94 -62.243,-26.87C-62.243,-26.798 -62.267,-26.728 -62.313,-26.657L-63.294,-25.568C-63.388,-25.45 -63.551,-25.427 -63.668,-25.545L-72.64,-33.303C-72.71,-33.351 -72.733,-33.398 -72.733,-33.492C-72.733,-33.563 -72.71,-33.634 -72.663,-33.682L-70.794,-35.834C-70.42,-36.26 -69.977,-36.686 -69.463,-36.969C-69.042,-37.229 -68.574,-37.395 -68.084,-37.442C-67.64,-37.466 -67.173,-37.419 -66.729,-37.229C-66.285,-37.064 -65.864,-36.78 -65.49,-36.449C-65.163,-36.189 -64.883,-35.858 -64.649,-35.526C-64.439,-35.195 -64.275,-34.817 -64.182,-34.438C-64.089,-34.06 -64.065,-33.682 -64.089,-33.303C-64.112,-33.043 -64.182,-32.807 -64.252,-32.57C-64.136,-32.57 -63.995,-32.546 -63.901,-32.522L-58.574,-31.6C-58.458,-31.577 -58.388,-31.505 -58.364,-31.411C-58.317,-31.316 -58.341,-31.222 -58.411,-31.127L-59.275,-30.157C-59.509,-29.874 -59.836,-29.779 -60.187,-29.874L-64.906,-30.725C-64.977,-30.749 -65.094,-30.749 -65.163,-30.749C-65.233,-30.725 -65.327,-30.606 -65.374,-30.56L-65.817,-30.062ZM-75.304,-26.68L-72.663,-24.883L-70.701,-27.721C-70.607,-27.839 -70.443,-27.887 -70.327,-27.792L-69.182,-27.035C-69.112,-26.988 -69.065,-26.917 -69.065,-26.846C-69.042,-26.775 -69.065,-26.704 -69.112,-26.633L-71.051,-23.794L-68.317,-21.926L-65.841,-25.521C-65.747,-25.663 -65.584,-25.687 -65.467,-25.616L-64.275,-24.788C-64.229,-24.741 -64.182,-24.693 -64.159,-24.623C-64.159,-24.528 -64.159,-24.457 -64.205,-24.41L-67.663,-19.372C-67.757,-19.229 -67.921,-19.206 -68.061,-19.3L-77.874,-25.947C-77.943,-25.994 -77.967,-26.065 -77.99,-26.136C-78.014,-26.207 -77.99,-26.278 -77.943,-26.349L-74.485,-31.387C-74.393,-31.505 -74.229,-31.553 -74.089,-31.458L-72.92,-30.654C-72.851,-30.606 -72.804,-30.56 -72.804,-30.488C-72.78,-30.394 -72.804,-30.323 -72.851,-30.275L-75.304,-26.68ZM-73.481,-16.131C-73.551,-16.202 -73.621,-16.249 -73.668,-16.32L-79.626,-22.352C-79.743,-22.47 -79.836,-22.612 -79.883,-22.754C-79.93,-22.943 -79.906,-23.132 -79.813,-23.298L-79.275,-24.338C-79.229,-24.433 -79.159,-24.48 -79.065,-24.504C-78.972,-24.504 -78.901,-24.48 -78.832,-24.41L-70.116,-15.421C-70.047,-15.351 -70.023,-15.208 -70.07,-15.114L-70.678,-13.931C-70.747,-13.836 -70.841,-13.79 -70.958,-13.79L-83.388,-15.658C-83.481,-15.682 -83.551,-15.729 -83.574,-15.824C-83.621,-15.895 -83.621,-15.989 -83.574,-16.083L-83.037,-17.101C-82.967,-17.266 -82.827,-17.408 -82.64,-17.479C-82.477,-17.526 -82.336,-17.526 -82.173,-17.503L-73.762,-16.178C-73.668,-16.155 -73.574,-16.155 -73.481,-16.131M-72.733,-9.508L-73.294,-8.136C-73.341,-7.994 -73.505,-7.923 -73.645,-7.994L-84.673,-12.417C-84.743,-12.441 -84.79,-12.488 -84.836,-12.56C-84.859,-12.63 -84.859,-12.725 -84.836,-12.796L-84.275,-14.144C-84.205,-14.286 -84.065,-14.357 -83.925,-14.31L-72.897,-9.863C-72.827,-9.839 -72.78,-9.792 -72.733,-9.721C-72.71,-9.65 -72.71,-9.579 -72.733,-9.508M-83.925,-2.152L-76.262,0.048C-76.191,0.071 -76.121,0.095 -76.098,0.166C-76.051,0.237 -76.051,0.308 -76.074,0.379L-76.425,1.632C-76.472,1.774 -76.612,1.845 -76.775,1.822L-88.201,-1.466C-88.271,-1.49 -88.317,-1.537 -88.364,-1.608C-88.388,-1.679 -88.411,-1.75 -88.388,-1.821L-88.178,-2.53C-88.131,-2.672 -88.061,-2.814 -87.967,-2.909L-87.967,-2.933C-87.851,-3.027 -87.687,-3.098 -87.547,-3.122L-78.645,-5.794L-86.285,-7.994C-86.378,-7.994 -86.425,-8.041 -86.472,-8.113C-86.495,-8.184 -86.519,-8.254 -86.495,-8.326L-86.121,-9.556C-86.074,-9.697 -85.935,-9.792 -85.794,-9.745L-74.369,-6.48C-74.299,-6.457 -74.229,-6.41 -74.205,-6.338C-74.159,-6.268 -74.159,-6.197 -74.182,-6.125L-74.369,-5.416C-74.416,-5.25 -74.509,-5.132 -74.626,-5.014C-74.743,-4.943 -74.859,-4.872 -75.023,-4.825L-83.925,-2.152ZM-79.322,7.167C-79.275,6.836 -79.299,6.505 -79.393,6.221C-79.509,5.914 -79.673,5.653 -79.883,5.44C-80.14,5.204 -80.443,5.015 -80.771,4.873C-81.145,4.708 -81.565,4.613 -81.985,4.542L-89.112,3.596C-89.182,3.596 -89.252,3.548 -89.299,3.478C-89.346,3.43 -89.369,3.359 -89.346,3.288L-89.159,1.845C-89.136,1.68 -88.995,1.585 -88.854,1.609L-81.705,2.555C-81.051,2.649 -80.374,2.815 -79.767,3.099C-79.205,3.359 -78.691,3.714 -78.271,4.164C-77.851,4.565 -77.57,5.062 -77.383,5.63C-77.173,6.221 -77.149,6.836 -77.22,7.451C-77.313,8.066 -77.5,8.634 -77.851,9.154C-78.178,9.651 -78.598,10.029 -79.112,10.337C-79.649,10.645 -80.233,10.857 -80.817,10.952C-81.495,11.07 -82.196,11.046 -82.851,10.976L-90,10.006C-90.07,10.006 -90.116,9.959 -90.163,9.911C-90.21,9.84 -90.233,9.769 -90.233,9.698L-90.023,8.255C-90,8.09 -89.859,7.995 -89.72,7.995L-82.594,8.965C-82.173,9.012 -81.752,9.036 -81.332,8.965C-80.981,8.917 -80.631,8.823 -80.327,8.657C-80.047,8.516 -79.836,8.303 -79.649,8.042C-79.463,7.782 -79.369,7.475 -79.322,7.167" style="fill:rgb(200,255,48);"/>
                        </g>
                        <g transform="matrix(1,0,0,1,1033.64,114.778)">
                            <path d="M0,-8.089L-3.925,3.785L-5.888,3.099L-3.645,-3.737C-3.574,-3.902 -3.528,-4.068 -3.458,-4.234C-3.388,-4.423 -3.317,-4.612 -3.224,-4.801L-7.804,0.426C-7.943,0.592 -8.084,0.686 -8.247,0.734C-8.435,0.781 -8.598,0.781 -8.762,0.734L-9.065,0.615C-9.252,0.568 -9.369,0.45 -9.485,0.308C-9.579,0.166 -9.649,-0.024 -9.649,-0.236L-10.187,-7.261C-10.257,-7.048 -10.304,-6.859 -10.351,-6.67C-10.397,-6.457 -10.467,-6.292 -10.514,-6.15L-12.757,0.686L-14.72,0L-10.817,-11.874L-9.112,-11.282C-9.019,-11.235 -8.925,-11.211 -8.854,-11.188C-8.785,-11.14 -8.738,-11.117 -8.668,-11.069C-8.621,-11.022 -8.598,-10.951 -8.574,-10.88C-8.527,-10.809 -8.527,-10.714 -8.505,-10.596L-8.014,-3.713C-8.014,-3.477 -7.99,-3.216 -7.967,-2.98L-7.967,-2.199C-7.827,-2.412 -7.663,-2.625 -7.5,-2.815C-7.336,-3.027 -7.196,-3.216 -7.032,-3.382L-2.593,-8.515C-2.5,-8.61 -2.43,-8.68 -2.359,-8.728C-2.313,-8.752 -2.243,-8.775 -2.173,-8.798C-2.103,-8.798 -2.032,-8.798 -1.963,-8.775C-1.893,-8.752 -1.799,-8.728 -1.705,-8.68L0,-8.089Z" style="fill:rgb(200,255,48);"/>
                        </g>
                        <g transform="matrix(1,0,0,1,1039.16,109.622)">
                            <path d="M0,14.145L-1.612,13.246C-1.8,13.151 -1.916,13.033 -1.963,12.868C-2.033,12.702 -2.033,12.513 -2.01,12.324L-1.543,10.1L-4.954,8.231L-6.473,9.864C-6.589,9.982 -6.753,10.077 -6.916,10.124C-7.104,10.171 -7.267,10.147 -7.431,10.053L-9.065,9.154L0.14,0L2.266,1.159L0,14.145ZM-1.099,8.09L-0.374,4.613C-0.327,4.376 -0.281,4.116 -0.211,3.832C-0.141,3.524 -0.07,3.193 0.022,2.862C-0.211,3.146 -0.421,3.383 -0.631,3.619C-0.818,3.832 -1.005,4.021 -1.169,4.187L-3.552,6.741L-1.099,8.09Z" style="fill:rgb(200,255,48);"/>
                        </g>
                        <g transform="matrix(1,0,0,1,1046.85,121.922)">
                            <path d="M0,-0.379L2.944,1.797L-0.07,6.102C-0.771,6.173 -1.402,6.102 -2.01,5.913C-2.594,5.747 -3.154,5.463 -3.668,5.061C-4.346,4.564 -4.883,3.973 -5.257,3.311C-5.631,2.625 -5.841,1.915 -5.911,1.159C-5.981,0.402 -5.911,-0.379 -5.678,-1.183C-5.444,-1.963 -5.07,-2.744 -4.556,-3.478C-4.019,-4.234 -3.435,-4.849 -2.78,-5.346C-2.126,-5.843 -1.472,-6.174 -0.748,-6.339C-0.047,-6.529 0.654,-6.552 1.355,-6.41C2.079,-6.269 2.78,-5.938 3.435,-5.441C3.785,-5.204 4.065,-4.921 4.322,-4.636C4.579,-4.329 4.79,-4.045 4.977,-3.738C5.14,-3.406 5.257,-3.099 5.374,-2.768C5.444,-2.461 5.514,-2.129 5.537,-1.798L4.252,-1.183C4.065,-1.088 3.879,-1.065 3.715,-1.136C3.552,-1.207 3.435,-1.349 3.364,-1.585C3.294,-1.798 3.201,-2.011 3.131,-2.2C3.061,-2.366 2.967,-2.531 2.874,-2.697C2.757,-2.839 2.641,-2.981 2.5,-3.123C2.359,-3.265 2.196,-3.406 2.01,-3.548C1.636,-3.809 1.262,-3.974 0.864,-4.045C0.49,-4.092 0.094,-4.045 -0.327,-3.927C-0.725,-3.785 -1.121,-3.572 -1.495,-3.241C-1.893,-2.934 -2.267,-2.531 -2.594,-2.035C-2.968,-1.491 -3.248,-0.97 -3.411,-0.45C-3.599,0.047 -3.668,0.52 -3.645,0.969C-3.645,1.442 -3.528,1.845 -3.317,2.223C-3.131,2.601 -2.827,2.933 -2.477,3.216C-2.243,3.382 -2.01,3.524 -1.775,3.595C-1.565,3.666 -1.309,3.737 -1.075,3.784L0,2.223L-0.817,1.632C-0.935,1.537 -1.005,1.419 -1.005,1.3C-1.028,1.159 -0.981,1.04 -0.911,0.922L0,-0.379Z" style="fill:rgb(200,255,48);"/>
                        </g>
                        <g transform="matrix(1,0,0,1,1056.17,124.783)">
                            <path d="M0,5.37C0.397,4.92 0.748,4.471 0.981,4.022C1.215,3.572 1.379,3.123 1.426,2.697C1.495,2.271 1.448,1.869 1.332,1.491C1.191,1.112 0.981,0.758 0.654,0.427L-0.49,-0.709L-5.935,5.11L-4.79,6.222C-4.463,6.553 -4.112,6.766 -3.738,6.884C-3.364,7.002 -2.967,7.026 -2.547,6.954C-2.149,6.884 -1.729,6.718 -1.285,6.434C-0.864,6.174 -0.443,5.819 0,5.37M1.729,7.097C1.122,7.735 0.468,8.256 -0.233,8.634C-0.935,8.989 -1.636,9.225 -2.359,9.296C-3.061,9.367 -3.762,9.296 -4.439,9.036C-5.117,8.8 -5.725,8.397 -6.309,7.853L-9.136,5.015L-0.678,-3.997L2.149,-1.182C2.733,-0.614 3.131,0.001 3.388,0.686C3.645,1.396 3.738,2.106 3.715,2.839C3.668,3.549 3.481,4.282 3.131,5.015C2.804,5.748 2.337,6.434 1.729,7.097" style="fill:rgb(200,255,48);"/>
                        </g>
                        <g transform="matrix(1,0,0,1,1059.65,131.359)">
                            <path d="M0,12.891L-1.121,11.425C-1.262,11.259 -1.309,11.093 -1.309,10.904C-1.285,10.739 -1.238,10.573 -1.121,10.408L0.163,8.562L-2.22,5.44L-4.252,6.315C-4.416,6.363 -4.579,6.387 -4.767,6.363C-4.953,6.339 -5.094,6.245 -5.21,6.079L-6.355,4.589L5.654,0L7.149,1.963L0,12.891ZM1.332,6.907L3.388,4.021C3.505,3.832 3.645,3.619 3.832,3.359C4.019,3.122 4.206,2.862 4.416,2.578C4.112,2.744 3.809,2.886 3.552,3.004C3.271,3.122 3.014,3.217 2.804,3.288L-0.374,4.66L1.332,6.907Z" style="fill:rgb(200,255,48);"/>
                        </g>
                        <g transform="matrix(1,0,0,1,1064.95,139.472)">
                            <path d="M0,9.485L-1.939,10.691L-5.117,5.322L5.304,-1.206L6.519,0.875L-1.963,6.197L0,9.485Z" style="fill:rgb(200,255,48);"/>
                        </g>
                        <g transform="matrix(1,0,0,1,1073.5,153.901)">
                            <path d="M0,-5.086L-2.57,-3.856L-1.215,-0.876L-3.107,0.047L-4.463,-2.934L-7.104,-1.656L-5.327,2.223L-7.29,3.169L-10.07,-2.91L0.958,-8.255L3.738,-2.176L1.775,-1.207L0,-5.086Z" style="fill:rgb(200,255,48);"/>
                        </g>
                        <g transform="matrix(1,0,0,1,1081,158.181)">
                            <path d="M0,4.873L-11.612,8.681L-11.986,7.475C-12.033,7.309 -12.057,7.144 -12.033,7.002C-11.986,6.86 -11.916,6.694 -11.8,6.529L-6.309,-0.449C-6.52,-0.355 -6.706,-0.283 -6.916,-0.212C-7.104,-0.142 -7.29,-0.07 -7.454,-0.023L-13.669,2.035L-14.3,-0L-2.688,-3.808L-2.313,-2.602C-2.29,-2.507 -2.267,-2.412 -2.243,-2.341L-2.243,-2.128C-2.267,-2.081 -2.29,-2.01 -2.337,-1.939C-2.36,-1.868 -2.431,-1.797 -2.5,-1.703L-7.991,5.322C-7.78,5.228 -7.57,5.133 -7.36,5.062C-7.15,4.991 -6.963,4.92 -6.776,4.85L-0.631,2.839L0,4.873Z" style="fill:rgb(200,255,48);"/>
                        </g>
                        <g transform="matrix(1,0,0,1,1071.21,167.217)">
                            <path d="M0,10.431L-0.304,8.563C-0.327,8.35 -0.304,8.184 -0.21,8.042C-0.117,7.877 0,7.759 0.163,7.664L2.173,6.718L1.542,2.791L-0.654,2.531C-0.817,2.508 -0.981,2.436 -1.121,2.318C-1.262,2.223 -1.355,2.058 -1.379,1.869L-1.683,0L10.981,1.94L11.379,4.376L0,10.431ZM3.972,5.843L7.126,4.329C7.313,4.21 7.547,4.092 7.827,3.974C8.084,3.832 8.388,3.714 8.715,3.572C8.364,3.548 8.037,3.524 7.733,3.501C7.43,3.477 7.173,3.43 6.963,3.406L3.528,3.004L3.972,5.843Z" style="fill:rgb(200,255,48);"/>
                        </g>
                    </g>
                </g>
            </g>
            <g transform="matrix(1,0,0,1.02469,-0.433848,37.6517)">
                <g transform="matrix(0.101846,0,0,0.0274563,149.974,1077.39)">
                    <path d="M868.843,1004.2L868.843,933.273L734.785,859.772L734.785,706.897L868.843,632.606L868.843,563.689L671.802,672.292L671.802,895.912L868.843,1004.2Z" style="fill:rgb(200,255,48);"/>
                    <path d="M865.525,1010.24C867.659,1011.41 870.254,1011.37 872.35,1010.13C874.446,1008.89 875.731,1006.63 875.731,1004.2L875.731,933.273C875.731,930.758 874.36,928.442 872.154,927.233L741.674,855.692C741.674,855.692 741.674,710.955 741.674,710.955C741.674,710.955 872.182,638.631 872.182,638.631C874.372,637.417 875.731,635.11 875.731,632.606L875.731,563.689C875.731,561.253 874.444,558.997 872.346,557.758C870.248,556.519 867.651,556.48 865.517,557.656L668.477,666.259C666.278,667.471 664.913,669.782 664.913,672.292L664.913,895.912C664.913,898.425 666.282,900.739 668.484,901.949L865.525,1010.24ZM861.954,992.552L678.691,891.837C678.691,891.837 678.691,676.361 678.691,676.361C678.691,676.361 861.954,575.352 861.954,575.352C861.954,575.352 861.954,628.547 861.954,628.547C861.954,628.547 731.445,700.872 731.445,700.872C729.255,702.085 727.896,704.393 727.896,706.897L727.896,859.772C727.896,862.287 729.267,864.603 731.473,865.812L861.954,937.353L861.954,992.552Z" style="fill:rgb(200,255,48);"/>
                    <path d="M1035.54,747.706L1035.54,706.897L901.48,632.606L901.48,563.689L1098.52,672.292L1098.52,895.912L901.48,1004.2L901.48,933.273L1035.54,859.772L1035.54,810.55L902.297,810.55L902.297,747.706L1035.54,747.706Z" style="fill:rgb(200,255,48);"/>
                    <path d="M1028.65,740.817L902.297,740.817C898.492,740.817 895.408,743.901 895.408,747.706L895.408,810.55C895.408,814.354 898.492,817.438 902.297,817.438L1028.65,817.438C1028.65,817.439 1028.65,855.692 1028.65,855.692C1028.65,855.692 898.168,927.233 898.168,927.233C895.962,928.442 894.591,930.758 894.591,933.273L894.591,1004.2C894.591,1006.63 895.877,1008.89 897.973,1010.13C900.069,1011.37 902.664,1011.41 904.798,1010.24L1101.84,901.949C1104.04,900.739 1105.41,898.425 1105.41,895.912L1105.41,672.292C1105.41,669.782 1104.04,667.471 1101.85,666.259L904.805,557.656C902.671,556.48 900.074,556.519 897.976,557.758C895.878,558.997 894.591,561.253 894.591,563.689L894.591,632.606C894.591,635.11 895.95,637.417 898.141,638.631L1028.65,710.955L1028.65,740.817ZM1035.54,754.595C1039.34,754.595 1042.43,751.511 1042.43,747.706L1042.43,706.897C1042.43,704.393 1041.07,702.085 1038.88,700.872L908.369,628.547C908.369,628.547 908.369,575.352 908.369,575.352C908.369,575.352 1091.63,676.361 1091.63,676.361C1091.63,676.361 1091.63,891.837 1091.63,891.837C1091.63,891.837 908.369,992.552 908.369,992.552C908.369,992.552 908.369,937.353 908.369,937.353C908.369,937.353 1038.85,865.812 1038.85,865.812C1041.06,864.603 1042.43,862.287 1042.43,859.772L1042.43,810.55C1042.43,806.745 1039.34,803.661 1035.54,803.661L909.186,803.661C909.186,803.661 909.186,754.595 909.186,754.595C909.186,754.595 1035.54,754.595 1035.54,754.595Z" style="fill:rgb(200,255,48);"/>
                </g>
                <g transform="matrix(1.04276,0,0,0.542844,-1357.88,1051.65)">
                    <g transform="matrix(0.220242,0,0,0.114054,1490.94,27.343)">
                        <g transform="matrix(153.812,0,0,153.812,341.122,558.474)">
                            <path d="M0.036,-0.261C0.036,-0.344 0.058,-0.412 0.103,-0.463C0.147,-0.515 0.205,-0.541 0.276,-0.541C0.313,-0.541 0.344,-0.533 0.369,-0.518C0.394,-0.503 0.413,-0.486 0.425,-0.468L0.433,-0.468L0.433,-0.75L0.588,-0.75L0.588,-0L0.434,-0L0.434,-0.06L0.426,-0.06C0.421,-0.053 0.415,-0.045 0.408,-0.038C0.401,-0.031 0.392,-0.023 0.38,-0.015C0.369,-0.007 0.354,0 0.337,0.005C0.319,0.011 0.3,0.013 0.28,0.013C0.207,0.013 0.148,-0.012 0.103,-0.062C0.059,-0.112 0.036,-0.179 0.036,-0.261ZM0.193,-0.264C0.193,-0.223 0.204,-0.19 0.227,-0.165C0.249,-0.14 0.278,-0.127 0.315,-0.127C0.351,-0.127 0.381,-0.14 0.403,-0.166C0.425,-0.192 0.436,-0.224 0.436,-0.264C0.436,-0.306 0.425,-0.339 0.402,-0.364C0.379,-0.388 0.35,-0.401 0.314,-0.401C0.278,-0.401 0.249,-0.388 0.227,-0.363C0.204,-0.337 0.193,-0.305 0.193,-0.264Z" style="fill:rgb(200,255,48);fill-rule:nonzero;"/>
                        </g>
                        <g transform="matrix(153.812,0,0,153.812,432.754,558.474)">
                            <path d="M0.036,-0.261C0.036,-0.344 0.061,-0.411 0.111,-0.463C0.161,-0.515 0.227,-0.541 0.307,-0.541C0.349,-0.541 0.388,-0.534 0.422,-0.519C0.456,-0.504 0.483,-0.484 0.505,-0.458C0.526,-0.433 0.543,-0.404 0.554,-0.371C0.566,-0.338 0.572,-0.303 0.572,-0.266L0.572,-0.221L0.183,-0.221C0.186,-0.187 0.198,-0.16 0.221,-0.138C0.244,-0.117 0.274,-0.106 0.31,-0.106C0.339,-0.106 0.364,-0.112 0.384,-0.124C0.404,-0.136 0.419,-0.151 0.427,-0.169L0.567,-0.169C0.555,-0.113 0.526,-0.069 0.479,-0.036C0.433,-0.003 0.375,0.013 0.304,0.013C0.254,0.013 0.208,0.001 0.167,-0.022C0.126,-0.045 0.094,-0.078 0.071,-0.12C0.048,-0.162 0.036,-0.209 0.036,-0.261ZM0.186,-0.324L0.428,-0.324C0.425,-0.353 0.413,-0.376 0.391,-0.395C0.369,-0.414 0.341,-0.423 0.307,-0.423C0.275,-0.423 0.248,-0.413 0.225,-0.394C0.203,-0.374 0.19,-0.351 0.186,-0.324Z" style="fill:rgb(200,255,48);fill-rule:nonzero;"/>
                        </g>
                        <g transform="matrix(153.812,0,0,153.812,516.275,558.474)">
                            <path d="M0.016,-0.528L0.177,-0.528L0.287,-0.184L0.295,-0.184L0.405,-0.528L0.568,-0.528L0.382,-0L0.203,-0L0.016,-0.528Z" style="fill:rgb(200,255,48);fill-rule:nonzero;"/>
                        </g>
                        <g transform="matrix(153.812,0,0,153.812,595.816,558.474)">
                            <path d="M0.036,-0.261C0.036,-0.344 0.061,-0.411 0.111,-0.463C0.161,-0.515 0.227,-0.541 0.307,-0.541C0.349,-0.541 0.388,-0.534 0.422,-0.519C0.456,-0.504 0.483,-0.484 0.505,-0.458C0.526,-0.433 0.543,-0.404 0.554,-0.371C0.566,-0.338 0.572,-0.303 0.572,-0.266L0.572,-0.221L0.183,-0.221C0.186,-0.187 0.198,-0.16 0.221,-0.138C0.244,-0.117 0.274,-0.106 0.31,-0.106C0.339,-0.106 0.364,-0.112 0.384,-0.124C0.404,-0.136 0.419,-0.151 0.427,-0.169L0.567,-0.169C0.555,-0.113 0.526,-0.069 0.479,-0.036C0.433,-0.003 0.375,0.013 0.304,0.013C0.254,0.013 0.208,0.001 0.167,-0.022C0.126,-0.045 0.094,-0.078 0.071,-0.12C0.048,-0.162 0.036,-0.209 0.036,-0.261ZM0.186,-0.324L0.428,-0.324C0.425,-0.353 0.413,-0.376 0.391,-0.395C0.369,-0.414 0.341,-0.423 0.307,-0.423C0.275,-0.423 0.248,-0.413 0.225,-0.394C0.203,-0.374 0.19,-0.351 0.186,-0.324Z" style="fill:rgb(200,255,48);fill-rule:nonzero;"/>
                        </g>
                        <g transform="matrix(153.812,0,0,153.812,681.815,558.474)">
                            <path d="M0.066,-0.166L0.066,-0.75L0.221,-0.75L0.221,-0.184C0.221,-0.152 0.236,-0.136 0.265,-0.136L0.284,-0.136L0.284,-0L0.231,-0C0.179,-0 0.138,-0.015 0.109,-0.044C0.08,-0.073 0.066,-0.114 0.066,-0.166Z" style="fill:rgb(200,255,48);fill-rule:nonzero;"/>
                        </g>
                        <g transform="matrix(153.812,0,0,153.812,723.278,558.474)">
                            <path d="M0.036,-0.264C0.036,-0.303 0.043,-0.339 0.057,-0.373C0.071,-0.407 0.09,-0.436 0.114,-0.461C0.139,-0.486 0.169,-0.505 0.204,-0.52C0.24,-0.534 0.279,-0.541 0.321,-0.541C0.404,-0.541 0.472,-0.515 0.525,-0.462C0.578,-0.409 0.605,-0.343 0.605,-0.264C0.605,-0.225 0.598,-0.189 0.584,-0.155C0.57,-0.121 0.551,-0.092 0.526,-0.067C0.502,-0.042 0.471,-0.023 0.436,-0.008C0.4,0.006 0.361,0.013 0.32,0.013C0.265,0.013 0.216,0.001 0.172,-0.024C0.129,-0.048 0.095,-0.082 0.072,-0.124C0.048,-0.166 0.036,-0.212 0.036,-0.264ZM0.193,-0.264C0.193,-0.224 0.205,-0.191 0.229,-0.165C0.253,-0.14 0.283,-0.127 0.32,-0.127C0.357,-0.127 0.388,-0.14 0.412,-0.166C0.436,-0.191 0.448,-0.224 0.448,-0.264C0.448,-0.304 0.436,-0.337 0.412,-0.363C0.388,-0.388 0.357,-0.401 0.32,-0.401C0.283,-0.401 0.253,-0.388 0.229,-0.363C0.205,-0.337 0.193,-0.304 0.193,-0.264Z" style="fill:rgb(200,255,48);fill-rule:nonzero;"/>
                        </g>
                        <g transform="matrix(153.812,0,0,153.812,815.661,558.474)">
                            <path d="M0.066,0.23L0.066,-0.528L0.219,-0.528L0.219,-0.469L0.227,-0.469C0.232,-0.476 0.237,-0.484 0.245,-0.491C0.252,-0.498 0.261,-0.506 0.273,-0.514C0.284,-0.522 0.299,-0.528 0.317,-0.533C0.334,-0.538 0.354,-0.541 0.374,-0.541C0.446,-0.541 0.505,-0.516 0.55,-0.466C0.595,-0.416 0.617,-0.35 0.617,-0.267C0.617,-0.184 0.595,-0.117 0.551,-0.065C0.507,-0.013 0.449,0.013 0.378,0.013C0.351,0.013 0.327,0.009 0.305,0C0.283,-0.008 0.267,-0.018 0.256,-0.028C0.245,-0.038 0.236,-0.049 0.229,-0.06L0.221,-0.06L0.221,0.23L0.066,0.23ZM0.218,-0.264C0.218,-0.222 0.229,-0.189 0.251,-0.164C0.274,-0.139 0.303,-0.127 0.339,-0.127C0.375,-0.127 0.404,-0.14 0.426,-0.165C0.449,-0.19 0.46,-0.223 0.46,-0.264C0.46,-0.306 0.449,-0.339 0.427,-0.364C0.404,-0.388 0.375,-0.401 0.339,-0.401C0.302,-0.401 0.273,-0.388 0.251,-0.363C0.229,-0.337 0.218,-0.304 0.218,-0.264Z" style="fill:rgb(200,255,48);fill-rule:nonzero;"/>
                        </g>
                        <g transform="matrix(153.812,0,0,153.812,909.922,558.474)">
                            <path d="M0.036,-0.261C0.036,-0.344 0.061,-0.411 0.111,-0.463C0.161,-0.515 0.227,-0.541 0.307,-0.541C0.349,-0.541 0.388,-0.534 0.422,-0.519C0.456,-0.504 0.483,-0.484 0.505,-0.458C0.526,-0.433 0.543,-0.404 0.554,-0.371C0.566,-0.338 0.572,-0.303 0.572,-0.266L0.572,-0.221L0.183,-0.221C0.186,-0.187 0.198,-0.16 0.221,-0.138C0.244,-0.117 0.274,-0.106 0.31,-0.106C0.339,-0.106 0.364,-0.112 0.384,-0.124C0.404,-0.136 0.419,-0.151 0.427,-0.169L0.567,-0.169C0.555,-0.113 0.526,-0.069 0.479,-0.036C0.433,-0.003 0.375,0.013 0.304,0.013C0.254,0.013 0.208,0.001 0.167,-0.022C0.126,-0.045 0.094,-0.078 0.071,-0.12C0.048,-0.162 0.036,-0.209 0.036,-0.261ZM0.186,-0.324L0.428,-0.324C0.425,-0.353 0.413,-0.376 0.391,-0.395C0.369,-0.414 0.341,-0.423 0.307,-0.423C0.275,-0.423 0.248,-0.413 0.225,-0.394C0.203,-0.374 0.19,-0.351 0.186,-0.324Z" style="fill:rgb(200,255,48);fill-rule:nonzero;"/>
                        </g>
                        <g transform="matrix(153.812,0,0,153.812,997.274,558.474)">
                            <path d="M0.066,-0L0.066,-0.528L0.212,-0.528L0.212,-0.448L0.22,-0.448C0.231,-0.471 0.248,-0.49 0.271,-0.507C0.295,-0.524 0.323,-0.532 0.356,-0.532L0.407,-0.532L0.407,-0.386L0.346,-0.386C0.308,-0.386 0.277,-0.373 0.255,-0.347C0.232,-0.321 0.221,-0.285 0.221,-0.24L0.221,-0L0.066,-0Z" style="fill:rgb(200,255,48);fill-rule:nonzero;"/>
                        </g>
                        <g transform="matrix(153.812,0,0,153.812,1059.24,558.474)">
                            <path d="M0.036,-0.162L0.177,-0.162C0.179,-0.144 0.187,-0.13 0.202,-0.12C0.217,-0.111 0.237,-0.106 0.263,-0.106C0.289,-0.106 0.309,-0.11 0.323,-0.119C0.337,-0.128 0.344,-0.14 0.344,-0.155C0.344,-0.166 0.34,-0.175 0.331,-0.182C0.323,-0.189 0.311,-0.194 0.298,-0.197C0.284,-0.2 0.268,-0.203 0.25,-0.206C0.232,-0.209 0.214,-0.212 0.195,-0.214C0.176,-0.217 0.158,-0.222 0.14,-0.229C0.122,-0.237 0.106,-0.246 0.093,-0.256C0.079,-0.267 0.067,-0.282 0.059,-0.302C0.05,-0.323 0.046,-0.346 0.046,-0.373C0.046,-0.42 0.065,-0.46 0.104,-0.492C0.142,-0.525 0.195,-0.541 0.263,-0.541C0.326,-0.541 0.377,-0.526 0.416,-0.497C0.455,-0.468 0.477,-0.427 0.48,-0.373L0.346,-0.373C0.344,-0.39 0.335,-0.403 0.321,-0.412C0.307,-0.422 0.288,-0.427 0.263,-0.427C0.24,-0.427 0.221,-0.422 0.207,-0.414C0.193,-0.405 0.186,-0.394 0.186,-0.38C0.186,-0.371 0.19,-0.363 0.197,-0.358C0.204,-0.352 0.213,-0.348 0.225,-0.345C0.237,-0.342 0.25,-0.339 0.266,-0.338C0.281,-0.336 0.298,-0.334 0.314,-0.331C0.331,-0.328 0.348,-0.325 0.365,-0.322C0.383,-0.318 0.399,-0.312 0.414,-0.304C0.43,-0.296 0.443,-0.286 0.455,-0.275C0.467,-0.264 0.477,-0.248 0.484,-0.229C0.491,-0.21 0.494,-0.188 0.494,-0.163C0.494,-0.111 0.474,-0.068 0.433,-0.036C0.392,-0.003 0.335,0.013 0.262,0.013C0.188,0.013 0.133,-0.002 0.095,-0.033C0.057,-0.064 0.038,-0.107 0.036,-0.162Z" style="fill:rgb(200,255,48);fill-rule:nonzero;"/>
                        </g>
                        <g transform="matrix(153.812,0,0,153.812,1134.73,558.474)">
                            <path d="M0.066,-0L0.066,-0.75L0.221,-0.75L0.221,-0.468L0.229,-0.468C0.241,-0.486 0.26,-0.503 0.284,-0.518C0.309,-0.533 0.34,-0.541 0.378,-0.541C0.449,-0.541 0.507,-0.515 0.551,-0.463C0.595,-0.412 0.617,-0.344 0.617,-0.261C0.617,-0.179 0.595,-0.112 0.55,-0.062C0.505,-0.012 0.446,0.013 0.374,0.013C0.354,0.013 0.334,0.011 0.317,0.005C0.299,0 0.284,-0.007 0.273,-0.015C0.261,-0.023 0.252,-0.031 0.245,-0.038C0.237,-0.045 0.232,-0.053 0.227,-0.06L0.219,-0.06L0.219,-0L0.066,-0ZM0.218,-0.264C0.218,-0.224 0.229,-0.192 0.251,-0.166C0.273,-0.14 0.302,-0.127 0.339,-0.127C0.375,-0.127 0.404,-0.14 0.426,-0.165C0.449,-0.19 0.46,-0.223 0.46,-0.264C0.46,-0.305 0.449,-0.337 0.426,-0.363C0.404,-0.388 0.375,-0.401 0.339,-0.401C0.303,-0.401 0.274,-0.389 0.251,-0.364C0.229,-0.339 0.218,-0.306 0.218,-0.264Z" style="fill:rgb(200,255,48);fill-rule:nonzero;"/>
                        </g>
                        <g transform="matrix(153.812,0,0,153.812,1228.99,558.474)">
                            <path d="M0.036,-0.261C0.036,-0.344 0.058,-0.412 0.103,-0.463C0.147,-0.515 0.205,-0.541 0.276,-0.541C0.313,-0.541 0.344,-0.533 0.369,-0.518C0.394,-0.503 0.413,-0.486 0.425,-0.468L0.433,-0.468L0.433,-0.528L0.588,-0.528L0.588,-0L0.434,-0L0.434,-0.06L0.426,-0.06C0.421,-0.053 0.415,-0.045 0.408,-0.038C0.401,-0.031 0.392,-0.023 0.38,-0.015C0.369,-0.007 0.354,0 0.337,0.005C0.319,0.011 0.3,0.013 0.28,0.013C0.207,0.013 0.148,-0.012 0.103,-0.062C0.059,-0.112 0.036,-0.179 0.036,-0.261ZM0.193,-0.264C0.193,-0.223 0.204,-0.19 0.227,-0.165C0.249,-0.14 0.278,-0.127 0.315,-0.127C0.351,-0.127 0.381,-0.14 0.403,-0.166C0.425,-0.192 0.436,-0.224 0.436,-0.264C0.436,-0.306 0.425,-0.339 0.402,-0.364C0.379,-0.388 0.35,-0.401 0.314,-0.401C0.278,-0.401 0.249,-0.388 0.227,-0.363C0.204,-0.337 0.193,-0.305 0.193,-0.264Z" style="fill:rgb(200,255,48);fill-rule:nonzero;"/>
                        </g>
                        <g transform="matrix(153.812,0,0,153.812,1320.62,558.474)">
                            <path d="M0.066,-0L0.066,-0.528L0.212,-0.528L0.212,-0.47L0.22,-0.47C0.232,-0.49 0.25,-0.507 0.275,-0.521C0.3,-0.534 0.329,-0.541 0.362,-0.541C0.419,-0.541 0.465,-0.523 0.5,-0.488C0.534,-0.453 0.551,-0.408 0.551,-0.352L0.551,-0L0.396,-0L0.396,-0.304C0.396,-0.332 0.388,-0.354 0.373,-0.371C0.358,-0.388 0.337,-0.397 0.311,-0.397C0.284,-0.397 0.263,-0.387 0.246,-0.368C0.229,-0.349 0.221,-0.325 0.221,-0.296L0.221,-0L0.066,-0Z" style="fill:rgb(200,255,48);fill-rule:nonzero;"/>
                        </g>
                        <g transform="matrix(153.812,0,0,153.812,1406.69,558.474)">
                            <path d="M0.066,-0L0.066,-0.75L0.221,-0.75L0.221,-0.348L0.227,-0.348L0.377,-0.528L0.568,-0.528L0.398,-0.338L0.581,-0L0.407,-0L0.291,-0.219L0.221,-0.141L0.221,-0L0.066,-0Z" style="fill:rgb(200,255,48);fill-rule:nonzero;"/>
                        </g>
                    </g>
                    <g transform="matrix(0.141777,0,0,0.0734203,1612.58,38.051)">
                        <g transform="matrix(68.5523,0,0,68.5523,920,792)">
                            <path d="M0.08,-0.256L0.08,-0.7L0.188,-0.7L0.188,-0.257C0.188,-0.204 0.202,-0.162 0.23,-0.132C0.258,-0.102 0.298,-0.087 0.35,-0.087C0.402,-0.087 0.442,-0.102 0.47,-0.132C0.498,-0.163 0.512,-0.204 0.512,-0.258L0.512,-0.7L0.619,-0.7L0.619,-0.257C0.619,-0.175 0.595,-0.11 0.547,-0.061C0.498,-0.011 0.433,0.013 0.35,0.013C0.266,0.013 0.2,-0.011 0.152,-0.06C0.104,-0.109 0.08,-0.174 0.08,-0.256Z" style="fill:rgb(200,255,48);fill-rule:nonzero;"/>
                        </g>
                        <g transform="matrix(68.5523,0,0,68.5523,967.9,792)">
                            <path d="M0.089,-0L0.089,-0.7L0.204,-0.7L0.536,-0.182L0.542,-0.182L0.542,-0.7L0.647,-0.7L0.647,-0L0.531,-0L0.201,-0.518L0.195,-0.518L0.195,-0L0.089,-0Z" style="fill:rgb(200,255,48);fill-rule:nonzero;"/>
                        </g>
                        <g transform="matrix(68.5523,0,0,68.5523,1018.41,792)">
                            <rect x="0.089" y="-0.7" width="0.108" height="0.7" style="fill:rgb(200,255,48);fill-rule:nonzero;"/>
                        </g>
                        <g transform="matrix(68.5523,0,0,68.5523,1037.99,792)">
                            <path d="M0.089,-0L0.089,-0.7L0.215,-0.7L0.458,-0.136L0.464,-0.136L0.686,-0.7L0.811,-0.7L0.811,-0L0.707,-0L0.707,-0.479L0.701,-0.479L0.511,-0L0.407,-0L0.199,-0.484L0.193,-0.484L0.193,-0L0.089,-0Z" style="fill:rgb(200,255,48);fill-rule:nonzero;"/>
                        </g>
                        <g transform="matrix(68.5523,0,0,68.5523,1099.68,792)">
                            <path d="M0.018,-0L0.277,-0.7L0.408,-0.7L0.668,-0L0.554,-0L0.499,-0.152L0.184,-0.152L0.129,-0L0.018,-0ZM0.218,-0.249L0.465,-0.249L0.345,-0.579L0.338,-0.579L0.218,-0.249Z" style="fill:rgb(200,255,48);fill-rule:nonzero;"/>
                        </g>
                        <g transform="matrix(68.5523,0,0,68.5523,1145.1,792)">
                            <path d="M0.046,-0.35C0.046,-0.418 0.061,-0.48 0.092,-0.535C0.123,-0.59 0.167,-0.634 0.222,-0.665C0.278,-0.697 0.341,-0.713 0.41,-0.713C0.493,-0.713 0.564,-0.691 0.623,-0.647C0.683,-0.603 0.724,-0.546 0.745,-0.476L0.626,-0.476C0.609,-0.517 0.581,-0.55 0.544,-0.574C0.507,-0.599 0.462,-0.611 0.41,-0.611C0.336,-0.611 0.275,-0.586 0.228,-0.537C0.182,-0.488 0.158,-0.425 0.158,-0.35C0.158,-0.274 0.182,-0.211 0.229,-0.162C0.275,-0.113 0.336,-0.088 0.411,-0.088C0.475,-0.088 0.529,-0.106 0.573,-0.143C0.617,-0.179 0.641,-0.226 0.645,-0.282L0.393,-0.282L0.393,-0.373L0.765,-0.373L0.765,-0.364C0.765,-0.306 0.757,-0.254 0.739,-0.207C0.721,-0.158 0.696,-0.117 0.664,-0.085C0.632,-0.054 0.594,-0.029 0.551,-0.012C0.507,0.005 0.461,0.013 0.41,0.013C0.358,0.013 0.31,0.004 0.265,-0.014C0.219,-0.033 0.181,-0.058 0.149,-0.09C0.117,-0.122 0.091,-0.161 0.073,-0.206C0.055,-0.25 0.046,-0.299 0.046,-0.35Z" style="fill:rgb(200,255,48);fill-rule:nonzero;"/>
                        </g>
                        <g transform="matrix(68.5523,0,0,68.5523,1200.74,792)">
                            <path d="M0.089,-0L0.089,-0.7L0.311,-0.7C0.384,-0.7 0.447,-0.685 0.501,-0.655C0.555,-0.625 0.596,-0.584 0.624,-0.532C0.651,-0.48 0.665,-0.419 0.665,-0.351C0.665,-0.242 0.634,-0.156 0.571,-0.094C0.509,-0.031 0.422,-0 0.311,-0L0.089,-0ZM0.197,-0.094L0.309,-0.094C0.383,-0.094 0.443,-0.116 0.488,-0.161C0.533,-0.205 0.555,-0.268 0.555,-0.351C0.555,-0.431 0.533,-0.493 0.488,-0.538C0.443,-0.583 0.384,-0.605 0.309,-0.605L0.197,-0.605L0.197,-0.094Z" style="fill:rgb(200,255,48);fill-rule:nonzero;"/>
                        </g>
                        <g transform="matrix(68.5523,0,0,68.5523,1248.03,792)">
                            <path d="M0.018,-0L0.277,-0.7L0.408,-0.7L0.668,-0L0.554,-0L0.499,-0.152L0.184,-0.152L0.129,-0L0.018,-0ZM0.218,-0.249L0.465,-0.249L0.345,-0.579L0.338,-0.579L0.218,-0.249Z" style="fill:rgb(200,255,48);fill-rule:nonzero;"/>
                        </g>
                        <g transform="matrix(68.5523,0,0,68.5523,1294.96,792)">
                            <path d="M0.089,-0L0.089,-0.7L0.197,-0.7L0.197,-0.096L0.489,-0.096L0.489,-0L0.089,-0Z" style="fill:rgb(200,255,48);fill-rule:nonzero;"/>
                        </g>
                        <g transform="matrix(68.5523,0,0,68.5523,1331.55,792)">
                            <path d="M0.089,-0L0.089,-0.7L0.504,-0.7L0.504,-0.605L0.197,-0.605L0.197,-0.402L0.46,-0.402L0.46,-0.308L0.197,-0.308L0.197,-0.094L0.514,-0.094L0.514,-0L0.089,-0Z" style="fill:rgb(200,255,48);fill-rule:nonzero;"/>
                        </g>
                        <g transform="matrix(68.5523,0,0,68.5523,1369.97,792)">
                            <path d="M0.089,-0L0.089,-0.7L0.204,-0.7L0.536,-0.182L0.542,-0.182L0.542,-0.7L0.647,-0.7L0.647,-0L0.531,-0L0.201,-0.518L0.195,-0.518L0.195,-0L0.089,-0Z" style="fill:rgb(200,255,48);fill-rule:nonzero;"/>
                        </g>
                        <g transform="matrix(68.5523,0,0,68.5523,1420.49,792)">
                            <path d="M0.018,-0L0.277,-0.7L0.408,-0.7L0.668,-0L0.554,-0L0.499,-0.152L0.184,-0.152L0.129,-0L0.018,-0ZM0.218,-0.249L0.465,-0.249L0.345,-0.579L0.338,-0.579L0.218,-0.249Z" style="fill:rgb(200,255,48);fill-rule:nonzero;"/>
                        </g>
                    </g>
                </g>
            </g>
        </g>
    </g>
</svg>
