<?xml version="1.0" encoding="UTF-8" standalone="no"?>
<!DOCTYPE svg PUBLIC "-//W3C//DTD SVG 1.1//EN" "http://www.w3.org/Graphics/SVG/1.1/DTD/svg11.dtd">
<svg width="100%" height="100%" viewBox="0 0 61 63" version="1.1" xmlns="http://www.w3.org/2000/svg" xmlns:xlink="http://www.w3.org/1999/xlink" xml:space="preserve" xmlns:serif="http://www.serif.com/" style="fill-rule:evenodd;clip-rule:evenodd;stroke-linejoin:round;stroke-miterlimit:2;">
    <g transform="matrix(1,0,0,1,-2200,-4934)">
        <g transform="matrix(1.33333,0,0,4.94583,1865.37,39)">
            <g transform="matrix(0.101846,0,0,0.0274563,183.931,974.602)">
                <path d="M868.843,1004.2L868.843,933.273L734.785,859.772L734.785,706.897L868.843,632.606L868.843,563.689L671.802,672.292L671.802,895.912L868.843,1004.2Z" style="fill:rgb(200,255,48);"/>
                <path d="M865.525,1010.24C867.659,1011.41 870.254,1011.37 872.35,1010.13C874.446,1008.89 875.731,1006.63 875.731,1004.2L875.731,933.273C875.731,930.758 874.36,928.442 872.154,927.233L741.674,855.692C741.674,855.692 741.674,710.955 741.674,710.955C741.674,710.955 872.182,638.631 872.182,638.631C874.372,637.417 875.731,635.11 875.731,632.606L875.731,563.689C875.731,561.253 874.444,558.997 872.346,557.758C870.248,556.519 867.651,556.48 865.517,557.656L668.477,666.259C666.278,667.471 664.913,669.782 664.913,672.292L664.913,895.912C664.913,898.425 666.282,900.739 668.484,901.949L865.525,1010.24ZM861.954,992.552L678.691,891.837C678.691,891.837 678.691,676.361 678.691,676.361C678.691,676.361 861.954,575.352 861.954,575.352C861.954,575.352 861.954,628.547 861.954,628.547C861.954,628.547 731.445,700.872 731.445,700.872C729.255,702.085 727.896,704.393 727.896,706.897L727.896,859.772C727.896,862.287 729.267,864.603 731.473,865.812L861.954,937.353L861.954,992.552Z" style="fill:rgb(200,255,48);"/>
                <path d="M1035.54,747.706L1035.54,706.897L901.48,632.606L901.48,563.689L1098.52,672.292L1098.52,895.912L901.48,1004.2L901.48,933.273L1035.54,859.772L1035.54,810.55L902.297,810.55L902.297,747.706L1035.54,747.706Z" style="fill:rgb(200,255,48);"/>
                <path d="M1028.65,740.817L902.297,740.817C898.492,740.817 895.408,743.901 895.408,747.706L895.408,810.55C895.408,814.354 898.492,817.438 902.297,817.438L1028.65,817.438C1028.65,817.439 1028.65,855.692 1028.65,855.692C1028.65,855.692 898.168,927.233 898.168,927.233C895.962,928.442 894.591,930.758 894.591,933.273L894.591,1004.2C894.591,1006.63 895.877,1008.89 897.973,1010.13C900.069,1011.37 902.664,1011.41 904.798,1010.24L1101.84,901.949C1104.04,900.739 1105.41,898.425 1105.41,895.912L1105.41,672.292C1105.41,669.782 1104.04,667.471 1101.85,666.259L904.805,557.656C902.671,556.48 900.074,556.519 897.976,557.758C895.878,558.997 894.591,561.253 894.591,563.689L894.591,632.606C894.591,635.11 895.95,637.417 898.141,638.631L1028.65,710.955L1028.65,740.817ZM1035.54,754.595C1039.34,754.595 1042.43,751.511 1042.43,747.706L1042.43,706.897C1042.43,704.393 1041.07,702.085 1038.88,700.872L908.369,628.547C908.369,628.547 908.369,575.352 908.369,575.352C908.369,575.352 1091.63,676.361 1091.63,676.361C1091.63,676.361 1091.63,891.837 1091.63,891.837C1091.63,891.837 908.369,992.552 908.369,992.552C908.369,992.552 908.369,937.353 908.369,937.353C908.369,937.353 1038.85,865.812 1038.85,865.812C1041.06,864.603 1042.43,862.287 1042.43,859.772L1042.43,810.55C1042.43,806.745 1039.34,803.661 1035.54,803.661L909.186,803.661C909.186,803.661 909.186,754.595 909.186,754.595C909.186,754.595 1035.54,754.595 1035.54,754.595Z" style="fill:rgb(200,255,48);"/>
            </g>
        </g>
    </g>
</svg>
