<?xml version="1.0" encoding="UTF-8" standalone="no"?>
<!DOCTYPE svg PUBLIC "-//W3C//DTD SVG 1.1//EN" "http://www.w3.org/Graphics/SVG/1.1/DTD/svg11.dtd">
<svg width="100%" height="100%" viewBox="0 0 79 91" version="1.1" xmlns="http://www.w3.org/2000/svg" xmlns:xlink="http://www.w3.org/1999/xlink" xml:space="preserve" xmlns:serif="http://www.serif.com/" style="fill-rule:evenodd;clip-rule:evenodd;stroke-linejoin:round;stroke-miterlimit:2;">
    <g transform="matrix(1,0,0,1,-2494,-1852)">
        <g transform="matrix(1.33333,0,0,3.98333,1821.37,39)">
            <g transform="matrix(0.131349,0,0,0.0439662,500.743,455.355)">
                <path d="M387.848,76.99L471.889,76.99C476.033,76.99 479.393,73.631 479.393,69.486C479.393,65.342 476.034,61.982 471.889,61.982L387.848,61.982C383.705,61.982 380.344,65.341 380.344,69.486C380.345,73.631 383.705,76.99 387.848,76.99Z" style="fill:rgb(200,255,48);fill-rule:nonzero;"/>
                <path d="M471.89,92.58L387.849,92.58C383.706,92.58 380.345,95.939 380.345,100.084C380.345,104.229 383.705,107.588 387.849,107.588L471.89,107.588C476.034,107.588 479.394,104.229 479.394,100.084C479.394,95.939 476.034,92.58 471.89,92.58Z" style="fill:rgb(200,255,48);fill-rule:nonzero;"/>
                <path d="M471.89,177.015L387.849,177.015C383.706,177.015 380.345,180.374 380.345,184.519C380.345,188.663 383.705,192.023 387.849,192.023L471.89,192.023C476.034,192.023 479.394,188.664 479.394,184.519C479.394,180.374 476.034,177.015 471.89,177.015Z" style="fill:rgb(200,255,48);fill-rule:nonzero;"/>
                <path d="M471.89,207.612L387.849,207.612C383.706,207.612 380.345,210.971 380.345,215.116C380.345,219.26 383.705,222.62 387.849,222.62L471.89,222.62C476.034,222.62 479.394,219.261 479.394,215.116C479.394,210.972 476.034,207.612 471.89,207.612Z" style="fill:rgb(200,255,48);fill-rule:nonzero;"/>
                <path d="M471.89,292.047L387.849,292.047C383.706,292.047 380.345,295.406 380.345,299.551C380.345,303.696 383.705,307.055 387.849,307.055L471.89,307.055C476.034,307.055 479.394,303.696 479.394,299.551C479.394,295.406 476.034,292.047 471.89,292.047Z" style="fill:rgb(200,255,48);fill-rule:nonzero;"/>
                <path d="M471.89,322.645L387.849,322.645C383.706,322.645 380.345,326.004 380.345,330.149C380.345,334.293 383.705,337.653 387.849,337.653L471.89,337.653C476.034,337.653 479.394,334.293 479.394,330.149C479.394,326.004 476.034,322.645 471.89,322.645Z" style="fill:rgb(200,255,48);fill-rule:nonzero;"/>
                <path d="M354.443,41.348L343.658,52.494C341.176,46.202 335.05,41.731 327.886,41.731L275.698,41.731C266.346,41.731 258.738,49.339 258.738,58.691L258.738,110.879C258.738,120.231 266.346,127.839 275.698,127.839L278.011,127.839C282.155,127.839 285.515,124.48 285.515,120.335C285.515,116.191 282.156,112.831 278.011,112.831L275.698,112.831C274.622,112.831 273.745,111.956 273.745,110.878L273.745,58.691C273.745,57.613 274.621,56.738 275.698,56.738L327.886,56.738C328.963,56.738 329.84,57.613 329.84,58.691L329.84,66.773L311.79,85.427L298.834,72.36C295.915,69.416 291.164,69.397 288.222,72.314C285.28,75.232 285.26,79.983 288.176,82.926L302.32,97.191C304.848,99.742 308.212,101.144 311.801,101.144L311.884,101.144C315.503,101.122 318.883,99.677 321.4,97.076L329.839,88.356L329.839,110.881C329.839,111.958 328.963,112.834 327.885,112.834L312.36,112.834C308.216,112.834 304.856,116.194 304.856,120.338C304.856,124.483 308.215,127.842 312.36,127.842L327.885,127.842C337.237,127.842 344.845,120.234 344.845,110.882L344.845,72.846L365.228,51.784C368.109,48.806 368.031,44.056 365.053,41.174C362.075,38.292 357.324,38.37 354.443,41.348Z" style="fill:rgb(200,255,48);fill-rule:nonzero;"/>
                <path d="M354.443,156.381L343.658,167.527C341.176,161.235 335.05,156.764 327.886,156.764L275.698,156.764C266.346,156.764 258.738,164.372 258.738,173.724L258.738,225.912C258.738,235.264 266.346,242.872 275.698,242.872L327.886,242.872C337.238,242.872 344.846,235.264 344.846,225.912L344.846,187.879L365.228,166.817C368.109,163.84 368.031,159.089 365.053,156.208C362.074,153.324 357.324,153.403 354.443,156.381ZM329.839,181.806L311.789,200.459L298.834,187.392C295.916,184.448 291.165,184.429 288.222,187.346C285.28,190.264 285.26,195.015 288.176,197.958L302.32,212.223C304.848,214.774 308.212,216.176 311.801,216.176L311.884,216.176C315.503,216.154 318.883,214.709 321.4,212.108L329.839,203.388L329.839,225.913C329.839,226.99 328.963,227.866 327.885,227.866L275.697,227.866C274.621,227.866 273.744,226.991 273.744,225.913L273.744,173.725C273.744,172.647 274.62,171.772 275.697,171.772L327.885,171.772C328.962,171.772 329.839,172.647 329.839,173.725L329.839,181.806Z" style="fill:rgb(200,255,48);fill-rule:nonzero;"/>
                <path d="M354.443,271.413L343.657,282.558C341.175,276.266 335.049,271.795 327.885,271.795L275.697,271.795C266.345,271.795 258.737,279.403 258.737,288.755L258.737,340.943C258.737,350.295 266.345,357.903 275.697,357.903L327.885,357.903C337.237,357.903 344.845,350.295 344.845,340.943L344.845,302.91L365.227,281.848C368.108,278.87 368.03,274.12 365.052,271.238C362.074,268.356 357.324,268.435 354.443,271.413ZM329.839,296.838L311.789,315.491L298.833,302.424C295.915,299.48 291.164,299.461 288.221,302.378C285.279,305.296 285.259,310.047 288.175,312.99L302.319,327.256C304.847,329.807 308.211,331.208 311.799,331.208L311.883,331.208C315.502,331.186 318.881,329.741 321.398,327.141L329.837,318.421L329.837,340.946C329.837,342.023 328.961,342.899 327.883,342.899L275.695,342.899C274.619,342.899 273.742,342.023 273.742,340.946L273.742,288.758C273.742,287.681 274.618,286.805 275.695,286.805L327.883,286.805C328.96,286.805 329.837,287.68 329.837,288.758L329.837,296.838L329.839,296.838Z" style="fill:rgb(200,255,48);fill-rule:nonzero;"/>
                <path d="M354.443,386.444L343.657,397.591C341.175,391.298 335.049,386.828 327.885,386.828L275.697,386.828C266.345,386.828 258.737,394.436 258.737,403.788L258.737,455.976C258.737,465.328 266.345,472.936 275.697,472.936L327.885,472.936C337.237,472.936 344.845,465.328 344.845,455.976L344.845,417.943L365.227,396.881C368.108,393.903 368.03,389.153 365.052,386.271C362.074,383.388 357.324,383.466 354.443,386.444ZM329.839,411.871L311.789,430.524L298.833,417.457C295.915,414.513 291.164,414.494 288.221,417.41C285.279,420.328 285.259,425.079 288.175,428.022L302.321,442.288C304.849,444.838 308.213,446.239 311.801,446.239L311.885,446.239C315.504,446.217 318.883,444.772 321.4,442.172L329.839,433.452L329.839,455.977C329.839,457.053 328.963,457.93 327.885,457.93L275.697,457.93C274.621,457.93 273.744,457.054 273.744,455.977L273.744,403.789C273.744,402.712 274.62,401.835 275.697,401.835L327.885,401.835C328.962,401.835 329.839,402.711 329.839,403.789L329.839,411.871Z" style="fill:rgb(200,255,48);fill-rule:nonzero;"/>
                <path d="M471.89,407.08L387.849,407.08C383.706,407.08 380.345,410.439 380.345,414.584C380.345,418.728 383.705,422.088 387.849,422.088L471.89,422.088C476.034,422.088 479.394,418.728 479.394,414.584C479.394,410.439 476.034,407.08 471.89,407.08Z" style="fill:rgb(200,255,48);fill-rule:nonzero;"/>
                <path d="M471.89,437.677L387.849,437.677C383.706,437.677 380.345,441.036 380.345,445.181C380.345,449.324 383.705,452.684 387.849,452.684L471.89,452.684C476.034,452.684 479.394,449.325 479.394,445.181C479.394,441.036 476.034,437.677 471.89,437.677Z" style="fill:rgb(200,255,48);fill-rule:nonzero;"/>
                <path d="M164.04,148.493C162.989,148.177 162.257,147.161 162.257,146.02L162.257,139.816C188.041,128.559 206.115,102.827 206.115,72.94C206.115,32.721 173.394,0 133.174,0C92.953,0 60.233,32.721 60.233,72.94C60.233,103.965 79.711,130.511 107.074,141.035L107.074,146.019C107.074,147.16 106.34,148.176 105.29,148.492C84.707,154.668 66.202,167.558 53.184,184.789C39.722,202.608 32.605,223.86 32.605,246.25L32.605,269.005C32.605,273.149 35.964,276.509 40.109,276.509C44.254,276.509 47.613,273.15 47.613,269.005L47.613,246.25C47.613,227.153 53.68,209.028 65.157,193.836C76.268,179.132 92.051,168.132 109.603,162.866C116.95,160.661 122.08,153.734 122.08,146.019L122.08,145.039C125.698,145.594 129.403,145.881 133.174,145.881C137.989,145.881 142.692,145.4 147.249,144.505L147.249,146.019C147.249,153.733 152.38,160.66 159.727,162.866C177.278,168.132 193.063,179.132 204.173,193.836C215.65,209.028 221.717,227.153 221.717,246.25L221.717,321.803C221.717,329.315 215.606,335.426 208.094,335.426C200.444,335.426 194.22,329.315 194.22,321.803L194.145,236.405C194.145,232.261 190.786,228.901 186.641,228.901C182.497,228.901 179.138,232.26 179.138,236.405L179.138,478.516C179.138,488.703 170.85,496.991 160.662,496.991C150.476,496.991 142.187,488.703 142.187,478.516L142.187,337.622C142.187,333.478 138.828,330.119 134.685,330.118C130.541,330.118 127.182,333.476 127.181,337.62L127.145,478.517C127.145,488.704 118.857,496.992 108.67,496.992C98.483,496.992 90.195,488.704 90.195,478.517L90.195,235.077C90.195,230.933 86.835,227.573 82.691,227.573C78.546,227.573 75.187,230.932 75.187,235.077L75.163,321.803C75.163,329.188 68.786,335.426 61.237,335.426C53.725,335.426 47.614,329.315 47.614,321.803L47.614,303.022C47.614,298.878 44.255,295.518 40.11,295.518C35.965,295.518 32.606,298.877 32.606,303.022L32.606,321.803C32.606,337.59 45.45,350.434 61.236,350.434C66.291,350.434 71.046,349.141 75.186,346.877L75.186,478.517C75.186,496.98 90.207,512 108.669,512C119.149,512 128.522,507.159 134.666,499.597C140.81,507.16 150.182,512 160.662,512C179.126,512 194.145,496.98 194.145,478.517L194.145,346.863C198.284,349.135 203.038,350.434 208.095,350.434C223.882,350.434 236.725,337.591 236.725,321.803L236.725,246.25C236.725,223.861 229.609,202.608 216.147,184.789C203.127,167.559 184.622,154.669 164.04,148.493ZM133.174,130.874C101.229,130.874 75.24,104.885 75.24,72.94C75.24,40.996 101.229,15.007 133.174,15.007C165.118,15.007 191.107,40.996 191.107,72.94C191.107,104.885 165.118,130.874 133.174,130.874Z" style="fill:rgb(200,255,48);fill-rule:nonzero;"/>
                <path d="M152.458,91.046C149.16,88.538 144.452,89.177 141.942,92.475C140.136,94.85 137.393,96.211 134.417,96.211C131.427,96.211 128.677,94.839 126.872,92.446C124.376,89.138 119.672,88.48 116.362,90.976C113.054,93.473 112.395,98.178 114.892,101.486C119.559,107.671 126.675,111.218 134.417,111.218C142.121,111.218 149.218,107.699 153.886,101.562C156.397,98.263 155.756,93.555 152.458,91.046Z" style="fill:rgb(200,255,48);fill-rule:nonzero;"/>
            </g>
        </g>
    </g>
</svg>
