<?xml version="1.0" encoding="UTF-8" standalone="no"?>
<!DOCTYPE svg PUBLIC "-//W3C//DTD SVG 1.1//EN" "http://www.w3.org/Graphics/SVG/1.1/DTD/svg11.dtd">
<svg width="100%" height="100%" viewBox="0 0 65 76" version="1.1" xmlns="http://www.w3.org/2000/svg" xmlns:xlink="http://www.w3.org/1999/xlink" xml:space="preserve" xmlns:serif="http://www.serif.com/" style="fill-rule:evenodd;clip-rule:evenodd;stroke-linejoin:round;stroke-miterlimit:2;">
    <g transform="matrix(1,0,0,1,-2509,-2368)">
        <g transform="matrix(1.33333,0,0,3.98333,1821.37,39)">
            <g transform="matrix(0.0572395,0,0,0.0191596,515.958,584.806)">
                <path d="M476.33,0L478.23,0C493.59,0.71 508.2,7.38 520.2,16.74C537.03,30.19 547.83,49.17 561.4,65.55C564.9,69.38 567.99,74.02 572.99,76.03C588.45,82.84 605.15,86.32 620.46,93.49C635.14,100.03 649.33,109.18 658.3,122.83C664.4,132.17 668.44,142.87 669.84,153.95C672.06,170.57 671.5,187.38 672.24,204.09C672.5,210.03 673,216.08 675.21,221.66C677.72,228.06 681.96,233.54 685.87,239.12C696.23,253.23 706.83,267.57 712.9,284.16C717.4,296.15 718.96,309.33 716.51,321.96C713.4,338.6 704.82,353.56 695.37,367.37C688.84,376.8 681.59,385.75 675.69,395.61C674.45,397.6 673.87,399.89 673.64,402.2C671.18,423.38 672.7,444.81 670.16,465.98C669.7,469.62 671.21,473.1 672.39,476.46C678.95,493.56 686.74,510.16 694.2,526.88C723.25,590.42 752.83,653.71 781.98,717.2C799.88,756.67 818.21,795.95 835.05,835.89C840.52,847.85 840.51,862.46 834.14,874.07C830.28,880.9 824.88,886.93 818.43,891.39C809.57,897.39 798.4,897.84 788.07,897.2C778.14,896.66 768.77,893.04 759.59,889.49C730.8,878.01 702.61,865.03 673.51,854.33C670.45,852.8 667.09,854.63 664.98,856.9C663.14,859.23 662.16,862.09 660.93,864.76C649.74,890.05 640.88,916.29 629.79,941.63C625.29,951.51 620.57,961.99 611.64,968.7C602.33,976.32 590.09,980.8 578,979.26C564.4,977.74 552.5,969.24 544.26,958.65C537.44,950.12 533.37,939.91 528.64,930.18C498.26,864.92 468.11,799.55 437.79,734.26C432.61,723.39 427.7,712.39 422.2,701.68C413.62,716.99 406.44,733.03 398.84,748.84C371.83,805.73 346,863.17 319.17,920.15C313.33,932.2 307.7,944.39 300.98,955.99C293.11,970.23 277.02,978.45 261.24,980L258.61,980C244.31,978.89 231.31,970.54 222.54,959.46C217.64,953.46 214.95,946.11 212.02,939.04C203.8,918.79 196.11,898.33 188.1,877.99C185.17,871.09 182.53,863.96 178.28,857.74C176.37,854.79 172.63,852.58 169.15,854.24C147.18,862.14 125.73,871.42 104.1,880.18C87.97,886.56 71.93,893.56 54.98,897.45C37.01,901.77 17.46,892.65 7.86,877.18C1.89,867.59 -1.03,855.37 2.59,844.4C5.52,834.81 9.77,825.69 13.64,816.46C25.09,790.54 37.11,764.88 49.19,739.25C68.07,699.13 86.95,659.01 105.79,618.88C121.94,584.38 138.35,550.01 154.16,515.36C151.7,512.65 149.03,510.16 146.37,507.66C140.56,502.22 136.12,495.49 132.58,488.41C129.46,482 126.83,475.23 126.17,468.08C123.37,445.48 123.57,422.65 122.52,399.94C122.54,398.79 121.74,397.89 121.18,396.98C111.95,383.81 102.61,370.7 93.85,357.2C88.57,348.82 83.33,340.19 80.72,330.55C78.61,322.89 78.58,314.89 78.5,307.01C78.5,300.32 78.62,293.42 81.13,287.11C88.14,269.62 98.51,253.71 109.75,238.67C114.05,232.55 118.82,226.52 121.21,219.33C123.37,212.76 123.28,205.76 123.44,198.93C123.51,182.16 123.52,165.23 126.93,148.74C129.42,136.67 134.3,124.83 142.65,115.61C154.59,102.26 171.4,94.82 187.83,88.6C199.15,84.27 211.02,81.25 221.91,75.84C232.58,70.48 238.76,59.8 245.6,50.53C257.43,34.14 270.09,17.06 288.57,7.73C300.27,1.51 313.8,-0.84 326.95,0.56C350.08,2.52 371.34,12.78 394.02,16.94C398.52,17.9 403.08,16.81 407.48,15.84C430.41,10.57 452.41,0.06 476.33,0M313.46,33.57C303.23,36.1 293.85,42.04 287.22,50.24C277.06,62.52 268.44,76 258.25,88.26C253.64,93.61 248.79,99.08 242.39,102.32C228.79,109.15 214.32,113.96 200,119.01C190.9,122.54 181.58,125.93 173.57,131.64C166.67,136.49 161.59,143.84 159.27,151.92C156.2,171.93 156.62,192.24 155.18,212.39C154.69,219.99 153.74,227.68 150.86,234.79C148.22,241.39 144.09,247.23 140.07,253.04C130.8,266.3 120.23,278.99 114.14,294.15C110.6,302.79 109.74,312.64 112.66,321.59C117.15,335.88 126.54,347.85 135.26,359.78C141.38,368.23 148,376.62 151.51,386.58C154.83,396.01 155.16,406.11 155.76,415.99C156.45,432 156.87,448.06 158.92,463.96C159.66,471.33 163.24,478.31 168.54,483.44C177.89,492.41 190.94,495.3 202.81,499.41C214.46,503.18 225.41,508.68 236.66,513.46C244.39,516.76 250.74,522.5 256.35,528.64C267.92,541.28 276.07,556.6 287.59,569.3C291.09,573.15 294.93,576.85 299.57,579.31C303.08,581.17 307.13,581.4 311.01,581.7C322.72,582.31 334.39,580.42 345.78,577.84C362.68,573.96 378.85,567.13 396.09,564.72C401.31,564.11 406.45,565.68 411.53,566.7C421.83,569.15 432.07,572.08 441.9,576.05C444.98,577.19 447.57,579.55 450.94,579.91C458.53,581.24 466.28,581.44 473.98,581.44C482.15,581.28 490.79,581.24 498.08,577.01C507.05,571.86 513.06,563.11 519.24,555.08C529.42,540.95 539.79,526.48 554.03,516.12C569.82,504.31 588.98,498.61 607.5,492.63C615.6,489.77 624.36,486.86 630.02,480C635.05,473.42 636.18,464.89 637.09,456.9C638.4,443.29 638.62,429.6 639.37,415.95C640.02,405.95 640.61,395.74 644.23,386.29C647.81,376.92 653.95,368.85 659.73,360.75C667.29,350.18 675.41,339.81 680.66,327.83C685.98,316 685.61,301.81 679.8,290.22C672.06,274.31 660.39,260.82 651.14,245.83C647.33,239.43 642.63,233.16 641.67,225.56C638.2,202.82 639.32,179.68 636.65,156.86C635.89,150.05 633.7,143.14 628.84,138.12C619.93,127.53 606.51,122.53 593.8,118.13C577.36,112.52 559.42,108.83 545.97,97.1C531.52,84.23 522.42,66.77 509.57,52.48C501.95,43.9 492.88,35.37 481.19,33.22C470.47,31.11 459.93,34.94 449.73,37.77C436.17,41.56 422.98,46.85 409.03,49.16C399.45,50.83 389.59,50.05 380.17,47.79C363.11,43.76 346.83,36.84 329.54,33.72C324.23,32.84 318.76,32.47 313.46,33.57M631.62,520.67C616.25,528.55 599.75,533.77 583.46,539.35C581.22,539.91 580.42,542.34 579.06,543.95C567.54,559.85 556.22,576.31 541.01,588.96C532.24,596.13 522.74,602.4 512.8,607.83C500.36,614.72 486.54,620.35 472.04,619.39C454.88,618.25 438.46,612.64 422.11,607.72C411.91,604.61 401.34,600.38 390.51,602.7C374.64,606.13 359.62,612.62 343.87,616.53C333.48,619.12 322.66,618.88 312.03,618.52C302.05,618.27 292.93,613.83 283.92,610.04C268.36,603.38 253.46,594.7 241.28,582.84C229.29,571.52 220.2,557.68 210.5,544.48C208.01,541.34 205.77,537.6 201.83,536.15C195.95,533.76 189.8,531.6 183.41,531.24C135.99,632.8 87.43,733.82 40.75,835.72C38.25,842.02 34.16,848.08 34.28,855.1C34.92,859.93 38.68,865.13 43.97,865.13C49.52,865.28 54.87,863.51 60.1,861.89C91.16,851.14 120.89,836.95 151.82,825.88C161.49,822.74 171.95,818.98 182.15,821.97C189.94,824.59 197.76,828.43 202.95,835.03C208.81,842.44 212.33,851.31 216.15,859.87C224.25,879.41 231.52,899.28 239.42,918.89C242.5,926.14 245.39,933.57 249.78,940.16C252.35,943.66 256.29,947.37 261.01,946.62C267.83,945.59 273.34,940.28 276.07,934.14C286.06,913.67 295.47,892.92 305.18,872.31C339.35,798.67 373.23,724.88 407.2,651.14C411.86,641.63 416.01,631.76 422.12,623.06C440.05,659.73 456.74,697.01 474,734C500.77,791.52 526.83,849.37 554.32,906.55C559.81,917.59 565.11,928.79 571.82,939.16C574.45,943 577.76,947.68 583.01,947.44C588.21,947.56 591.6,942.95 594.09,939C599.83,929.22 603.93,918.59 608.19,908.11C614.35,892.61 619.98,876.91 626.3,861.48C629.93,852.7 633.55,843.76 639.11,835.99C644.94,827.68 654.95,823.66 664.55,821.66C677.34,819.98 689.46,825.62 701.24,829.74C727.2,839.84 752.48,851.67 778.69,861.13C784.64,863.05 790.71,865.43 797.07,865.09C801.85,864.82 805.06,860.26 806.07,855.97C806.77,849.55 803.27,843.79 800.94,838.06C768.13,764.61 733.92,691.8 700.22,618.75C683.6,583.21 667.34,547.48 650.18,512.18C643.54,513.92 637.72,517.67 631.62,520.67Z" style="fill:rgb(200,255,48);fill-rule:nonzero;"/>
                <path d="M369.64,146.84C383.37,145.12 397.23,146.05 411.02,146.28C419.47,146.49 428.02,146.75 436.25,148.85C459.01,154.97 480.83,165.11 499.39,179.73C525.72,200.17 545.45,228.8 555.58,260.52C562.21,280.21 563.46,301.29 562.3,321.9C560.65,355.47 547.1,388.01 525.88,413.91C502.19,442.73 468.51,463.01 432.15,471.09C389.9,479.87 344.06,471.97 308.01,447.97C272.48,424.66 246.17,387.54 236.39,346.15C233.1,329.33 232.43,312.06 233.4,294.98C234.14,280.48 237.89,266.31 242.88,252.74C255.63,218.38 279.91,188.36 311.15,169.13C329,158.14 348.92,150.21 369.64,146.84M377.55,178.82C369.13,179.68 361.18,182.7 353.17,185.24C314.8,198.63 284.44,231.31 271.8,269.69C262.54,296.22 263.14,325.8 272.74,352.15C278.62,368 286.03,383.75 297.77,396.17C306.85,405.86 316.31,415.53 327.95,422.15C345.22,432.05 364.32,439.08 384.17,441.29C421.54,445.49 460.14,432.04 487.7,406.66C511,385.36 526.05,355.35 529.19,323.93C531.19,303.22 529.18,281.85 521.54,262.39C506.07,222.64 470.7,191.06 429.05,181.28C412.24,177.06 394.7,177.66 377.55,178.82Z" style="fill:rgb(200,255,48);fill-rule:nonzero;"/>
                <path d="M391.9,238.95C393.17,236.87 394.43,234.26 397,233.61C399.68,233.74 401.23,236.28 402.66,238.23C407.79,246.08 411.55,254.71 415.9,263C417.72,266.42 419.36,270.09 422.28,272.75C424.65,274.9 427.81,275.85 430.88,276.52C441.39,278.56 452.13,279.26 462.6,281.58C464.86,282.23 468.29,283.08 468.21,286.05C467.29,289.92 464.19,292.7 461.7,295.64C453.62,304.33 445.17,312.67 436.92,321.21C438.8,333.08 441.01,344.91 442.42,356.85C442.69,360.05 443.33,363.45 442.17,366.56C440.87,369.47 437.09,368.07 434.82,367.26C422.16,361.69 410.21,354.66 397.8,348.58C384.3,355.56 371.16,363.42 357.01,369.05C353.34,370.26 352.38,365.61 352.68,362.96C353.47,348.71 356.98,334.8 359.36,320.77C349.76,310.96 339.59,301.67 330.77,291.14C329.28,289.03 326.94,286.95 327.06,284.19C329.13,281.96 332.26,281.23 335.14,280.67C347.95,278.74 360.81,277.1 373.6,274.98C379.61,262.93 385.51,250.81 391.9,238.95Z" style="fill:rgb(200,255,48);fill-rule:nonzero;"/>
            </g>
        </g>
    </g>
</svg>
