<?xml version="1.0" encoding="UTF-8" standalone="no"?>
<!DOCTYPE svg PUBLIC "-//W3C//DTD SVG 1.1//EN" "http://www.w3.org/Graphics/SVG/1.1/DTD/svg11.dtd">
<svg width="100%" height="100%" viewBox="0 0 29 82" version="1.1" xmlns="http://www.w3.org/2000/svg" xmlns:xlink="http://www.w3.org/1999/xlink" xml:space="preserve" xmlns:serif="http://www.serif.com/" style="fill-rule:evenodd;clip-rule:evenodd;stroke-linecap:round;stroke-miterlimit:10;">
    <g transform="matrix(1,0,0,1,-2527,-1732)">
        <g transform="matrix(1.33333,0,0,3.98333,1821.37,39)">
            <g transform="matrix(0.247268,0,0,0.0237785,348.862,390.955)">
                <g transform="matrix(3.03315,-0,-0,10.5577,729.412,1432.63)">
                    <path d="M18.12,20C18.12,17.93 16.44,16.25 14.37,16.25C12.301,16.25 10.62,17.93 10.62,20C10.62,22.07 12.301,23.75 14.37,23.75C16.44,23.75 18.12,22.07 18.12,20Z" style="fill:none;stroke:rgb(200,255,48);stroke-width:2.5px;"/>
                    <path d="M18.495,62.875C18.495,65.152 16.647,67 14.37,67C12.094,67 10.245,65.152 10.245,62.875C10.245,60.598 12.094,58.75 14.37,58.75C16.647,58.75 18.495,60.598 18.495,62.875Z" style="fill:rgb(200,255,48);"/>
                    <path d="M14.37,23.75L14.37,60.4" style="fill:none;stroke:rgb(200,255,48);stroke-width:2.5px;stroke-linejoin:round;stroke-miterlimit:1.5;"/>
                </g>
            </g>
        </g>
    </g>
</svg>
