<?xml version="1.0" encoding="UTF-8" standalone="no"?>
<!DOCTYPE svg PUBLIC "-//W3C//DTD SVG 1.1//EN" "http://www.w3.org/Graphics/SVG/1.1/DTD/svg11.dtd">
<svg width="100%" height="100%" viewBox="0 0 92 92" version="1.1" xmlns="http://www.w3.org/2000/svg" xmlns:xlink="http://www.w3.org/1999/xlink" xml:space="preserve" xmlns:serif="http://www.serif.com/" style="fill-rule:evenodd;clip-rule:evenodd;stroke-linejoin:round;stroke-miterlimit:2;">
    <g transform="matrix(1,0,0,1,-2481,-1613)">
        <g transform="matrix(1.33333,0,0,3.98333,1821.37,39)">
            <g transform="matrix(-0.134437,0,0,0.0449998,563.727,395.203)">
                <g>
                    <path d="M500.71,446.149L408.01,353.449C410.558,349.57 410.128,344.308 406.717,340.897C403.307,337.487 398.043,337.056 394.165,339.604L369.428,314.867C387.917,287.42 399.556,255.629 402.923,222.472C407.534,177.06 396.553,131.027 372.003,92.85C369.016,88.205 362.829,86.862 358.185,89.848C353.541,92.835 352.197,99.022 355.183,103.666C401.094,175.058 390.783,270.51 330.666,330.627C259.716,401.577 144.272,401.577 73.321,330.627C2.371,259.678 2.371,144.234 73.321,73.283C133.502,13.102 225.915,2.441 298.051,47.352C302.737,50.269 308.904,48.837 311.823,44.149C314.742,39.462 313.307,33.296 308.62,30.377C270.552,6.677 224.901,-3.693 180.068,1.174C134.551,6.117 91.62,26.705 59.18,59.143C-19.566,137.89 -19.566,266.021 59.18,344.767C98.554,384.141 150.273,403.827 201.993,403.827C241.396,403.827 280.791,392.387 314.734,369.535L339.347,394.148C335.649,398.066 335.708,404.237 339.542,408.072C341.495,410.025 344.053,411.001 346.612,411.001C349.08,411.001 351.542,410.084 353.466,408.268L446.029,500.831C453.479,508.281 463.273,512 473.094,512C483.005,512 492.944,508.209 500.517,500.636C515.591,485.56 515.679,461.117 500.71,446.149ZM335.366,361.889L361.768,335.487L379.878,353.597L353.476,379.999L335.366,361.889ZM486.376,486.496C479.096,493.775 467.34,493.863 460.169,486.69L367.616,394.137L394.018,367.735L486.57,460.288C493.742,467.461 493.655,479.217 486.376,486.496Z" style="fill:rgb(200,255,48);fill-rule:nonzero;"/>
                </g>
                <g>
                    <path d="M345.044,59.381L344.827,59.164C340.935,55.248 334.604,55.229 330.687,59.121C326.771,63.013 326.751,69.344 330.644,73.261L330.904,73.522C332.857,75.475 335.415,76.451 337.974,76.451C340.533,76.451 343.092,75.475 345.044,73.522C348.948,69.618 348.948,63.287 345.044,59.381Z" style="fill:rgb(200,255,48);fill-rule:nonzero;"/>
                </g>
                <g>
                    <path d="M201.993,47.981C117.091,47.981 48.018,117.054 48.018,201.956C48.018,286.858 117.091,355.931 201.993,355.931C286.895,355.931 355.968,286.858 355.968,201.956C355.968,117.054 286.895,47.981 201.993,47.981ZM201.993,335.934C128.117,335.934 68.015,275.832 68.015,201.956C68.015,128.08 128.117,67.978 201.993,67.978C275.869,67.978 335.971,128.08 335.971,201.956C335.971,275.832 275.869,335.934 201.993,335.934Z" style="fill:rgb(200,255,48);fill-rule:nonzero;"/>
                </g>
                <g>
                    <path d="M240.041,188.963C246.269,180.867 249.985,170.743 249.985,159.762L249.985,146.666C249.985,120.203 228.456,98.674 201.993,98.674C175.53,98.674 154.001,120.203 154.001,146.666L154.001,159.762C154.001,170.743 157.716,180.868 163.945,188.963C132.145,194.96 108.008,222.929 108.008,256.447L108.008,261.613C108.008,267.135 112.484,271.611 118.006,271.611L285.978,271.611C291.5,271.611 295.976,267.135 295.976,261.613L295.976,256.447C295.978,222.93 271.841,194.961 240.041,188.963ZM173.998,146.666C173.998,131.23 186.557,118.671 201.993,118.671C217.429,118.671 229.988,131.23 229.988,146.666L229.988,159.762C229.988,175.198 217.429,187.757 201.993,187.757C186.557,187.757 173.998,175.198 173.998,159.762L173.998,146.666ZM128.243,251.614C130.677,227.025 151.479,207.754 176.698,207.754L227.289,207.754C252.508,207.754 273.31,227.025 275.744,251.614L128.243,251.614Z" style="fill:rgb(200,255,48);fill-rule:nonzero;"/>
                </g>
                <g>
                    <path d="M442.305,11.987C436.783,11.987 432.307,16.463 432.307,21.985L432.307,34.413C432.307,39.934 436.783,44.411 442.305,44.411C447.827,44.411 452.303,39.935 452.303,34.413L452.303,21.986C452.303,16.463 447.827,11.987 442.305,11.987Z" style="fill:rgb(200,255,48);fill-rule:nonzero;"/>
                </g>
                <g>
                    <path d="M442.305,71.547C436.783,71.547 432.307,76.023 432.307,81.545L432.307,93.973C432.307,99.495 436.783,103.971 442.305,103.971C447.827,103.971 452.303,99.495 452.303,93.973L452.303,81.546C452.303,76.024 447.827,71.547 442.305,71.547Z" style="fill:rgb(200,255,48);fill-rule:nonzero;"/>
                </g>
                <g>
                    <path d="M478.299,47.981L465.871,47.981C460.349,47.981 455.873,52.457 455.873,57.979C455.873,63.501 460.349,67.977 465.871,67.977L478.299,67.977C483.821,67.977 488.297,63.501 488.297,57.979C488.297,52.457 483.821,47.981 478.299,47.981Z" style="fill:rgb(200,255,48);fill-rule:nonzero;"/>
                </g>
                <g>
                    <path d="M418.738,47.981L406.31,47.981C400.788,47.981 396.312,52.457 396.312,57.979C396.312,63.501 400.788,67.977 406.31,67.977L418.738,67.977C424.26,67.977 428.736,63.501 428.736,57.979C428.736,52.457 424.261,47.981 418.738,47.981Z" style="fill:rgb(200,255,48);fill-rule:nonzero;"/>
                </g>
                <g>
                    <path d="M61.937,412.008C56.415,412.008 51.939,416.484 51.939,422.006L51.939,434.434C51.939,439.956 56.415,444.432 61.937,444.432C67.459,444.432 71.935,439.956 71.935,434.434L71.935,422.006C71.935,416.484 67.459,412.008 61.937,412.008Z" style="fill:rgb(200,255,48);fill-rule:nonzero;"/>
                </g>
                <g>
                    <path d="M61.937,471.568C56.415,471.568 51.939,476.044 51.939,481.566L51.939,493.994C51.939,499.516 56.415,503.992 61.937,503.992C67.459,503.992 71.935,499.516 71.935,493.994L71.935,481.566C71.935,476.044 67.459,471.568 61.937,471.568Z" style="fill:rgb(200,255,48);fill-rule:nonzero;"/>
                </g>
                <g>
                    <path d="M97.931,448.002L85.503,448.002C79.981,448.002 75.505,452.478 75.505,458C75.505,463.522 79.981,467.998 85.503,467.998L97.931,467.998C103.453,467.998 107.929,463.522 107.929,458C107.929,452.478 103.453,448.002 97.931,448.002Z" style="fill:rgb(200,255,48);fill-rule:nonzero;"/>
                </g>
                <g>
                    <path d="M38.371,448.002L25.943,448.002C20.421,448.002 15.945,452.478 15.945,458C15.945,463.522 20.421,467.998 25.943,467.998L38.371,467.998C43.893,467.998 48.369,463.522 48.369,458C48.369,452.478 43.893,448.002 38.371,448.002Z" style="fill:rgb(200,255,48);fill-rule:nonzero;"/>
                </g>
            </g>
        </g>
    </g>
</svg>
